<svg width="640" height="480" xmlns="http://www.w3.org/2000/svg">
 <style type="text/css">.st0{fill:#FFFFFF;}
	.st1{fill:#999999;}</style>

 <g>
  <title>background</title>
  <rect fill="none" id="canvas_background" height="482" width="642" y="-1" x="-1"/>
 </g>
 <g>
  <title>Layer 1</title>
  <g stroke="null" id="svg_1">
   <path stroke="null" id="svg_2" d="m84.2,-7.799999c153.495324,0 307.604629,0 461.099952,0c0,167.002912 0,334.005824 0,501.008736c-153.495324,0 -307.604629,0 -461.099952,0c0,-167.002912 0,-334.005824 0,-501.008736zm130.164034,233.312892c0.613981,0 0.613981,0 1.227963,0c0,1.841944 0.613981,3.069906 0,4.91185c-1.841944,29.471102 -3.683888,58.942204 -5.525832,89.027288c-1.841944,28.857121 -4.297869,57.10026 -6.753794,85.957381c-0.613981,9.823701 1.227963,12.279626 9.823701,15.349532c26.401196,9.209719 53.416373,14.12157 81.659512,15.963514c44.206653,3.069906 87.799325,-4.297869 130.164034,-15.349532c11.665645,-3.069906 13.507588,-4.91185 12.279626,-17.191476c-1.841944,-27.629158 -4.297869,-55.258317 -6.139813,-82.887475c-1.841944,-28.857121 -3.069906,-57.714242 -4.91185,-89.027288c3.069906,7.367776 5.525832,12.893607 7.981757,18.419439c3.683888,7.981757 6.753794,9.823701 14.735551,6.753794c22.103327,-7.367776 42.978691,-18.419439 60.784148,-33.768971c8.595738,-7.367776 8.595738,-9.209719 3.069906,-19.03342c-23.331289,-38.680822 -46.662578,-76.747662 -69.379886,-115.428483c-4.297869,-7.367776 -10.437682,-12.279626 -19.647401,-14.12157c-13.507588,-3.069906 -27.015177,-6.139813 -41.136747,-9.209719c-20.875364,-4.91185 -19.647401,-4.91185 -27.015177,14.12157c-6.139813,16.577495 -19.03342,25.787214 -35.610915,25.787214c-18.419439,0 -32.541009,-8.595738 -39.294803,-25.173233c-1.227963,-3.069906 -1.841944,-6.139813 -3.069906,-9.209719c-3.069906,-7.981757 -5.525832,-9.209719 -14.12157,-7.367776c-16.577495,3.683888 -33.15499,7.367776 -50.346466,11.665645c-7.981757,1.841944 -13.507588,6.139813 -17.805458,12.893607c-23.331289,38.680822 -46.662578,77.975624 -69.993868,116.656446c-6.139813,10.437682 -6.139813,14.12157 4.91185,20.261383c15.963514,10.437682 32.541009,19.647401 49.118504,29.471102c3.069906,1.841944 6.753794,1.841944 9.823701,3.069906c7.367776,2.455925 11.665645,-1.227963 14.12157,-7.981757c4.297869,-9.209719 7.981757,-17.191476 11.051663,-24.559252z" class="st0"/>
   <path stroke="null" id="svg_3" d="m214.364034,225.512893c-3.683888,7.981757 -7.367776,15.349532 -10.437682,23.331289c-2.455925,6.753794 -6.753794,9.823701 -14.12157,7.981757c-3.069906,-1.227963 -6.753794,-1.227963 -9.823701,-3.069906c-16.577495,-9.823701 -33.15499,-19.03342 -49.118504,-29.471102c-10.437682,-6.753794 -11.051663,-9.823701 -4.91185,-20.261383c23.331289,-38.680822 46.662578,-77.975624 69.993868,-116.656446c4.297869,-6.753794 9.823701,-11.051663 17.805458,-12.893607c16.577495,-3.683888 33.15499,-7.981757 50.346466,-11.665645c8.595738,-1.841944 11.051663,-0.613981 14.12157,7.367776c1.227963,3.069906 1.841944,6.139813 3.069906,9.209719c6.753794,16.577495 20.261383,25.787214 39.294803,25.173233c16.577495,0 29.471102,-9.209719 35.610915,-25.787214c7.367776,-19.03342 6.139813,-19.03342 27.015177,-14.12157c13.507588,3.069906 27.015177,6.139813 41.136747,9.209719c8.595738,1.841944 14.735551,6.753794 19.647401,14.12157c22.717308,38.680822 46.048597,76.747662 69.379886,115.428483c6.139813,9.823701 5.525832,11.665645 -3.069906,19.03342c-17.805458,15.349532 -38.680822,25.787214 -60.784148,33.768971c-7.981757,3.069906 -11.051663,1.227963 -14.735551,-6.753794c-2.455925,-5.525832 -4.91185,-11.051663 -7.981757,-18.419439c1.841944,31.313046 3.069906,60.170167 4.91185,89.027288c1.841944,27.629158 4.297869,55.258317 6.139813,82.887475c0.613981,12.893607 -0.613981,14.12157 -12.279626,17.191476c-42.364709,11.665645 -85.957381,18.419439 -130.164034,15.349532c-27.629158,-1.841944 -55.258317,-6.753794 -81.659512,-15.963514c-8.595738,-3.069906 -11.051663,-5.525832 -9.823701,-15.349532c1.841944,-28.857121 4.297869,-57.10026 6.753794,-85.957381c1.841944,-29.471102 3.683888,-58.942204 5.525832,-89.027288c0,-1.841944 0,-3.069906 0,-4.91185c-1.227963,1.227963 -1.227963,1.227963 -1.841944,1.227963zm-77.361643,-13.507588c14.735551,15.349532 31.313046,26.401196 51.574429,31.313046c4.297869,1.227963 7.981757,0.613981 9.823701,-3.683888c12.279626,-25.173233 22.717308,-51.574429 20.261383,-81.045531c0,-3.069906 -0.613981,-6.139813 0.613981,-8.595738c1.227963,-2.455925 3.683888,-3.683888 5.525832,-6.139813c1.227963,1.841944 3.683888,3.683888 4.297869,6.139813c0.613981,2.455925 0.613981,5.525832 0.613981,7.981757c-1.841944,38.06684 -3.069906,76.133681 -5.525832,114.200521c-1.841944,41.136747 -4.91185,81.659512 -6.753794,122.796259c-0.613981,13.507588 0,14.12157 12.893607,17.805458c60.784148,17.191476 120.954315,14.735551 181.124482,-1.227963c12.279626,-3.069906 13.507588,-5.525832 12.893607,-18.419439c-1.841944,-28.24314 -3.683888,-56.486279 -5.525832,-85.3434c-1.841944,-42.364709 -3.683888,-84.729419 -5.525832,-127.094128c-0.613981,-10.437682 -0.613981,-20.875364 0,-31.927027c0,-1.841944 3.683888,-4.297869 5.525832,-6.139813c1.227963,1.841944 4.297869,4.297869 4.297869,6.139813c0.613981,10.437682 0.613981,20.875364 0.613981,31.927027c0,12.279626 1.227963,23.331289 7.367776,33.768971c3.683888,6.753794 7.367776,13.507588 10.437682,20.875364c3.069906,7.367776 7.367776,7.981757 14.12157,6.753794c19.03342,-4.297869 32.541009,-17.805458 47.890541,-29.471102c-0.613981,-1.227963 -0.613981,-2.455925 -1.227963,-3.683888c-23.331289,-38.680822 -46.048597,-76.747662 -69.379886,-114.814502c-1.841944,-3.069906 -5.525832,-5.525832 -8.595738,-6.753794c-17.191476,-4.297869 -33.768971,-8.595738 -51.574429,-12.893607c-7.367776,26.401196 -23.331289,41.750728 -51.574429,41.750728c-29.471102,0.613981 -45.434616,-15.349532 -54.030354,-41.750728c-15.963514,3.683888 -31.313046,7.981757 -46.662578,11.051663c-6.139813,1.227963 -11.051663,4.91185 -14.12157,10.437682c-17.191476,28.24314 -34.996934,55.872298 -52.18841,84.115437c-6.753794,10.437682 -11.665645,21.489345 -17.191476,31.927027z" class="st1"/>
   <path stroke="null" id="svg_4" d="m137.002391,212.005304c5.525832,-10.437682 10.437682,-20.875364 16.577495,-30.699065c17.191476,-28.24314 34.996934,-55.872298 52.18841,-84.115437c3.683888,-5.525832 7.981757,-9.209719 14.12157,-10.437682c15.349532,-3.683888 30.699065,-7.367776 46.662578,-11.051663c8.595738,26.401196 24.559252,42.364709 54.030354,41.750728c28.24314,-0.613981 44.206653,-15.963514 51.574429,-41.750728c17.805458,4.297869 34.996934,7.981757 51.574429,12.893607c3.069906,0.613981 6.753794,3.683888 8.595738,6.753794c23.331289,38.06684 46.662578,76.747662 69.379886,114.814502c0.613981,1.227963 0.613981,2.455925 1.227963,3.683888c-14.735551,11.665645 -28.24314,25.173233 -47.890541,29.471102c-6.753794,1.841944 -11.665645,0.613981 -14.12157,-6.753794c-3.069906,-7.367776 -6.753794,-14.12157 -10.437682,-20.875364c-6.139813,-10.437682 -7.367776,-22.103327 -7.367776,-33.768971c0,-10.437682 0,-20.875364 -0.613981,-31.927027c0,-1.841944 -2.455925,-4.297869 -4.297869,-6.139813c-1.841944,1.841944 -5.525832,3.683888 -5.525832,6.139813c-0.613981,10.437682 -0.613981,20.875364 0,31.927027c1.841944,42.364709 3.683888,84.729419 5.525832,127.094128c1.227963,28.24314 3.069906,57.10026 5.525832,85.3434c0.613981,12.893607 0,15.349532 -12.893607,18.419439c-60.170167,15.963514 -120.954315,18.419439 -181.124482,1.227963c-12.893607,-3.683888 -13.507588,-4.297869 -12.893607,-17.805458c1.841944,-41.136747 4.91185,-81.659512 6.753794,-122.796259c1.841944,-38.06684 3.683888,-76.133681 5.525832,-114.200521c0,-2.455925 0,-5.525832 -0.613981,-7.981757c-0.613981,-2.455925 -3.069906,-3.683888 -4.297869,-6.139813c-1.841944,1.841944 -4.297869,3.683888 -5.525832,6.139813c-1.227963,2.455925 -0.613981,5.525832 -0.613981,8.595738c3.069906,29.471102 -7.367776,55.258317 -20.261383,81.045531c-1.841944,4.297869 -5.525832,4.91185 -9.823701,3.683888c-19.647401,-6.139813 -36.224896,-17.191476 -50.960447,-32.541009z" class="st0"/>
  </g>
 </g>
</svg>