<?xml version="1.0" encoding="utf-8"?>
<!-- Generator: Adobe Illustrator 19.0.0, SVG Export Plug-In . SVG Version: 6.00 Build 0)  -->
<svg version="1.1" id="Layer_6__x2B__Layer_5_xA0_Imagem_1_"
	 xmlns="http://www.w3.org/2000/svg" xmlns:xlink="http://www.w3.org/1999/xlink" x="0px" y="0px" viewBox="0 0 405.8 475.1"
	 style="enable-background:new 0 0 405.8 475.1;" xml:space="preserve">
<style type="text/css">
	.st0{fill:#FEFEFE;}
	.st1{fill:#312413;}
	.st2{fill:#392911;}
	.st3{fill:#1D1407;}
	.st4{fill:#13110B;}
	.st5{fill:#18160F;}
	.st6{fill:#241809;}
	.st7{fill:#5E4626;}
	.st8{fill:#433118;}
	.st9{fill:#20190D;}
	.st10{fill:#392A15;}
	.st11{fill:#503817;}
	.st12{fill:#583E19;}
	.st13{fill:#36250E;}
	.st14{fill:#2D2415;}
	.st15{fill:#2A1E0C;}
	.st16{fill:#5C4529;}
	.st17{fill:#5E4C31;}
	.st18{fill:#634218;}
	.st19{fill:#211707;}
	.st20{fill:#603D0D;}
	.st21{fill:#5C421A;}
	.st22{fill:#22190C;}
	.st23{fill:#1E1304;}
	.st24{fill:#272219;}
	.st25{fill:#4F3715;}
	.st26{fill:#2C2923;}
	.st27{fill:#654A25;}
	.st28{fill:#714D17;}
	.st29{fill:#583D1B;}
	.st30{fill:#312513;}
	.st31{fill:#28231A;}
	.st32{fill:#10110D;}
	.st33{fill:#583E1C;}
	.st34{fill:#604D3A;}
	.st35{fill:#352A19;}
	.st36{fill:#221708;}
	.st37{fill:#1C1713;}
	.st38{fill:#1E1915;}
	.st39{fill:#634219;}
	.st40{fill:#604E3B;}
	.st41{fill:#2B1D0B;}
	.st42{fill:#614E3B;}
	.st43{fill:#2B1F0E;}
	.st44{fill:#1F1B17;}
	.st45{fill:#1E1A16;}
	.st46{fill:#4E3D26;}
	.st47{fill:#1D1B14;}
	.st48{fill:#1A1811;}
	.st49{fill:#593F1E;}
	.st50{fill:#2C1D08;}
	.st51{fill:#1D1406;}
	.st52{fill:#4D381A;}
	.st53{fill:#251C0D;}
	.st54{fill:#42341D;}
	.st55{fill:#534229;}
	.st56{fill:#271E0F;}
	.st57{fill:#50350E;}
	.st58{fill:#503B1E;}
	.st59{fill:#5A4221;}
	.st60{fill:#6A4F2B;}
	.st61{fill:#624118;}
</style>
<g>
	<path class="st0" d="M216.1,475c0.2-2.4,2.2-2.2,3.7-2.3c10.3-1.1,20.4-3.4,30.5-5.5c24.6-6.5,47.3-17.1,68.1-31.6
		c5.9-3.8,11-8.6,16.4-13.1c8-6.6,15.1-14.1,21.7-22c3-4,6.7-7.4,9.2-11.9c6-7.5,10.6-15.9,15.4-24.2c1.4-2.2,2-4.8,3.2-7.1
		c3.6-6.7,6.2-13.8,8.8-21c2.4-6.5,4-13.3,5.8-20c1.5-6.2,2.6-12.4,3.3-18.7c2.5-17.8,3.1-35.6,0.6-53.4c-1-14.9-5.2-29.1-10-43.1
		c-6.6-19.2-16.9-36.5-28.4-53c-1.5-2.1-3.2-3.8-5.2-5.4c-4.7-8.4-12-14.5-18.8-21c-5.3-6.5-12.4-11.1-18.8-16.3
		c-2.1-1.7-3.4-1.4-4.7,0.9c-5.4,9.8-12.7,17.9-22.8,23.1c-3,1.5-1.2,2.7,0.3,3.9c7.8,5.7,14.8,12.4,21.6,19.2
		c21.9,21.7,35.6,47.9,42.6,77.7c0.2,1,0.5,1.9,0.8,2.9c1.7,8.7,2.8,17.4,3.3,26.2c0.2,14.2,0.6,28.5-2.2,42.6
		c-1.9,7.9-3.3,15.9-6.1,23.6c-4.2,11.5-9.2,22.5-15.8,32.8c-6.6,10.1-13.9,19.6-22.5,28.2c-5.6,5.9-11.9,11.1-18.2,16.2
		c-6.6,5-13.4,9.7-20.4,14c-4.2,2.2-8.5,4.2-12.6,6.5c-21.4,9.6-43.9,13.8-67.4,13.2c-4-0.1-8.1-0.3-10.8,3.6
		c-6.6,9.2-14.3,17.4-21.5,26.1c-3,3.6-2.7,3.9,1.8,4.6c4.3,0.7,8.6,0.8,12.8,1.8c1.4,0.3,3.6-0.1,3.6,2.4c-59.7,0-119.3,0-179,0.1
		c-3.4,0-4.1-0.7-4.1-4.1c0.1-52.3,0.1-104.7,0.1-157c3.8,1.5,1.9,5.3,3.1,7.8c0.5,6.7,2.1,13.3,3.7,19.8c0.8,5.6,2.7,10.8,4.8,16
		c5,13,10.8,25.6,19.1,36.9c2.5,3.8,5.7,6.7,9.3,9.5c6.8,5.3,14,6,21.9,2.9c2.2-0.7,3.9-2.2,5.8-3.4c2.1-1.3,3.9-2.9,5.9-4.3
		c7.1-6.4,12.8-14.2,18.6-21.7c3.4-4.9,7.1-9.6,10.2-14.7c5.2-6.9,9.6-14.2,14.7-21.1c2.7-4.5,6.1-8.6,9.1-13
		c5.8-7.4,11.2-15.3,17.7-22.1c2.2-3,5-5.5,7.7-8.1c5.1-4,10.1-8.2,15.8-11.3c2.4-1.3,2.3-2.6,0.7-4.6c-4.3-5.5-8.7-11-11.4-17.5
		c-5.3-12.9-12.5-25-15.9-38.7c-4.1-14.7-4.5-29.5-1-44.4c2.2-7,3.8-14.1,6.9-20.7c4.6-10.3,9.5-20.4,16.1-29.5
		c3.5-4.4,7.5-8.3,12-11.7c13.1-8.4,26.9-8.2,39.6,0.6c6.2,4.3,11.5,9.5,15.4,16c6.1,8.9,10.2,18.6,12.1,29.2
		c2.3,11.7,1.2,23-3.7,33.8c-3.5,6.9-8.2,12.9-14.8,17.1c-1.8,1.1-3.6,2.3-5.4,3.3c-8.9,4.3-8.8,4.3-2.7,12
		c6.5,8.3,13.8,15.7,24.1,19.3c4.9,1.4,9.2,0,13.1-2.8c8.4-6.1,14-14,15.7-24.4c1.2-12.8-0.6-25.3-3-37.7
		c-2.1-11.1-4.3-22.2-7.2-33.2c-1.4-6.8-2.9-13.5-4.2-20.3c-0.4-1.9-0.3-3.9,0.3-5.9c2-4,6-3.6,9.5-4.1c2.6-0.4,5.3,0.2,7.9-0.6
		c3.4-0.5,6.8-0.9,10-2c8.8-2.2,15.3-7.5,20.4-14.9c3.1-4.5,5.4-9.5,7.7-14.5c0.9-2,1.1-4.2-1.3-5c-11.9-4-22.8-10.9-35.7-11.8
		c-6-1.4-11.6,0.6-17.3,1.9c-3.2,0.9-6.5,1.5-9.3,3.2c-6.2,3.7-11.8,3.2-17.3-1.2c-2.3-1.4-4.5-2.8-6.8-4.1
		c-5.1-2.9-5.6-4.4-3.4-9.6c0.6-1.4,1.1-2.8,1.5-4.2c6.9-18.3,4.7-36.5-0.2-54.8c-0.5-1.7-1.6-3.4-0.8-5.3"/>
	<path class="st0" d="M0.1,293c0-96.3,0-192.7-0.1-289c0-3.4,0.7-4.1,4.1-4.1C74.4,0,144.8,0,215.1,0c0.1,2.5-2.1,2.6-3.6,3.3
		c-6,2.8-12,5.5-17.3,9.6c-13.5,9.3-21.5,21.8-22.9,38.4c-0.4,4.6-1,9.2-0.2,13.9c0.8,4.4-1.6,6.9-5.9,7.7c-6,1.2-11.7,3.2-17.5,5.1
		c-7.1,1.9-13.2,6-19.9,9c-6.5,3.3-12.4,7.5-18.4,11.6c-7.6,5.5-15.1,11.2-21.8,17.9c-5,3.3-8.7,7.9-13,12
		c-3.7,3.3-6.4,7.6-9.9,11.1c-4.4,5.5-8.6,11.1-12.8,16.7c-0.9,1.1-1.5,2.3-2.1,3.5c-4.4,6.3-8.3,12.9-12,19.7
		c-3,4.9-5.3,10.1-7.8,15.2c-3.2,6.1-5.8,12.5-8.2,18.9C15.1,232,9.2,250.6,5.4,269.8c-1.6,6.3-1.5,12.8-2.8,19.1
		C2.3,290.5,2.7,292.7,0.1,293z"/>
	<path class="st1" d="M183.1,475c-5.2-2.5-10.9-1.8-16.3-2.9c-2.2-0.5-5.6-0.1-6.4-1.7c-1-2.2,2.2-3.7,3.7-5.3
		c7.2-8.2,14.3-16.5,21-25.2c6.5,6.5,13.9,11.9,21.4,17.1c8.8,6.2,14.7,5.9,23.1-0.5c6.5-4.9,11.1-11.4,16.5-17.3
		c1.3-1.5,2.5-3.1,4.1-4.4c2.6-2.2,5.4-2.6,8.2-0.5c2.7,2.1,3.5,4.8,2.3,8c-1.3,3.3-3.6,6-5.5,8.9c-1.9,2.9-3.8,5.9-5.4,9
		c-1.5,3-1.6,5.7,1.5,7.8c-10.4,3-20.9,4.9-31.6,6c-1.2,0.1-2.7-0.7-3.5,1C205.1,475,194.1,475,183.1,475z"/>
	<path class="st2" d="M194,11.7c4.8-4.5,11.1-6.5,16.8-9.4c1.4-0.7,3.2-0.8,4.3-2.3c1.3,0,2.7,0,4,0c5.6,13.2,7.3,27.1,6.5,41.3
		c-0.4,6.8-1.5,13.5-4.6,19.7c-4.1,0.1-4.7,2.9-4.5,6.1c0.4,6.3-1.1,12-4.7,17.1c-0.9-0.2-1.4-0.9-1.6-1.7
		c-7.3-20.9-13.5-42.1-16.9-64.1C192.9,16.1,192.5,13.8,194,11.7z"/>
	<path class="st3" d="M0.1,293c2.4-5.7,1.5-11.9,2.9-17.7c0.5-2.1,0.9-4.2,1.3-6.3c1.4-0.8,2.2,0,2.7,1.2c0.6,1.6,0.6,3.3,0.2,4.9
		c-3.5,13.6,0.8,26.3,5,38.9c1.7,5.2,4.3,10.1,4.7,15.7c-3.4,3.5-11.2,1.3-13.6-4c-0.5-1.2-0.4-2.6-1.3-3.7c-1.6-2.4,0.2-5.7-1.9-8
		C0.1,307,0.1,300,0.1,293z"/>
	<path class="st4" d="M358,232c-3.6-12.7-7.2-25.5-13.2-37.4c-12.2-24.2-29.6-44-51.1-60.3c-1.2-0.9-2.4-1.8-3.6-2.7
		c-0.2-0.2-0.3-0.6-0.7-1.2c12.4-5.3,21.2-14.4,27.1-26.3c0.6-1.3,1.6-3.1,3.4-1.6c6.8,5.6,14,10.7,20.2,17c0.4,0.4,0.6,1.1,1,1.6
		c6.3,10.3,13.3,20.1,20.2,30c1.3,3.1,1.9,6.4,2.1,9.7c2.5,7.7,2.4,15.8,4.6,23.6c0.9,3.1,3.5,5.1,5.7,7.3c2.1,2.4,2.5,4.9,2.1,8.2
		c-0.6,5,1.2,9.8,2.9,14.6c3.2,9.4,7,18.7,8.3,28.7c0.5,3.7,0.6,7.3,0.2,11c-0.4,3.6-2.2,4.3-5,2.2c-2.6-2-5-4.4-7.1-7
		c-4-5-8.3-9.6-13.7-13C359.9,235.1,359.1,233.5,358,232z"/>
	<path class="st5" d="M194,11.7c1.4,14.9,4.9,29.3,8.8,43.7c2.7,9.7,6.1,19.1,9.3,28.6c1,0.5,1.5,1.4,2,2.3
		c2.2,4.5,1.3,9.4,1.9,14.1c0.8,6.4,3,11.7,7.7,16c3.3,5.2,4.6,11.3,6.7,17c0.5,1.4,1.2,3.4-1.5,3.7c-5.3-7.5-11.5-14-19.7-18.2
		c-11.8-6.2-23.2-4.9-34.3,2.1c-3,0-3.3-2.5-3.7-4.5c-2.6-12.8-5.4-25.5-7.3-38.4c-0.3-2.2-0.5-4.3,1.1-6.1c4.4-0.5,4.9-3.3,4.6-7.1
		c-0.8-11.9,0.1-23.6,6.3-34.3C180.5,22.8,186.1,16.1,194,11.7z"/>
	<path class="st6" d="M251.2,468c-4.9,0.4-4.7-2.6-3.7-5.8c1.7-5.5,5.4-9.8,8.4-14.6c1.1-1.8,2.5-3.6,3.5-5.4c1.6-3,0.6-5.5-2-7.4
		c-2.4-1.7-4.7-1.2-6.6,1c-3.6,4.1-7.3,8.1-10.7,12.4c-3.8,4.7-8.4,8.4-13.3,11.9c-5.3,3.8-11.3,3.6-16.5,0.6
		c-8.7-5-17-10.9-24-18.2c-0.6-0.7-0.8-1.8-1.2-2.7c1.5-3,3.4-5,7.2-4.8c25.2,1.1,49.5-2.9,72.7-13.3c2.2,0.9,2.4,3,3.1,4.8
		c2.6,6.9,6.3,13,11.3,18.8c0-5.5,2.2-10.5,2.5-15.8c0.2-3.8-0.5-7.2-3.3-10c-1-1-2.3-2.1-1.5-3.9c6.7-4.6,13.4-9.2,20.1-13.7
		c2.5-1.4,3.2,0.9,4.1,2.3c1.8,2.8,3.7,5.4,6.5,7.4c3.2,2.2,3.3,6,4.6,9.1c1,2.9,2.6,5.2,5,7.2c2.5,2.2,4.2,4.8,2,8.3
		C298.6,451.3,275.9,461.8,251.2,468z"/>
	<path class="st7" d="M144.9,307c-5.9,7.3-11.9,14.7-17.8,22c-8.6-11.5-16.7-23.2-24.1-35.4c-9.4-15.4-16.5-32-23-48.7
		c-4.6-11.9-8.7-24.1-11.9-36.6c-0.6-2.8-1.4-5.5-1.7-8.3c-0.2-3.2,1.3-4.4,3.8-2.7c5.4,3.7,10.7,7.1,12.8,14.5
		c2.8,10.2,10.2,18,16.6,26.4c1.9-1.4,1.1-3.2,1.4-4.7c0.3-1.7,0.8-3.3,2.6-3.9c2.1-0.7,3.6,0.5,4.6,2.1c3.5,5.3,6.9,10.5,9.4,16.4
		c3.9,9,8,17.9,14.3,25.5C137.8,284.1,143.4,294.7,144.9,307z"/>
	<path class="st8" d="M74,399.9c-1.6,2-3.6,3.5-5.9,4.6c-4.7-5.9-6.6-13.4-10.6-19.7c-1.4-2.2-2.5-4.7-4.2-6.8
		c-3-3.5-6.7-6-11.4-4.7c-12.2,3.5-19.7-2.8-25.8-12c-1.1-2.3-3-4.3-1.4-7.1c4-0.4,3.8-3.6,3.8-6.3c-0.1-3.5-1-6.9-1.9-10.3
		c-0.7-2.7-0.8-5.2,0-7.8c1.7-4.1,2.1-8.3,2.2-12.7c0.2-7.9,4.5-11.1,12.1-9.4c10,2.2,15-0.7,18-10.6c1.3-4.1,2.7-8.2,3.7-12.5
		c0.3-1.5,0.2-3.6,2.6-3.6c0.6,0.6,0.9,1.4,1.1,2.2c0.8,11,3.4,21.7,4.9,32.6c0.3,2,0.9,3.9,0.6,5.9c-3.8,6.1-3.3,12.6-2.4,19.3
		c0.2,1.8,0.1,3.7-0.1,5.5c-4.7,8.2-1.5,15.2,2.9,22.3c4,6.5,7.4,13.4,10.8,20.2C74.5,392.3,76.5,396,74,399.9z"/>
	<path class="st9" d="M358,232c9.9,5.3,16.1,14.5,23.9,22.2c1,1,1.8,2.9,3.5,2.1c1.4-0.6,0.6-2.4,0.7-3.7
		c0.8-13.5-4.7-25.5-8.6-37.9c-1.8-5.8-4.9-11.5-2.3-18c0.7-1.8-2.4-2.6-2.1-4.7c-0.4-0.4-0.4-0.8,0.1-1.2c6.5,3.7,10,9.8,13.6,15.9
		c2.2,3.7,3.8,7.7,5.3,11.8c3.2,8.5,6.7,16.9,11.9,24.5c2.7,18.4,2.6,36.8-0.7,55.2c-2.2-5.4-6-9.8-9.2-15.5
		c-1.9,7.2-0.9,13.4,1.4,19.6c1.8,4.8,4.4,9.3,4.4,14.6c-1.6,6.8-3.2,13.5-5.9,20c-3-0.4-3.2-3-3.9-5.1c-2.8-8-4.6-16.3-6.9-24.4
		c-3-10.8-8.8-20.4-14.5-29.9c-3.5-5.8-7.6-11.3-7.4-18.6C360.2,250,359.1,241,358,232z"/>
	<path class="st10" d="M142.2,226.8C146,240.2,153.4,252,158,265c-1.8,1.6-3.4,0.3-5-0.4c-8.3-3.5-12.5-10.5-15.6-18.4
		c-1.5-3.9-3-7.7-6.1-10.7c-0.9-0.9-1.8-2.3-3.3-1.6c-1.6,0.8-1.5,2.5-1.2,4c0.6,2.8,1.5,5.4,1.9,8.2c0.2,1.8,1,3.6-0.8,5.1
		c-5.9-4.7-10.2-10.8-10.6-18.3c-0.6-13.5-6.1-25.4-10.8-37.6c-4.2-10.8-8.5-21.6-12.7-32.4c-1.8-11.5-4.1-23-5.8-34.6
		c-0.1-0.8,0-1.6,0.3-2.4c2.3-2.7,4-0.2,5.4,0.9c6.2,5,11.1,11.2,13.3,18.9c2.1,7.1,5.2,13.2,10.9,18c0.6,0.8,1.3,1.8,1.1,2.6
		c-1.2,4.7,1.4,8.4,3,12.4c4.3,16.8,11.9,32.2,19.4,47.7C141.5,226.7,141.8,226.8,142.2,226.8z"/>
	<path class="st11" d="M55.1,283c0-0.7,0-1.3,0-2c-1-2.2-0.2-4.2,0.4-6.2c2.9-9.3,4-18.6,2.4-28.3c-0.5-3.1-0.3-6.2,0-9.4
		c1.6-10.3,3.1-20.5,4.2-30.9c3.2-2.8,4.7,0.8,7,1.8c3.6,11,7,22.1,10.9,33c5.5,15.2,11.8,30.1,19.6,44.3c7.7,14,17,26.9,26,40
		c0.7,1.1,1,2.4,1.4,3.7c-3,4.3-6,8.7-9.1,13c-2.5,1.3-3.3-0.9-4-2.3c-3.7-7.2-7.7-14.2-9.8-22.1c-2.4-4.7-6-8.7-8.1-13.6
		c-0.8-5.2-1.3-10.5-6.5-13.5c-1.7-1.7-1.9-4-2.6-6.1c-0.9-6-2.5-11.7-7.4-15.8c-1.6-1.3-1.6-3.6-2.1-5.5c-0.5-2-0.7-4.7-3.7-4.4
		c-3.1,0.3-4.3,2.9-4.1,5.4c0.7,7.1-3.9,11.7-7.5,16.8C60.6,283,58.4,285.2,55.1,283z"/>
	<path class="st12" d="M229,137.1c1.2-0.8,1-1.9,0.6-3c-2.2-5.7-4.4-11.4-6.5-17.1c-1.9-2.3-2.4-5-2.4-7.9
		c0.1-8.6-2.3-16.3-7.7-23.1c-0.8-0.4-0.9-1.2-1-2c-0.1-2.3,0-4.5,1.6-6.5c2-2.3,1.3-5.3,1.4-8.1c0.1-2.1-0.2-4.3,0.2-6.4
		c0.7-3.4,2.4-5.1,5.7-2.1c-2.6,9-2.6,9,5.4,14c1,0.6,1.9,1.3,2.8,2c1.3,3.1,2.1,6.4,2.4,9.7c1.1,10.9,5.9,20.8,7.8,31.5
		c0.5,2.7,2.3,4.4,4.5,5.7c1.8,1.1,4.1,1.8,5.5,3.3c2.1,2.2,3.7,1.4,5.5-0.1c-0.4,7.6,2.8,14.5,3.7,21.8c0.2,1.3,0.4,2.6,0.6,3.9
		c0.5,1.3,0.5,2.5-1.2,2.4c-3.3-0.3-3,1.8-2.7,3.8c1.6,10.2,3.6,20.3,5.3,30.5c0.5,3,1.3,5.9,0.2,8.8c-2.4,2.1-3.2-0.4-4-1.6
		c-5.9-9.9-11.7-19.9-15.2-31c-0.1-0.3-0.4-0.5-0.7-0.6C238.7,155.1,234.7,145.8,229,137.1z"/>
	<path class="st13" d="M121.1,179c-4.4-4.2-3.1-9.9-4-15c0.2-0.3,0.4-0.5,0.7-0.7c8.9-4.5,9.4-5.6,6.1-15.4
		c-4.3-12.9-8.5-25.8-13.8-38.3c-1.6-3.8-1.6-7.7-1.3-11.7c5.7-4.5,11.8-8.4,18.3-11.7c1.4,1.2,1.5,2.9,1.8,4.5
		c2.5,14,7.9,27,12.3,40.4c3.3,9.8,6.4,19.5,6.8,29.9c-2.3,6.7-4.6,13.4-6.9,20.1c-4.1-1.4-8.4-2-12.5-3.2
		C125.9,177.2,123.4,177.4,121.1,179z"/>
	<path class="st14" d="M361.2,259c1.6,8.3,6.8,14.9,10.9,21.9c6.9,11.6,12.2,23.7,15.1,37c1.4,6.6,3,13.2,6.7,19
		c-2.5,7.2-4.9,14.5-9,21c-3.7,1.8-5.9-0.3-7-3.2c-5.5-15-12.1-29.5-18.4-44.2c-1-2.4-1.4-5.1-0.6-7.8
		C360.8,288.2,361.8,273.7,361.2,259z"/>
	<path class="st15" d="M148,161c-3.5-3.3-1.7-7.9-2.7-11.8c-3.1-11.3-6.8-22.4-10.8-33.4c-3.5-9.6-6.4-19.4-7.4-29.7
		c6.4-3.7,12.8-7.2,20-9.1c5,10.2,7.4,21.1,9.6,32.2c1.6,7.8,5,15,7.2,22.7C157.5,141,152.8,151.1,148,161z"/>
	<path class="st5" d="M315.1,386c8-8.8,15.8-17.9,22.2-28c2.6-1,3.2,1.2,3.9,2.6c6.2,11.4,11.2,23.3,16.2,35.3
		c0.8,1.8,0.6,3.5-0.1,5.3c-6.7,8.1-13.7,15.8-22.1,22.2c-0.7-0.3-1.4-0.6-1.9-1.2c-6.2-10.6-11.8-21.4-17.7-32.2
		C314.9,388.8,313.9,387.5,315.1,386z"/>
	<path class="st5" d="M240.9,165.1c2.1-0.5,1.7,1.4,2.1,2.4c5.2,10.8,9.9,21.8,17,31.6c1.1,0.5,1.8,1.5,2.2,2.6
		c2.5,6.8,5.1,13.5,7.1,20.5c0.3,1,0.3,1.9-0.1,2.9c-1.6,10.4-7.3,18.2-15.8,24.3c-1.5,0.5-2.1-0.6-2.6-1.6
		c-6.9-14.3-11.1-29.5-13.9-45.1c-0.1-0.8-0.1-1.7,0.2-2.5C241.8,188.7,242.7,177.1,240.9,165.1z"/>
	<path class="st2" d="M254.9,127c-1.5,1-0.5,2.9-1.4,4.4c-3.4-2.4-6.8-4.6-10.4-6.5c-3-1.6-4.5-4.1-5.4-7.8
		c-2.8-12.2-7-24.1-8.7-36.6c-0.2-1.2-1.5-2.4,0.1-3.6c6.1,4.8,12.1,3.8,18.5,0.3c2.2-1.2,4.7-2.5,7.4-2.5c1.9,1.7,1.8,4.2,2.2,6.4
		c2.1,10.2,3.7,20.5,6.3,30.6c1.4,5.2,3.1,9.6,8.7,11.3c-3.8,1.4-7.8,0.6-11.7,1.4C258.5,124.9,256.3,125.1,254.9,127z"/>
	<path class="st16" d="M74,399.9c0.2-3.9-0.7-7.5-2.5-10.9c-4.4-8.3-8.8-16.6-13.4-24.7c-3.4-5.9-3.7-11.5,0-17.2
		c0.4-0.3,0.9-0.3,1.3,0c1.6,2,1.8,4.6,3.1,6.7c1,1.6,2.2,2.9,4.3,2.8c2.3-0.2,3.2-1.8,3.4-3.7c0.8-7.4,5.9-12.4,9.8-18.1
		c2.5-0.2,5.3-1.6,7.1,1.6c3.1,9.4,2.9,19.3,4.2,28.9c0.6,4.2,2.3,8.3,1.7,12.7C87.4,385.8,81.7,393.7,74,399.9z"/>
	<path class="st17" d="M17.1,361c2.4,2.5,4.6,5.2,7.1,7.6c4.4,4.3,9.7,5.2,15.6,3.6c6.6-1.8,11.6,0.1,15.3,6
		c5.2,8.3,10,16.8,13,26.2c-1.4,1.6-3.3,2.4-5.2,3.3c-12-1.5-22.8-6.2-33-12.6c-8.4-11.3-14.6-23.7-19.2-37
		C14.4,355.7,15.4,359.3,17.1,361z"/>
	<path class="st4" d="M273.1,72.9c5-0.3,9.5,1.4,14,3.1c7,2.6,13.9,5.5,20.9,8c3.9,1.4,5.2,3.1,3.1,7.3c-4.3,8.3-8,16.8-15.3,23
		c-4,3.4-8.5,5.8-13.6,7c-3.7-6.3-3.9-13.5-5.1-20.4c-1.3-7.3-2.6-14.6-4.2-21.8C272.4,77,271.5,74.9,273.1,72.9z"/>
	<path class="st15" d="M128.1,251c-0.2-4-1.1-7.8-2.3-11.6c-0.5-1.6-0.9-3.2-0.3-4.8c1.3-3.5,2.7-3.8,5.6-1.3
		c3.9,3.4,5.9,7.8,7.6,12.6c3.1,8.8,8.5,15.5,17.5,18.9c0.6,0.2,1.3,0.1,2,0.2c3.7,7.4,8.9,13.8,14.2,20.5
		c-7.4,3.9-13.6,8.9-20,13.8c-3.3-1.4-4.9-4.6-6.2-7.5c-2.4-5.4-5-10.7-6.6-16.6c-2.1-7.8-6-14.7-11.4-20.7
		C127.3,253.4,127,252.2,128.1,251z"/>
	<path class="st18" d="M86.1,336c-1.8-1.6-4.3,1-6-1c-0.9-0.5-1.6-1.3-1.7-2.3c-0.5-4.5-2.9-7.7-6.2-10.7c-3.4-3.1-2.9-7.7-2.5-12
		c1.3-1.6,3-2.1,4.9-2c5.8,2.3,8.9,7.7,13.2,11.6c0.6,0.6,1,1.3,1.5,1.9c2.3,2.4,4,6.5,8,5.6c3.8-0.9,5.3-4.6,6.6-8.1
		c0.3-0.8,0.5-1.6,1.2-2.1c2.8,7.9,6.5,15.5,10.4,22.9c0.6,1,1.1,2.1,2.5,2.1c-4.8,7.2-9.3,14.6-14.7,21.3c-2.3-0.8-2.8-3.1-3.8-4.9
		C95.3,350.8,91.6,342.8,86.1,336z"/>
	<path class="st19" d="M273.1,72.9c3.6,14.5,5.4,29.4,8.5,44c0.3,1.4,0.4,2.9,0.6,4.4c-3.2,1.4-6.5,2-9.9,1.8
		c-4.5,0.5-7.3-1.1-8.6-5.8c-4-14-6.6-28.2-8.7-42.5C260.9,72.6,266.9,71.6,273.1,72.9z"/>
	<path class="st20" d="M403.9,243c-4.3-3.2-6.7-7.9-8.5-12.7c-5.5-14.3-10.6-28.7-22.3-39.4c-3.2-6.1-3-12.9-4.4-19.4
		c-2.1-9.2-1.1-19.5-9.7-26.2c-0.8-1.3-1.1-2.6,0.3-3.8c1.9-0.3,2.6,1.3,3.4,2.4c22.1,29.2,36.6,61.5,41.3,98
		C404,242.4,403.9,242.7,403.9,243z"/>
	<path class="st21" d="M357.3,401.2c-0.3-5.3-3.3-9.6-5.2-14.4c-3.5-9.1-7.9-17.9-12.4-26.6c-0.5-1-1-2.1-2.4-2.3
		c6.3-10.2,11.3-21.1,15.6-32.3c0.9,0.6,1.4,1.6,1.3,2.5c-0.3,4.9,2.3,8.4,5.2,11.9c1.6,1.9,3.2,3.9,2.1,6.7
		c-4.3,5.7-3.5,12.2-2.4,18.5c1.1,6.4,4,12.3,6.1,18.4c0.6,1.8,1.7,3.6,1,5.7C363.9,393.8,360.5,397.4,357.3,401.2z"/>
	<path class="st22" d="M163.9,132c-1.7-1-2.2-2.8-2.8-4.5c-4.1-11-6.8-22.3-9.1-33.8c-0.8-4-2.3-7.9-4.3-11.6c-0.9-1.6-2-3.1-0.6-5
		c5.8-2.5,11.7-4.5,18-5.2c0.7,12.8,3.7,25.2,6.4,37.6c0.9,3.9-0.3,8.5,3.5,11.5C171.3,124.6,167.6,128.3,163.9,132z"/>
	<path class="st23" d="M168.9,339.6c5.9-8.7,13.2-16.2,20.9-23.3c2.2-2.1,4.2-2.1,6.4,0.3c4.1,4.6,5,8.4,2.1,13.6
		c-6.3,11.1-13,22-21.1,31.9c-1.8,0.4-2.4-1-2.8-2.2c-1.8-5.7-3.7-11.3-5.7-16.9C168.2,341.8,168.6,340.7,168.9,339.6z"/>
	<path class="st24" d="M315.1,386c5.5,10.2,10.9,20.5,16.5,30.7c1,1.7,1.5,3.6,2.5,5.3c-0.9,1.1-2.3,1.4-3.6,1.3
		c-6.5-0.4-13.1-0.2-19.4-2.3c-1.9-8.4-9.3-12.7-14.1-19C303.1,396.6,309.1,391.3,315.1,386z"/>
	<path class="st25" d="M361.1,347c0.1-2.7-1.1-4.8-3.1-6.5c-4.5-4-5.5-9.1-5.1-14.8c2-7.6,4-15.3,6-22.9c0.1,5.9,3.3,10.7,5.5,15.8
		c4.9,11.2,9.9,22.4,13.9,34c1.2,3.4,2.9,5.5,6.6,5.4c-0.6,2.5-1.8,4.8-3.2,6.9c-3-0.9-1.7-6.1-5.8-5.8c-5.6-2.8-10.1-7.1-15.1-10.8
		C360.7,347.9,360.8,347.4,361.1,347z"/>
	<path class="st1" d="M152.9,444.6c7.6-12.2,17.7-22.4,27-33.2c1.8-2.1,3.7-4.2,6.2-7c0.1,9.1-1.9,16.6-6,23.4
		c-7.7,12.9-18.3,23.6-28.3,34.7c-2.7,3-5.5,1.8-6.8-2.6c3.6-1.6,5.4-4.6,5.7-8.4C150.8,449,152.2,446.9,152.9,444.6z"/>
	<path class="st26" d="M237.1,200c3.2,11,5.1,22.3,9.1,33c2.1,5.6,3.8,11.3,7.2,16.2c-4.3,3.6-9,5-14.4,2.8c-1.4-1.4-1.6-3.3-1.8-5
		c-1.1-10.3-6.2-18.6-12.6-26.3c-0.9-1.5-1.8-3-1.8-4.8C228.8,211.6,233.3,206.1,237.1,200z"/>
	<path class="st27" d="M361.1,347c0,0.3,0,0.7,0,1c0.5,0.7,1.1,1.3,1.3,2.1c2.2,6.8,8,7.2,13.7,7.9c5.6-0.8,4,4.4,5.7,6.9
		c-4.5,8.6-9.3,17-15.5,24.5c-4-10.5-9.6-20.5-9.1-32.2c0.1-3,0.6-5.9,1.1-8.8C358.5,346.5,359.6,346.2,361.1,347z"/>
	<path class="st15" d="M121.1,179c0-1.6,0.2-3.1,2.3-3c5.9,0.4,11.6,1.9,17.2,3.7c0.3,0.1,0.3,0.9,0.5,1.4
		c-3.2,15.3-2.7,30.5,1,45.7c-1.3,0.7-1.4,0.7-1.9-0.5c-5.1-10.1-10.2-20.1-14.2-30.7C124.1,190.2,122.5,184.6,121.1,179z"/>
	<path class="st28" d="M269.2,224.9c-3.1-8.6-6.1-17.3-9.2-25.9c-0.4-11.7-3.5-23-5.3-34.5c-0.4-2.8-0.9-5.5-1.5-8.2
		c-0.5-2.8,0.6-3.8,3.3-2.9c1.2,0.4,2.3,1.9,2.7-0.6c5.7,22,11,44,10.7,66.9C270,221.4,270.2,223.3,269.2,224.9z"/>
	<path class="st24" d="M225.1,220c7,6.3,11,14.3,12.9,23.3c0.6,2.8,1.7,5.7,1.1,8.7c-7.5-1.7-13-6.5-18-11.8
		c-4.2-4.4-7.8-9.5-11.8-14.1c-2.1-2.4-1.8-3.5,1.4-4.3c2.5-0.6,4.9-1.9,7.4-2.8c0.4,0.2,0.8,0.6,1.1,1c1.1,1.4,1.1,4.1,3.1,4.1
		C224.7,224.2,223.4,220.9,225.1,220z"/>
	<path class="st23" d="M156.1,309.1c4.3-5.7,9.4-10.6,14.9-15.1c2.7-1.3,4.2,0.6,5,2.5c2,4.6,3.8,9.4,3.1,14.6
		c-5.1,5.6-10.1,11.3-15.2,16.9c-0.2,0-0.4,0.1-0.5,0.1C158.6,325.5,154.3,314.4,156.1,309.1z"/>
	<path class="st1" d="M168.1,384.9c2.8-4.2,6.2-7.8,9.9-11.1c3.2,6,4.3,12.5,3.8,19.2c-7,9.2-14.7,17.9-22.6,26.4
		c-1.3-1.1-1.4-2.6-1.1-4.1C160,404.7,161.7,394,168.1,384.9z"/>
	<path class="st18" d="M131.1,372c-4.2,6.7-8.8,13.1-13.9,19.1c-3.4-4.3-6.2-9-8.1-14.1c4.7-7,9.4-14,14-21
		C127.6,360.4,129.9,366,131.1,372z"/>
	<path class="st1" d="M129.1,254c6.3,7,9.9,15.2,12.6,24.3c2.2,7.5,5.6,14.8,10.6,21.1c-2.4,2.5-4.9,5.1-7.3,7.6
		c-3.1-2.8-2.1-7-3.5-10.5c-3.1-7.6-6.5-15.1-10.3-22.5c-1.9-4.6-2.3-9.6-3.2-14.4C127.6,257.7,127.5,255.6,129.1,254z"/>
	<path class="st23" d="M277,415.7c7.4,6.5,7.2,14.4,4.5,23c-0.9,2.9-0.4,6.2-0.6,10.4c-8.3-8.1-12.5-17.5-15.9-27.4
		C269,419.7,273,417.7,277,415.7z"/>
	<path class="st1" d="M156.1,309.1c0.7,7.1,3.1,13.5,7.8,18.9c-3,3.7-6.1,7.3-9.1,11c-5.9,0.4-12.5-5.8-12.8-12
		C146.2,320.6,150.7,314.5,156.1,309.1z"/>
	<path class="st7" d="M142.1,327c2.1,6.3,7,9.6,12.8,12c-5.2,6.8-10.4,13.6-15.6,20.4c-4.4-5-5-11.5-7.1-17.3
		C135,336.7,138.4,331.8,142.1,327z"/>
	<path class="st18" d="M122.2,401c4.6-5.8,9.1-11.6,13.7-17.4c4.7,4.8,6.9,10.8,8.1,17.3c-4.2,4.8-8.9,9.1-13.8,13.1
		C127.1,410,124.1,405.9,122.2,401z"/>
	<path class="st7" d="M158,385.9c-1.2,2.1-2.8,3.9-4.7,5.3c-4.4-5.4-6.2-12.1-9.2-18.3c5.5-8.4,11.5-16.4,17.9-24.2
		c1.7,1.4,1.8,3.4,2.2,5.3c0,0.3,0.1,0.7,0,1C159,364.8,159.6,375.6,158,385.9z"/>
	<path class="st29" d="M86.1,336c5.4,2.4,6.7,8,9.5,12.3c2.9,4.8,5.2,10,7.7,15c-2.8,5.3-6.6,9.9-10.2,14.7c-3-5.7-3.1-12-3.8-18.1
		C88.4,351.9,87.6,343.9,86.1,336z"/>
	<path class="st11" d="M168.1,384.9c-3.5,9.5-6.9,19-8.5,29c-0.3,1.8-0.4,3.6-0.4,5.4c-1.3,2.2-3,4.1-5,5.7
		c-0.9,0.3-1.6,0.1-2.3-0.5c-2.7-2.3-5-11.7-3.8-15.4C154.5,400.8,160.8,392.4,168.1,384.9z"/>
	<path class="st30" d="M17.1,330c-0.6,4.9,1.3,9.5,2.4,14.1c0.8,3.5,0.1,6.5-0.5,9.7c-0.2,1.1-0.5,2.6-1.8,2.7
		c-1.4,0.1-0.8-2-2.1-2.4c-1.9,0.3-2.1-1.3-2.5-2.4c-1.2-3.9-3.7-6.9-6.7-9.5C3.6,335.6,2.3,328.9,2,322c2.6,4.4,5.8,8.1,11.5,8.7
		c1,0.1,1.9,0.3,2.6-0.7C16.4,329.5,16.8,329.5,17.1,330z"/>
	<path class="st16" d="M79,414c6-8.2,13-15.5,19.8-23.1c2.1-0.8,3.1,0.8,3.9,2.1c1.9,2.9,5.2,4.6,6.4,8c-2.3,3.4-4.6,6.8-7.9,9.3
		c-6.9-2.3-12.8-0.9-17.2,5.2C82.1,415.9,80.4,415.5,79,414z"/>
	<path class="st31" d="M198,151.6c0.7-1.8,2.4-2.7,4-3.5c7.6-3.7,12.2-0.7,12.1,7.6c-0.2,9.3-5.2,13.8-14.1,12.5
		c0.6-3.3-1.1-6.2-1.7-9.2C197.7,156.4,196.8,154,198,151.6z"/>
	<path class="st11" d="M144,373c4.8,5.2,6.6,11.9,9.2,18.3c-2.7,3.6-5.9,6.7-9.2,9.7c-2.7-5.8-5.4-11.5-8.1-17.3
		C138.3,379.9,140.8,376.1,144,373z"/>
	<path class="st11" d="M132.1,342c3.2,2.1,2.7,6.1,4.3,9.1c1.4,2.5,1.9,5.5,2.8,8.3c-2.2,4.6-5.3,8.5-8.2,12.6
		c-2.7-5.3-5.3-10.6-8-16C125.8,351.1,128.7,346.4,132.1,342z"/>
	<path class="st11" d="M158,385.9c-1.1-9.6-0.4-19,3.7-27.8c0.6-1.4,1.5-2.5,1.4-4.1c4.5,3.8,9,7.5,9.8,13.9
		C168.3,374.3,163.5,380.4,158,385.9z"/>
	<path class="st32" d="M399.9,317c-3-8.5-7.8-16.4-8.2-25.7c-0.2-3.8,0.2-7.4,2.4-11c1.9,6.7,9.5,10.2,9.2,17.9
		C403.1,304.6,401.7,310.8,399.9,317z"/>
	<path class="st29" d="M109.2,401c-4.4-2.4-6.3-7.4-10.3-10.1c3.4-4.6,6.8-9.3,10.2-13.9c3.7,4.2,6.3,8.9,8.1,14.1
		C114.6,394.5,112.3,398.1,109.2,401z"/>
	<path class="st33" d="M128.8,431.9c2.4-3.7,5.2-6.9,8.5-9.8c4.4,0.9,8.1,4.1,12.8,3.9c0.8,0,1.6,1.1,1.1,2.3
		c-3.5,4.8-7.7,9-12.2,12.8c-1.7,1.3-2.9,0.2-3.8-0.9C133,437.4,130.3,435.1,128.8,431.9z"/>
	<path class="st34" d="M99.8,426.8c4.1-4.6,8.2-9.1,12.3-13.7c6.2-1,7.2,4.7,10,8c-4.4,4.1-9,7.7-13.9,11.1
		C105.2,430.6,102,429.4,99.8,426.8z"/>
	<path class="st1" d="M172.8,367.9c-2.2-5.4-7-8.9-9.8-13.9c-1-1.6-1.1-3.4-1.1-5.2c1.9-3.4,4.3-6.4,7-9.2
		c2.9,7.4,4.5,15.3,8.3,22.5C176.1,364.3,174.7,366.3,172.8,367.9z"/>
	<path class="st35" d="M311.1,421c4.3-0.2,8.6-0.4,12.8,0.5c3.4,0.7,6.8,0.3,10.2,0.5c0.4,0.5,0.8,0.9,1.1,1.4
		c-4.8,5-10.3,9.1-16,12.8c0.1-2.9-0.1-5.8-2.9-7.4C313.3,427,311.8,424.3,311.1,421z"/>
	<path class="st29" d="M122.1,421c-1.2-0.1-2.4-0.5-2.8-1.6c-1.2-3.6-3.8-5.3-7.2-6.3c3.4-4,6.7-8,10.1-12c3.4,3.9,6.5,8,7.9,13.1
		C127.6,416.5,125.2,419.1,122.1,421z"/>
	<path class="st36" d="M181.8,392.9c-1.3-6.4-2.5-12.8-3.8-19.2c2-2.2,4-4.3,6-6.6c0.9-1,1.7-2.1,3.3-1.3c1.3,0.6,1.9,1.8,1.9,3.2
		c0,1.2,0.3,2.4-0.1,3.4C186.7,379.3,185.7,386.7,181.8,392.9z"/>
	<path class="st37" d="M79,414c1.7,0.4,3.3,0.8,5,1.2c2.6,1.7,6.6,2.1,6,6.7c-2.7,2.2-5.4,4.3-8.6,5.8c-2.9,1.3-5.5,1-7.8-1.1
		c-1.5-1.4-2.2-2.9-0.7-4.7C75.1,419.2,76.3,416,79,414z"/>
	<path class="st38" d="M30,395.1c5.2,0.9,9.3,4.4,14.2,6c6.3,2,12.5,4.4,18.7,6.6c-8.1,3.9-15.8,3.1-23-2.2
		C36.1,402.6,32.5,399.4,30,395.1z"/>
	<path class="st39" d="M151.2,428.2c-0.4-0.7-0.8-1.8-1.6-1.6c-5.1,1-8.7-1.6-12.3-4.5c3.6-4.3,7.3-8.6,10.9-12.9
		c1.2,5.6,1.3,11.7,6.1,15.9C153.6,426.5,152.5,427.4,151.2,428.2z"/>
	<path class="st40" d="M90.1,421.8c-0.6-3.5-4.9-3.6-6-6.7c3.3-7.6,10.9-9.7,17.2-4.8C98.4,415,94.2,418.4,90.1,421.8z"/>
	<path class="st41" d="M359.3,141.6c-0.2,1.2-0.5,2.5,0.8,3.4c1.2,2,1.9,4,0.1,6c-4.7-7.2-10.9-13.3-14.7-21.1
		c-1.4-3-3.7-5.5-4.4-8.8C348.2,127,355.2,133,359.3,141.6z"/>
	<path class="st42" d="M128.8,431.9c2.5,1.3,4.2,3.4,5.7,5.7c1.1,1.6,2.2,3.2,4.5,3.3c-2,3-5.1,4.9-7.7,7.2
		c-3.6-1.9-6.7-4.2-9.3-7.3C124,437.7,125.8,434.3,128.8,431.9z"/>
	<path class="st43" d="M179.1,311.1c-1-3.8-2-7.5-3-11.3c-0.7-2.8-1.7-5.4-5-5.8c4.5-4.2,5-4.1,8.5,0.3c0.3,0.4,0.6,0.8,0.9,1.2
		C187.1,303.8,187.1,303.8,179.1,311.1z"/>
	<path class="st44" d="M99.8,426.8c3.2,1.2,6.6,2,8.4,5.3c-2.2,1.5-4.4,2.9-6.5,4.4c-3.9,2.8-7.5,3.3-10.8-1.5
		C93.8,432.3,96.8,429.5,99.8,426.8z"/>
	<path class="st45" d="M121.9,440.9c3.8,1.6,6.9,3.9,9.3,7.3c-1.6,2.2-4.1,3.2-6.2,4.7c-2.2,1.6-4.3,0.6-6.2-1
		c-1.8-1.6-1.7-3.4-0.5-5.3C119.5,444.7,120.7,442.8,121.9,440.9z"/>
	<path class="st46" d="M5.9,342.1c4,0.5,5.5,3.6,7,6.6c0.8,1.7,0.8,3.8,2.2,5.3c-0.8,2.8,1.7,4.5,2,7c-2.1-1-3.4-3.7-6.3-2.9
		C8.4,353,6.5,347.8,5.9,342.1z"/>
	<path class="st47" d="M198,151.6c0.8,4.4,1.6,8.8,3.4,12.9c0.8,1.8,1.1,3.2-1.4,3.6c-3.3,0.1-5-1.7-5.2-4.7
		C194.3,159.1,194.4,154.8,198,151.6z"/>
	<path class="st48" d="M225.1,220c-0.1,2.3,0.7,5.9-2,6.3c-2.7,0.4-3.8-2.9-4.6-5.4c-0.2-0.6-0.3-1.3-0.5-1.9c1.6-1,3.2-2.1,4.8-3.1
		C224.4,216.9,224.9,218.3,225.1,220z"/>
	<path class="st49" d="M152.9,444.6c-0.9,3.7-0.6,7.5-1.8,11.1c-1,3.1-2.7,4.8-6.1,4.2C146.1,454,149.3,449.2,152.9,444.6z"/>
	<path class="st50" d="M17.1,330c-0.3,0-0.7,0-1,0c-2.7-10.3-7.3-19.9-9.7-30.2c-1.9-8-2.8-15.8-0.8-23.9c0.6-2.3,2.2-5.2-1.3-6.9
		c3.9-19.2,9.1-38,16.8-56c2.5-0.6,3.6,1.4,4.8,2.8c7.7,9.3,14.4,19.2,17.7,31c0.2,0.8,0.5,1.6,0.9,2.3c0.7,1.3,1.5,2.8,3.2,2.7
		c1.8-0.1,2.5-1.5,3-2.9c0.3-0.8,0.5-1.6,0.8-2.4c2.8-3,5.1-6.4,7.6-9.6c-0.3,5,0.5,9.9,0.9,14.8c1,10.1-1.8,19.7-4.9,29.2
		c-1.7,5.7-3.4,11.3-5,17c-2.5,9.4-8.9,13.3-18.3,11.1c-8.8-2.1-11.8,0.3-11.6,9.7C20.2,322.9,20,326.8,17.1,330z"/>
	<path class="st51" d="M52.1,247c0.3,3.4-1.1,6.5-4.4,6.7c-3.5,0.2-4.5-3.4-5.3-6.2C38.5,234,31.2,222.6,21.1,213
		c2.2-6.6,4.7-13,8.2-19c6.5,1.2,6.5,1.2,6.5-5.9c0-3.1,0.1-6.2,1.3-9.2c3.3-7.1,7.4-13.7,12.2-19.9c1,0,1.5,0.6,1.8,1.4
		c3.5,11.3,6.1,22.7,1.9,34.5c-4.4,12.2-2.3,24.6-0.7,36.9C52.9,236.9,54.6,242,52.1,247z"/>
	<path class="st15" d="M108.8,97.9c0.4,0.5,1.1,1,1.1,1.6c0.2,11.8,7,21.6,10.2,32.4c2,6.8,4.8,13.4,6.8,20.2c2,7-1.8,11.4-9.8,11.9
		c-5-3.6-8.4-8.1-10-14.3c-2.7-10.5-8.7-18.9-18-24.7c-2.9-2.6-3-5.9-2.2-9.4C93.6,108.9,101,103.1,108.8,97.9z"/>
	<path class="st52" d="M51.1,156c3.9-6,8.3-11.6,13.1-17c2.7-1.2,3,1.2,3.6,2.7c2,4.5,3.4,9.3,5.5,13.8c2.5,8.3,6.8,15.9,9.4,24.2
		c2.3,7,2.5,14.1,0.3,21.1c-0.5,1.5-0.9,3.6-3,3.5c-2.2-0.1-1.9-2.4-2.3-3.9c-2.3-8.3-7.1-14.9-14.1-21.6c6.1,9.5,3.6,17.6-0.8,25.5
		c-2.4-0.9-2.2-3.2-2.6-5c-1.7-7-2.6-14.1-3.3-21.2C56.1,170.4,54.6,162.9,51.1,156z"/>
	<path class="st53" d="M51.1,156c3.8,1.6,4,5.4,4.9,8.5c2.5,8.7,2.5,17.8,4.2,26.7c0.8,4.3,1.1,8.7,2.9,12.8
		c0.2,0.2,0.3,0.4,0.2,0.6c-0.1,0.2-0.1,0.3-0.2,0.3c0,10.8-2.1,21.4-4,32c-0.3,0.5-0.9,1.1-0.9,1.6c0,2.8,0.2,5.6-3.8,6
		c-0.8,0.1-1.5,1.6-2.3,2.4c0.5-8.3-2.1-16.3-2.6-24.5c-0.6-9.4-1.8-18.9,2-27.9c3.2-7.7,2.5-15.4,1.2-23.2
		c-0.7-4.2-2.2-8.2-3.4-12.3C49.9,158,50.5,157,51.1,156z"/>
	<path class="st54" d="M86.9,115.6c0.7,3.1,1.4,6.2,2.2,9.4c0.7,9.4,2.9,18.5,4.5,27.8c0.6,3.4,0,7,1.5,10.2c-5.6-1.7-10-5-13.8-9.3
		c-1.8-7.5-3.6-14.9-7.1-21.9c-0.6-1.2-1.1-2.4-0.1-3.7C77.9,123.5,82.1,119.3,86.9,115.6z"/>
	<path class="st55" d="M74.1,128.1c2.9,6.7,5.7,13.4,7.4,20.5c0.4,1.8,0.5,3.6,0.6,5.4c-3.1,1.9-6.3,3.3-10,2
		c-1.7-4.4-3.4-8.9-5.3-13.3c-0.6-1.4-0.3-3.5-2.7-3.7C67.3,135.2,70.2,131.2,74.1,128.1z"/>
	<path class="st56" d="M37.1,178.9c0,4.8,0.1,9.6,0,14.3c0,1.5,0.9,3.6-1.1,4.4c-1.6,0.7-2.6-1.1-3.9-1.7c-1-0.5-1.9-1.3-2.8-1.9
		C31.3,188.7,33.8,183.6,37.1,178.9z"/>
	<path class="st9" d="M370.1,171c0.5,6.7,2.9,13.1,3,19.9c0,0.4,0,0.7,0,1.1c-4.1-1.9-6.2-5.2-7-9.6c-1.3-7.2-2.7-14.3-4-21.5
		C365.2,164,370.1,165.5,370.1,171z"/>
	<path class="st57" d="M370.1,171c-1.4-2.1-1.3-5.3-5.2-5.4c-2.4,0-1.1-3.5-2.8-4.7c-0.2-3.4-0.9-6.8-2-10c0-2,0-4-0.1-6
		c4,2.5,6.3,6.1,7.2,10.8C368.1,160.9,369.1,165.9,370.1,171z"/>
	<path class="st2" d="M213.1,86c7.6,5.1,8.3,13.2,9,21.3c0.3,3.3,0,6.5,1,9.7c-8.1-5.3-8-14-8.9-22.1
		C213.8,91.9,214.2,88.9,213.1,86z"/>
	<path class="st58" d="M72.1,156c3.3-0.6,6.5-2.1,10-2c4.3,3,8.7,6,13,9c7.1,18.2,14.5,36.4,21.2,54.8c1.8,4.9,1.8,10.4,2.4,15.6
		c0.7,5.3,2.9,9.8,6.7,13.5c1.1,1.1,1.8,2.7,2.6,4.1c0,1.1-0.2,2.3,1,3c-0.5,6.8,2.8,13.2,2,20c-8.1-8.7-11.6-20-17-30.1
		c-2.1-3.9-4.6-7.7-6.9-11.5c-0.8-1.4-1.6-2.7-3.5-2c-1.5,0.5-1.6,1.9-1.7,3.3c-0.3,2.4,1.3,5.9-1.5,6.8c-3.1,0.9-3.1-3.2-4.6-5
		c-6.9-8.1-13.1-16.7-15.8-27.3c-0.3-1.2-0.7-2.3-1.6-3c-3.5-2.7-7-5.3-11-8.3c-0.4,4.3,1.5,7.7,1.5,11.2c-2.1-0.7-5.2,0.5-6-3
		c0-0.3,0-0.7,0-1c0.5-3.1-1.7-7.1,3.1-8.9c0.8-0.3,0.6-1.3,0.5-2.2c-0.6-3.2-1.7-6.4-1.5-9.8c0.1-1.4-0.6-2.3-2.1-1.9
		c-1,0.2-2.2,0.5-2.2-1c0-1.2,0.8-2.2,2.2-2.2c1,0,2.1-0.2,2.8,0.7c6.1,7,12.6,13.7,13.4,23.6c0,0.4,0.4,0.8,1,1.9
		c4.1-8.6,3.8-16.7,1.1-24.8C78.6,171.4,74.4,164.1,72.1,156z"/>
	<path class="st59" d="M75.1,309c-1.7,0.3-3.3,0.7-5,1c-2.4,0.7-3.7,2-4.1,4.7c-0.4,2.9-0.5,6.4-4.3,7.5c-0.2-0.1-0.4-0.2-0.6-0.2
		c-2.3-12.9-5.3-25.8-6-39c3,0.4,5.1-1.1,6.6-3.4c1.5-2.2,2.8-4.5,4.4-6.6c1.6-2.2,2.5-4.3,2.1-7.3c-0.7-5.1,1.7-8.4,5.3-8.7
		c2.3-0.2,4.2,0.2,4.6,3.2c0.6,4.3,2.3,7.7,5.6,11c3.2,3.1,4.1,8.1,4.3,12.8c-5.5-0.8-7-5.2-8.7-9.5c-0.6-1.6-0.5-3.7-2.9-4.2
		c-3.6-0.8-5.9,1-5.3,4.7c1.3,9.3,3.1,18.6,4.5,27.9C76.1,305,76.9,307.1,75.1,309z"/>
	<path class="st59" d="M59.1,347c-0.3,0-0.7,0-1,0c-0.2-4.3,0.2-8.5-0.9-12.8c-1.2-4.7,0.8-8.7,3.8-12.2l0,0
		c2.7,3.2,2.9,7.2,2.2,10.9C62.3,337.7,60.9,342.4,59.1,347z"/>
	<path class="st60" d="M75.1,309c-1.5-9.6-2.9-19.2-4.4-28.8c-0.2-1.1-0.4-2.3-0.6-3.4c-0.8-7.2-0.8-7,6.2-8.2
		c2.9-0.5,3.6,0.4,3.8,2.8c0.5,5.5,3.5,9.5,8,12.5c0.7,2,1.3,4,2,6c1.8,5,2.3,10.5,7,14c2.7,4.3,5.4,8.7,8,13
		c0.7,4.9-2.6,8-5.6,10.9c-2.3,2.2-4.8,1.4-6.9-0.9c-4.5-4.8-8.9-9.7-13.5-14.4C77.9,311.3,76.5,310.2,75.1,309z"/>
	<path class="st61" d="M97.1,304c-6.9-2.4-7.1-8.1-7-14C97,292.4,96.4,298.5,97.1,304z"/>
	<path class="st60" d="M59.1,347c0-3.9-0.1-7.7,2.3-11.4c1.7-2.5,0.9-6.1,0.2-9.2c-0.3-1.5-0.6-2.9-0.6-4.4c3.8-1.9,3.5-5.7,3.9-9
		c0.4-3.7,1.8-4.8,5.1-3c0.8,5.7,0.9,11.3,7,14.8c3.3,1.9,1.6,6.8,3,10.2c0.1,1.6-0.4,2.8-1.5,4c-4,4.3-6.7,9.3-7.4,15.2
		c-0.2,1.9-0.7,3.7-3.1,3.7c-2.1,0.1-4.1,0.5-5.7-1.8C60.6,353.3,59.4,350.4,59.1,347z"/>
	<path class="st21" d="M376.1,358c-8.4,0.4-13.2,0.9-15-10C367,350,370.7,355.2,376.1,358z"/>
</g>
</svg>
