<svg width="640" height="480" xmlns="http://www.w3.org/2000/svg">
 <style type="text/css">.st0{fill:#FFFFFF;}
	.st1{fill:#999999;}</style>

 <g>
  <title>background</title>
  <rect fill="none" id="canvas_background" height="482" width="642" y="-1" x="-1"/>
 </g>
 <g>
  <title>Layer 1</title>
  <g stroke="null" id="svg_1">
   <path stroke="null" id="svg_2" d="m561.20003,497.661357c-163.095625,0 -326.191251,0 -489.900018,0c0,-166.161333 0,-332.322665 0,-498.483998c163.095625,0 326.804392,0 489.900018,0c0,166.161333 0,332.322665 0,498.483998zm-134.891119,-206.628668c0.613141,0 1.226283,0 2.452566,0c0.613141,7.970839 1.226283,15.941678 1.839424,23.912517c2.452566,22.073092 4.29199,44.146184 14.715395,64.992994c3.065707,5.518273 5.518273,12.262829 6.744556,18.394243c1.226283,6.744556 4.905132,9.197122 11.036546,8.58398c9.810263,-0.613141 19.620526,-1.226283 29.43079,-2.452566c13.489112,-1.839424 14.715395,-4.905132 12.87597,-17.781102c-0.613141,-6.131414 -1.839424,-12.87597 -0.613141,-19.007385c3.065707,-11.649688 2.452566,-23.299375 0,-34.949063c-12.262829,-67.445559 -24.525658,-135.50426 -36.175346,-203.562961c-4.29199,-24.525658 -17.167961,-40.467336 -41.080477,-47.825033c-14.102253,-4.29199 -28.817648,-9.197122 -42.919901,-13.489112c-10.423405,-3.065707 -18.394243,-8.58398 -23.299375,-19.007385c-6.131414,-13.489112 -17.167961,-19.620526 -31.883355,-19.620526c-8.58398,0 -17.167961,0 -25.751941,-0.613141c-18.394243,-1.226283 -33.72278,4.29199 -42.30676,21.459951c-4.29199,8.58398 -11.036546,13.489112 -19.620526,15.941678c-17.167961,4.905132 -34.335921,10.423405 -50.89074,15.941678c-21.459951,7.357697 -32.496497,22.686234 -36.788487,44.759326c-11.036546,64.379852 -23.299375,128.759704 -34.949063,193.139556c-1.839424,12.262829 -4.29199,25.138799 -2.452566,36.788487c1.226283,10.423405 1.839424,19.620526 0.613141,29.43079c0,1.839424 -0.613141,3.678849 -1.226283,5.518273c-0.613141,6.131414 1.839424,9.810263 7.970839,10.423405c12.262829,1.226283 24.525658,2.452566 36.788487,3.678849c5.518273,0.613141 8.58398,-2.452566 10.423405,-7.970839c1.839424,-7.357697 4.29199,-15.328536 7.357697,-22.073092c7.970839,-18.394243 11.036546,-37.401628 13.489112,-57.022155c1.226283,-9.197122 1.839424,-18.394243 3.065707,-27.591365c1.839424,1.226283 1.839424,1.839424 1.839424,2.452566c0,18.394243 -0.613141,36.788487 -0.613141,55.18273c0,13.489112 3.678849,25.751941 10.423405,38.01477c1.839424,3.678849 3.678849,7.970839 4.29199,12.262829c2.452566,20.233668 2.452566,20.233668 22.686234,20.233668c52.730165,0 106.073471,0 158.803635,0c3.065707,0 6.131414,0 8.58398,-0.613141c9.197122,-1.226283 10.423405,-3.065707 11.649688,-12.262829c0.613141,-6.131414 0,-13.489112 3.065707,-18.394243c7.970839,-14.715395 9.197122,-30.043931 9.197122,-45.985609c0,-15.941678 0.613141,-33.109638 1.226283,-50.89074z" class="st0"/>
   <path stroke="null" id="svg_3" d="m426.308911,291.032688c-0.613141,17.167961 -1.226283,34.949063 -1.226283,52.117023c0,15.941678 -0.613141,31.270214 -9.197122,45.985609c-3.065707,4.905132 -2.452566,12.262829 -3.065707,18.394243c-0.613141,9.197122 -2.452566,11.036546 -11.649688,12.262829c-3.065707,0.613141 -6.131414,0.613141 -8.58398,0.613141c-52.730165,0 -106.073471,0 -158.803635,0c-20.233668,0 -20.233668,0 -22.686234,-20.233668c-0.613141,-4.29199 -1.839424,-8.58398 -4.29199,-12.262829c-6.744556,-11.649688 -10.423405,-24.525658 -10.423405,-38.01477c0,-18.394243 0.613141,-36.788487 0.613141,-55.18273c0,-0.613141 0,-1.839424 -1.839424,-2.452566c-1.226283,9.197122 -1.839424,18.394243 -3.065707,27.591365c-2.452566,19.620526 -5.518273,38.627911 -13.489112,57.022155c-3.065707,7.357697 -5.518273,14.715395 -7.357697,22.073092c-1.226283,5.518273 -4.29199,8.58398 -10.423405,7.970839c-12.262829,-1.226283 -24.525658,-1.839424 -36.788487,-3.678849c-5.518273,-0.613141 -8.58398,-4.29199 -7.970839,-10.423405c0,-1.839424 0.613141,-3.678849 1.226283,-5.518273c1.226283,-9.810263 1.226283,-19.620526 -0.613141,-29.43079c-1.839424,-12.262829 0,-25.138799 2.452566,-36.788487c11.036546,-64.379852 23.299375,-128.759704 34.949063,-193.139556c3.678849,-22.073092 15.328536,-37.401628 36.788487,-44.759326c17.167961,-5.518273 33.72278,-11.036546 50.89074,-15.941678c9.197122,-2.452566 15.328536,-7.357697 19.620526,-15.941678c8.58398,-17.167961 23.299375,-23.299375 42.30676,-21.459951c8.58398,0.613141 17.167961,0.613141 25.751941,0.613141c14.715395,0 25.751941,6.131414 31.883355,19.620526c4.905132,9.810263 12.87597,15.941678 23.299375,19.007385c14.102253,4.29199 28.817648,9.197122 42.919901,13.489112c23.912517,7.357697 36.788487,23.912517 41.080477,47.825033c11.649688,68.058701 23.912517,135.50426 36.175346,203.562961c1.839424,11.649688 2.452566,23.299375 0,34.949063c-1.226283,6.131414 -0.613141,12.87597 0.613141,19.007385c1.839424,13.489112 0,16.554819 -12.87597,17.781102c-9.810263,1.226283 -19.620526,1.839424 -29.43079,2.452566c-6.131414,0.613141 -9.810263,-1.839424 -11.036546,-8.58398c-1.226283,-6.131414 -3.678849,-12.87597 -6.744556,-18.394243c-10.423405,-20.233668 -12.87597,-42.30676 -14.715395,-64.992994c-0.613141,-7.970839 -1.226283,-15.941678 -1.839424,-23.912517c-1.226283,-1.226283 -1.839424,-1.226283 -2.452566,-1.226283zm-127.533421,-196.205264c0.613141,0 0.613141,0 0.613141,-0.613141c-4.905132,-15.328536 -12.87597,-29.43079 -19.620526,-43.533043c-11.036546,7.970839 -11.649688,12.87597 -4.29199,20.846809c7.357697,7.970839 15.328536,15.328536 23.299375,23.299375zm19.007385,152.059079c0,40.467336 0,81.547813 0,122.015148c0,10.423405 2.452566,12.87597 12.262829,12.87597c20.846809,0 41.693619,0 62.540428,0c13.489112,0 19.620526,-3.678849 22.686234,-17.167961c1.839424,-8.58398 1.839424,-17.781102 2.452566,-26.978224c0.613141,-27.591365 0,-55.18273 1.226283,-83.387237c1.226283,-27.591365 -2.452566,-53.956448 -9.810263,-80.32153c-1.839424,-6.744556 -1.839424,-15.328536 -0.613141,-22.073092c3.065707,-16.554819 7.970839,-32.496497 12.262829,-48.438174c2.452566,-9.810263 0.613141,-12.87597 -8.58398,-15.941678c-9.810263,-3.065707 -19.620526,-6.131414 -29.43079,-9.197122c-15.328536,-5.518273 -20.846809,-3.678849 -32.496497,8.58398c-7.357697,7.970839 -15.328536,15.328536 -23.299375,22.073092c-5.518273,4.29199 -9.197122,8.58398 -9.197122,15.328536c0,41.080477 0,82.160954 0,122.62829zm-116.496875,-155.124787c0.613141,3.065707 0.613141,5.518273 0.613141,7.970839c3.065707,12.87597 5.518273,25.751941 9.810263,38.627911c4.905132,15.941678 4.905132,31.883355 0.613141,48.438174c-3.065707,12.262829 -6.131414,25.138799 -6.744556,37.401628c-0.613141,42.30676 -0.613141,84.000379 0,126.307139c0,6.744556 2.452566,13.489112 4.905132,19.620526c3.065707,7.970839 9.810263,12.262829 19.007385,12.262829c22.686234,0 45.372467,0 67.445559,0c3.065707,0 5.518273,-0.613141 9.810263,-1.226283c0,-4.29199 0,-8.58398 0,-12.262829c0,-79.095247 0,-158.803635 0,-237.898882c0,-2.452566 0,-4.905132 0,-7.357697c-0.613141,-7.357697 -3.678849,-12.262829 -9.810263,-15.941678c-3.678849,-1.839424 -7.357697,-4.905132 -10.423405,-7.970839c-5.518273,-5.518273 -10.423405,-11.649688 -15.941678,-17.167961c-5.518273,-6.744556 -12.87597,-8.58398 -20.846809,-6.131414c-6.744556,2.452566 -14.102253,4.29199 -20.846809,6.744556c-9.197122,2.452566 -18.394243,5.518273 -27.591365,8.58398zm-11.649688,4.905132c-14.715395,6.131414 -21.459951,17.167961 -23.912517,31.270214c-11.036546,61.314145 -22.073092,122.62829 -33.72278,183.942435c-2.452566,12.87597 -4.905132,25.751941 -6.131414,39.241053c-0.613141,7.970839 2.452566,11.649688 10.423405,12.87597c9.197122,1.226283 17.781102,2.452566 26.978224,3.065707c7.970839,0.613141 12.262829,-3.065707 13.489112,-11.036546c1.839424,-13.489112 4.29199,-27.591365 6.131414,-41.693619c4.905132,-47.825033 11.649688,-95.650066 21.459951,-142.861958c1.226283,-5.518273 1.226283,-11.649688 0,-16.554819c-3.678849,-17.167961 -7.970839,-33.72278 -12.262829,-50.89074c0,-1.839424 -1.226283,-4.29199 -2.452566,-7.357697zm244.643438,0c-1.226283,3.678849 -2.452566,6.131414 -3.065707,8.58398c-3.065707,11.649688 -5.518273,22.686234 -9.197122,34.335921c-4.905132,14.715395 -3.678849,29.43079 -1.226283,44.759326c6.744556,40.467336 12.87597,80.934671 19.007385,120.788865c2.452566,17.167961 4.905132,33.72278 7.357697,50.89074c0.613141,5.518273 3.065707,10.423405 9.197122,10.423405c13.489112,1.226283 26.365082,-1.839424 39.854194,-4.905132c0,-6.744556 0.613141,-13.489112 0,-19.620526c-4.29199,-28.817648 -8.58398,-58.248438 -14.102253,-87.066086c-7.970839,-43.533043 -16.554819,-87.066086 -25.138799,-130.599129c-2.452566,-12.262829 -9.810263,-21.459951 -22.686234,-27.591365zm-120.788865,296.14732c-24.525658,0 -49.664457,0 -74.190115,0c-3.065707,0 -6.744556,0 -9.197122,1.226283c-2.452566,1.226283 -5.518273,4.29199 -5.518273,6.744556c0,2.452566 2.452566,6.131414 4.905132,7.357697c2.452566,1.839424 6.131414,1.839424 9.197122,1.839424c49.664457,0 99.942056,0 149.606514,0c1.839424,0 3.678849,0 6.131414,-0.613141c4.29199,-1.226283 7.970839,-3.678849 7.970839,-8.58398c0,-4.905132 -3.678849,-7.970839 -8.58398,-8.58398c-2.452566,0 -4.29199,0 -6.744556,0c-24.525658,0.613141 -49.051316,0.613141 -73.576974,0.613141zm-0.613141,-303.505017c7.970839,-14.715395 15.941678,-29.43079 19.007385,-47.211892c-15.328536,-1.226283 -28.817648,-1.226283 -44.759326,0c9.197122,16.554819 14.715395,33.109638 25.751941,47.211892zm-150.832797,288.789623c-11.036546,-1.226283 -20.846809,-1.839424 -31.270214,-3.065707c-0.613141,6.744556 -1.226283,12.262829 -1.226283,18.394243c9.197122,1.226283 17.167961,2.452566 24.525658,3.065707c4.905132,0.613141 8.58398,-1.839424 8.58398,-7.357697c0,-3.678849 -0.613141,-6.744556 -0.613141,-11.036546zm330.483241,14.715395c2.452566,-11.649688 0,-17.781102 -7.357697,-17.167961c-7.970839,0.613141 -15.941678,1.839424 -23.299375,3.065707c-4.29199,14.715395 0,19.620526 14.102253,17.167961c5.518273,-0.613141 11.036546,-1.839424 16.554819,-3.065707zm-167.387616,-299.826169c0.613141,0.613141 1.839424,1.226283 2.452566,1.839424c1.839424,-1.226283 3.678849,-2.452566 4.905132,-3.678849c6.131414,-6.131414 12.262829,-12.87597 17.781102,-19.620526c8.58398,-9.810263 6.744556,-17.781102 -7.357697,-22.686234c-6.131414,14.715395 -11.649688,29.43079 -17.781102,44.146184z" class="st1"/>
   <path stroke="null" id="svg_4" d="m317.782874,246.886504c0,-41.080477 0,-82.160954 0,-122.62829c0,-7.357697 3.065707,-11.036546 9.197122,-15.328536c8.58398,-6.131414 16.554819,-14.102253 23.299375,-22.073092c11.036546,-12.262829 16.554819,-14.102253 32.496497,-8.58398c9.810263,3.678849 19.620526,6.131414 29.43079,9.197122c9.810263,3.065707 11.036546,6.131414 8.58398,15.941678c-3.678849,15.941678 -8.58398,31.883355 -12.262829,48.438174c-1.226283,7.357697 -1.839424,15.328536 0.613141,22.073092c7.970839,26.365082 11.036546,52.730165 9.810263,80.32153c-1.226283,27.591365 -0.613141,55.18273 -1.226283,83.387237c0,9.197122 0,18.394243 -2.452566,26.978224c-3.065707,13.489112 -9.197122,17.167961 -22.686234,17.167961c-20.846809,0 -41.693619,0 -62.540428,0c-9.810263,0 -12.262829,-2.452566 -12.262829,-12.87597c0,-40.467336 0,-80.934671 0,-122.015148z" class="st0"/>
   <path stroke="null" id="svg_5" d="m201.285999,91.761717c9.197122,-3.065707 18.394243,-6.131414 27.591365,-9.197122c6.744556,-2.452566 14.102253,-4.29199 20.846809,-6.744556c8.58398,-2.452566 15.328536,-1.226283 20.846809,6.131414c4.905132,6.131414 10.423405,11.649688 15.941678,17.167961c3.065707,3.065707 6.131414,6.131414 10.423405,7.970839c6.744556,3.678849 9.810263,8.58398 9.810263,15.941678c0,2.452566 0,4.905132 0,7.357697c0,79.095247 0,158.803635 0,237.898882c0,3.678849 0,7.970839 0,12.262829c-3.678849,0.613141 -6.744556,1.226283 -9.810263,1.226283c-22.686234,0 -45.372467,0 -67.445559,0c-9.197122,0 -15.941678,-3.678849 -19.007385,-12.262829c-2.452566,-6.131414 -4.905132,-12.87597 -4.905132,-19.620526c-0.613141,-42.30676 -0.613141,-84.000379 0,-126.307139c0,-12.262829 3.678849,-25.138799 6.744556,-37.401628c4.29199,-16.554819 4.29199,-31.883355 -0.613141,-48.438174c-4.29199,-12.262829 -6.744556,-25.751941 -9.810263,-38.627911c0,-1.839424 0,-4.29199 -0.613141,-7.357697z" class="st0"/>
   <path stroke="null" id="svg_6" d="m189.636312,96.666849c1.226283,3.065707 1.839424,5.518273 2.452566,7.970839c4.29199,17.167961 8.58398,33.72278 12.262829,50.89074c1.226283,5.518273 1.226283,11.649688 0,16.554819c-9.810263,47.211892 -16.554819,95.036925 -21.459951,142.861958c-1.226283,14.102253 -3.678849,27.591365 -6.131414,41.693619c-1.226283,7.357697 -5.518273,11.036546 -13.489112,11.036546c-9.197122,-0.613141 -17.781102,-1.839424 -26.978224,-3.065707c-7.970839,-1.226283 -11.649688,-4.905132 -10.423405,-12.87597c1.226283,-12.87597 3.678849,-26.365082 6.131414,-39.241053c11.036546,-61.314145 22.073092,-122.62829 33.72278,-183.942435c3.065707,-15.328536 9.810263,-25.751941 23.912517,-31.883355z" class="st0"/>
   <path stroke="null" id="svg_7" d="m434.27975,96.666849c12.87597,6.131414 20.233668,15.328536 22.686234,28.204507c8.58398,43.533043 17.167961,87.066086 25.138799,130.599129c5.518273,28.817648 9.810263,57.635296 14.102253,87.066086c1.226283,6.131414 0,12.262829 0,19.620526c-13.489112,3.065707 -26.365082,6.131414 -39.854194,4.905132c-6.131414,-0.613141 -8.58398,-5.518273 -9.197122,-10.423405c-2.452566,-17.167961 -4.905132,-33.72278 -7.357697,-50.89074c-6.131414,-40.467336 -12.262829,-80.934671 -19.007385,-120.788865c-2.452566,-15.328536 -3.678849,-30.043931 1.226283,-44.759326c3.678849,-11.036546 6.131414,-22.686234 9.197122,-34.335921c0.613141,-3.065707 1.839424,-5.518273 3.065707,-9.197122z" class="st0"/>
   <path stroke="null" id="svg_8" d="m313.490884,392.814169c24.525658,0 48.438174,0 72.963832,0c2.452566,0 4.29199,0 6.744556,0c4.905132,0.613141 8.58398,3.065707 8.58398,8.58398c0,4.905132 -3.065707,7.357697 -7.970839,8.58398c-1.839424,0.613141 -3.678849,0.613141 -6.131414,0.613141c-49.664457,0 -99.942056,0 -149.606514,0c-3.065707,0 -6.744556,-0.613141 -9.197122,-1.839424c-2.452566,-1.226283 -4.905132,-4.905132 -4.905132,-7.357697c0,-2.452566 3.065707,-5.518273 5.518273,-6.744556c2.452566,-1.226283 6.131414,-1.226283 9.197122,-1.226283c25.751941,-0.613141 50.277599,-0.613141 74.803257,-0.613141z" class="st0"/>
   <path stroke="null" id="svg_9" d="m312.877743,89.309151c-11.036546,-14.102253 -16.554819,-30.043931 -25.138799,-47.211892c15.941678,-1.226283 29.43079,-1.226283 44.759326,0c-3.678849,17.781102 -11.649688,31.883355 -19.620526,47.211892z" class="st0"/>
   <path stroke="null" id="svg_10" d="m162.044946,378.098774c0,4.29199 0.613141,7.357697 0.613141,10.423405c0,5.518273 -3.678849,7.970839 -8.58398,7.357697c-7.970839,-0.613141 -15.328536,-1.839424 -24.525658,-3.065707c0.613141,-6.131414 0.613141,-11.036546 1.226283,-18.394243c11.036546,1.839424 20.846809,2.452566 31.270214,3.678849z" class="st0"/>
   <path stroke="null" id="svg_11" d="m492.528187,392.814169c-5.518273,1.226283 -11.036546,1.839424 -16.554819,3.065707c-14.102253,2.452566 -18.394243,-3.065707 -14.102253,-17.167961c7.357697,-1.226283 15.328536,-2.452566 23.299375,-3.065707c7.357697,-0.613141 9.810263,5.518273 7.357697,17.167961z" class="st0"/>
   <path stroke="null" id="svg_12" d="m325.140572,92.988c6.131414,-14.715395 12.262829,-29.43079 17.781102,-44.146184c14.102253,4.905132 15.941678,12.87597 7.357697,22.686234c-6.131414,6.744556 -11.649688,12.87597 -17.781102,19.620526c-1.226283,1.226283 -3.065707,2.452566 -4.905132,3.678849c-1.226283,-0.613141 -1.839424,-1.226283 -2.452566,-1.839424z" class="st0"/>
   <path stroke="null" id="svg_13" d="m298.77549,94.827424c-7.970839,-7.970839 -15.941678,-15.328536 -23.299375,-23.299375c-7.970839,-7.970839 -6.744556,-12.87597 4.29199,-20.846809c7.357697,14.715395 14.715395,28.817648 19.620526,43.533043c0,0 -0.613141,0.613141 -0.613141,0.613141z" class="st0"/>
   <path stroke="null" id="svg_14" d="m299.388631,94.214283c0,0.613141 0,0.613141 -0.613141,0.613141c0,0 0.613141,-0.613141 0.613141,-0.613141z" class="st0"/>
  </g>
 </g>
</svg>