<?xml version="1.0" encoding="utf-8"?>
<!-- Generator: Adobe Illustrator 19.0.0, SVG Export Plug-In . SVG Version: 6.00 Build 0)  -->
<svg version="1.1" id="Layer_6__x2B__Layer_5_xA0_Imagem_1_"
	 xmlns="http://www.w3.org/2000/svg" xmlns:xlink="http://www.w3.org/1999/xlink" x="0px" y="0px" viewBox="0 0 1617.2 475.2"
	 style="enable-background:new 0 0 1617.2 475.2;" xml:space="preserve">
<style type="text/css">
	.st0{fill:#FEFEFE;}
	.st1{fill:#D29B60;}
	.st2{fill:#D08F49;}
	.st3{fill:#C68648;}
	.st4{fill:#312413;}
	.st5{fill:#392911;}
	.st6{fill:#D49D6C;}
	.st7{fill:#C07B42;}
	.st8{fill:#AC6D39;}
	.st9{fill:#1D1407;}
	.st10{fill:#D89D5E;}
	.st11{fill:#C79057;}
	.st12{fill:#6D380A;}
	.st13{fill:#783B06;}
	.st14{fill:#13110B;}
	.st15{fill:#8D3E05;}
	.st16{fill:#18160F;}
	.st17{fill:#844413;}
	.st18{fill:#241809;}
	.st19{fill:#5E4626;}
	.st20{fill:#1F1A11;}
	.st21{fill:#853A04;}
	.st22{fill:#14120C;}
	.st23{fill:#80330D;}
	.st24{fill:#433118;}
	.st25{fill:#20190D;}
	.st26{fill:#852907;}
	.st27{fill:#AB4E19;}
	.st28{fill:#9C4107;}
	.st29{fill:#CE934F;}
	.st30{fill:#392A15;}
	.st31{fill:#221809;}
	.st32{fill:#7F4118;}
	.st33{fill:#A74A0A;}
	.st34{fill:#463114;}
	.st35{fill:#2F200C;}
	.st36{fill:#503817;}
	.st37{fill:#583E19;}
	.st38{fill:#3B270D;}
	.st39{fill:#36250E;}
	.st40{fill:#8A3507;}
	.st41{fill:#604215;}
	.st42{fill:#522712;}
	.st43{fill:#CC8843;}
	.st44{fill:#090605;}
	.st45{fill:#AE540B;}
	.st46{fill:#A2430F;}
	.st47{fill:#9A4304;}
	.st48{fill:#2D2415;}
	.st49{fill:#AC5008;}
	.st50{fill:#341E0B;}
	.st51{fill:#2A1E0C;}
	.st52{fill:#A64D08;}
	.st53{fill:#824013;}
	.st54{fill:#342612;}
	.st55{fill:#5C4529;}
	.st56{fill:#5A2C0F;}
	.st57{fill:#5E4C31;}
	.st58{fill:#37210C;}
	.st59{fill:#873006;}
	.st60{fill:#803709;}
	.st61{fill:#050304;}
	.st62{fill:#422906;}
	.st63{fill:#B25E08;}
	.st64{fill:#634218;}
	.st65{fill:#843C0B;}
	.st66{fill:#9B4108;}
	.st67{fill:#4F3513;}
	.st68{fill:#211707;}
	.st69{fill:#672F15;}
	.st70{fill:#603D0D;}
	.st71{fill:#0E0C09;}
	.st72{fill:#5C421A;}
	.st73{fill:#893710;}
	.st74{fill:#22190C;}
	.st75{fill:#482A08;}
	.st76{fill:#C58847;}
	.st77{fill:#45270B;}
	.st78{fill:#54360C;}
	.st79{fill:#C07341;}
	.st80{fill:#1E1304;}
	.st81{fill:#892F07;}
	.st82{fill:#6C3914;}
	.st83{fill:#342D2A;}
	.st84{fill:#3F2D25;}
	.st85{fill:#66300C;}
	.st86{fill:#272219;}
	.st87{fill:#4F3715;}
	.st88{fill:#2C2923;}
	.st89{fill:#42290A;}
	.st90{fill:#41290A;}
	.st91{fill:#654A25;}
	.st92{fill:#543C1B;}
	.st93{fill:#070505;}
	.st94{fill:#714D17;}
	.st95{fill:#30210D;}
	.st96{fill:#221507;}
	.st97{fill:#6A330C;}
	.st98{fill:#B46835;}
	.st99{fill:#291A07;}
	.st100{fill:#583D1B;}
	.st101{fill:#563D23;}
	.st102{fill:#D49851;}
	.st103{fill:#8A3F0A;}
	.st104{fill:#312513;}
	.st105{fill:#28231A;}
	.st106{fill:#D29246;}
	.st107{fill:#10110D;}
	.st108{fill:#231A0B;}
	.st109{fill:#583E1C;}
	.st110{fill:#604D3A;}
	.st111{fill:#352A19;}
	.st112{fill:#943308;}
	.st113{fill:#221708;}
	.st114{fill:#1C1713;}
	.st115{fill:#1E1915;}
	.st116{fill:#634219;}
	.st117{fill:#604E3B;}
	.st118{fill:#2B1D0B;}
	.st119{fill:#614E3B;}
	.st120{fill:#C6BEBB;}
	.st121{fill:#2B1F0E;}
	.st122{fill:#1F1B17;}
	.st123{fill:#1E1A16;}
	.st124{fill:#D4A57D;}
	.st125{fill:#4E3D26;}
	.st126{fill:#201A0E;}
	.st127{fill:#1D1B14;}
	.st128{fill:#1A1811;}
	.st129{fill:#593F1E;}
	.st130{fill:#23160D;}
	.st131{fill:#2C1D08;}
	.st132{fill:#1D1406;}
	.st133{fill:#4D381A;}
	.st134{fill:#251C0D;}
	.st135{fill:#42341D;}
	.st136{fill:#534229;}
	.st137{fill:#271E0F;}
	.st138{fill:#D09453;}
	.st139{fill:#50350E;}
	.st140{fill:#8E3B08;}
	.st141{fill:#9A4B07;}
	.st142{fill:#963B07;}
	.st143{fill:#503B1E;}
	.st144{fill:#0D0D07;}
	.st145{fill:#84491F;}
	.st146{fill:#5A4221;}
	.st147{fill:#8D3406;}
	.st148{fill:#6A4F2B;}
	.st149{fill:#624118;}
	.st150{fill:#A84B0C;}
	.st151{fill:#1E130C;}
</style>
<g>
	<g>
		<path class="st0" d="M183.1,475.1c-59.7,0-119.3,0-179,0.1c-3.4,0-4.1-0.7-4.1-4.1c0.1-52.3,0.1-104.7,0.1-157
			c3.8,1.5,1.9,5.3,3.1,7.8c0.5,6.7,2.1,13.3,3.7,19.8c0.8,5.6,2.7,10.8,4.8,16c5,13,10.8,25.6,19.1,36.9c2.5,3.8,5.7,6.7,9.3,9.5
			c6.8,5.3,14,6,21.9,2.9c2.2-0.7,3.9-2.2,5.8-3.4c2.1-1.3,3.9-2.9,5.9-4.3c7.1-6.4,12.8-14.2,18.6-21.7c3.4-4.9,7.1-9.6,10.2-14.7
			c5.2-6.9,9.6-14.2,14.7-21.1c2.7-4.5,6.1-8.6,9.1-13c5.8-7.4,11.2-15.3,17.7-22.1c2.2-3,5-5.5,7.7-8.1c5.1-4,10.1-8.2,15.8-11.3
			c2.4-1.3,2.3-2.6,0.7-4.6c-4.3-5.5-8.7-11-11.4-17.5c-5.3-12.9-12.5-25-15.9-38.7c-4.1-14.7-4.5-29.5-1-44.4
			c2.2-7,3.8-14.1,6.9-20.7c4.6-10.3,9.5-20.4,16.1-29.5c3.5-4.4,7.5-8.3,12-11.7c13.1-8.4,26.9-8.2,39.6,0.6
			c6.2,4.3,11.5,9.5,15.4,16c6.1,8.9,10.2,18.6,12.1,29.2c2.3,11.7,1.2,23-3.7,33.8c-3.5,6.9-8.2,12.9-14.8,17.1
			c-1.8,1.1-3.6,2.3-5.4,3.3c-8.9,4.3-8.8,4.3-2.7,12c6.5,8.3,13.8,15.7,24.1,19.3c4.9,1.4,9.2,0,13.1-2.8c8.4-6.1,14-14,15.7-24.4
			c1.2-12.8-0.6-25.3-3-37.7c-2.1-11.1-4.3-22.2-7.2-33.2c-1.4-6.8-2.9-13.5-4.2-20.3c-0.4-1.9-0.3-3.9,0.3-5.9c2-4,6-3.6,9.5-4.1
			c2.6-0.4,5.3,0.2,7.9-0.6c3.4-0.5,6.8-0.9,10-2c8.8-2.2,15.3-7.5,20.4-14.9c3.1-4.5,5.4-9.5,7.7-14.5c0.9-2,1.1-4.2-1.3-5
			c-11.9-4-22.8-10.9-35.7-11.8c-6-1.4-11.6,0.6-17.3,1.9c-3.2,0.9-6.5,1.5-9.3,3.2c-6.2,3.7-11.8,3.2-17.3-1.2
			c-2.3-1.4-4.5-2.8-6.8-4.1c-5.1-2.9-5.6-4.4-3.4-9.6c0.6-1.4,1.1-2.8,1.5-4.2c6.9-18.3,4.7-36.5-0.2-54.8
			c-0.5-1.7-1.6-3.4-0.8-5.3c464.5,0,929,0,1393.5-0.1c3.7,0,4.6,0.8,4.6,4.6c-0.2,21.5-0.1,43-0.1,64.5c-10.3,4.4-21,7.2-31.7,10.3
			c-10.3,3-10.3,3-9.7,15.9c0.2,21.9,0.1,43.8,0,65.8c0.1,28.5,0.2,57.1-0.1,85.6c0.2,4.5-0.2,8.9,0,13.4c0.1,6.1,0.1,12.1,0,18.2
			c0.2,14.3,0.1,28.5,0,42.8c0.3,14-0.2,28,0,42c0.1,20.9,0.2,41.8-0.1,62.7c0.1,8.9,0.2,17.8,0,26.7c0,0.6,0,1.2,0,1.8
			c0.5,9.3-2.1,10.4,10.5,10.3c8.1-0.1,16.3,0,24.4,0c2.3,0,4.7-0.2,6.6,1.5c0,3,0,6,0,9c-467,0-934,0-1401,0
			c0.2-2.4,2.2-2.2,3.7-2.3c10.3-1.1,20.4-3.4,30.5-5.5c24.6-6.5,47.3-17.1,68.1-31.6c5.9-3.8,11-8.6,16.4-13.1
			c8-6.6,15.1-14.1,21.7-22c3-4,6.7-7.4,9.2-11.9c6-7.5,10.6-15.9,15.4-24.2c1.4-2.2,2-4.8,3.2-7.1c3.6-6.7,6.2-13.8,8.8-21
			c2.4-6.5,4-13.3,5.8-20c1.5-6.2,2.6-12.4,3.3-18.7c2.5-17.8,3.1-35.6,0.6-53.4c-1-14.9-5.2-29.1-10-43.1
			c-6.6-19.2-16.9-36.5-28.4-53c-1.5-2.1-3.2-3.8-5.2-5.4c-4.7-8.4-12-14.5-18.8-21c-5.3-6.5-12.4-11.1-18.8-16.3
			c-2.1-1.7-3.4-1.4-4.7,0.9c-5.4,9.8-12.7,17.9-22.8,23.1c-3,1.5-1.2,2.7,0.3,3.9c7.8,5.7,14.8,12.4,21.6,19.2
			c21.9,21.7,35.6,47.9,42.6,77.7c0.2,1,0.5,1.9,0.8,2.9c1.7,8.7,2.8,17.4,3.3,26.2c0.2,14.2,0.6,28.5-2.2,42.6
			c-1.9,7.9-3.3,15.9-6.1,23.6c-4.2,11.5-9.2,22.5-15.8,32.8c-6.6,10.1-13.9,19.6-22.5,28.2c-5.6,5.9-11.9,11.1-18.2,16.2
			c-6.6,5-13.4,9.7-20.4,14c-4.2,2.2-8.5,4.2-12.6,6.5c-21.4,9.6-43.9,13.8-67.4,13.2c-4-0.1-8.1-0.3-10.8,3.6
			c-6.6,9.2-14.3,17.4-21.5,26.1c-3,3.6-2.7,3.9,1.8,4.6c4.3,0.7,8.6,0.8,12.8,1.8C180.9,473,183.1,472.5,183.1,475.1z"/>
		<path class="st0" d="M0.1,293.1c0-96.3,0-192.7-0.1-289C0,0.7,0.7,0,4.1,0c70.3,0.1,140.7,0.1,211,0.1c0.1,2.5-2.1,2.6-3.6,3.3
			c-6,2.8-12,5.5-17.3,9.6c-13.5,9.3-21.5,21.8-22.9,38.4c-0.4,4.6-1,9.2-0.2,13.9c0.8,4.4-1.6,6.9-5.9,7.7
			c-6,1.2-11.7,3.2-17.5,5.1c-7.1,1.9-13.2,6-19.9,9c-6.5,3.3-12.4,7.5-18.4,11.6c-7.6,5.5-15.1,11.2-21.8,17.9
			c-5,3.3-8.7,7.9-13,12c-3.7,3.3-6.4,7.6-9.9,11.1c-4.4,5.5-8.6,11.1-12.8,16.7c-0.9,1.1-1.5,2.3-2.1,3.5
			c-4.4,6.3-8.3,12.9-12,19.7c-3,4.9-5.3,10.1-7.8,15.2c-3.2,6.1-5.8,12.5-8.2,18.9c-6.8,18.3-12.7,36.9-16.5,56.2
			c-1.6,6.3-1.5,12.8-2.8,19.1C2.3,290.6,2.7,292.8,0.1,293.1z"/>
		<path class="st1" d="M1574.2,278.1c0-6,0-12.1,0-18.1c1-2,0.8-4.2,1.2-6.3c1.2-6.6,2.6-12.7,7.7-18.1c5.2-5.4,6.7-13.7,11.6-19.6
			c5.5-6.1,11.8-8.3,19.6-2.8c1-11.8-0.5-22.9,0.8-33.9c0.4-0.8,0.8-1.5,1.9-1.3c0,44.3,0,88.7,0,133c-2.5,4.1-3.9,8.7-5.3,13.2
			c-1.1,3.6-3.1,6.2-7.5,5.4c-3.7-5.5-7.2-11.3-10.4-17.1c-1.5-3.9,0.3-7.4,1.2-11c1.2-5.1,1.4-9.8-3.5-13.3c-1.3-1-2.8-0.9-4.2-1.1
			C1581.4,286.4,1576.8,283.7,1574.2,278.1z"/>
		<path class="st2" d="M1617.1,178.1c-0.3,0.3-0.7,0.7-1,1c-4.8,3.7-8,8.5-10.8,13.9c-1.7,3.3-3.8,7-8.5,7.2
			c-0.8-0.6-1.4-1.4-2.1-2.1c-4.9-4.8-4.9-4.9-0.5-10.4c2.4-3,1.3-5.3-1.1-7.3c-2.8-2.4-5.6-4.7-7.2-8.1c-1.9-4-0.9-6,3.5-6.2
			c0.7,0,1.3,0.1,2,0.1c6.7,0.7,6.7,0.7,6.3-5.9c-0.2-3.4,2-4.7,4.5-5.8c1.8-0.8,3.9-0.8,5.8-1.6c1.5-0.7,2.6-1.6,2.7-3.3
			c0.1-1.7-0.9-2.8-2.4-3.5c-6.6-3-11.7-5-17.9,2.1c-2.5,2.9-5,5.8-8.1,8.1c-1.3,1-2.3,2.6-4.3,1.7c-1.6-5.8-2.1-11.3,0.8-17.2
			c5.5-11.3,11-22.6,16.2-34.1c0.7-1.5,1.1-3.1,2.6-4.1c3.7-1.1,5.3,2.1,7.7,3.6c2.8,1.8,5.2,3.8,8,0c0.9-1.2,2.6-1.5,4-0.3
			C1617.1,130.1,1617.1,154.1,1617.1,178.1z"/>
		<path class="st3" d="M1574.2,453.1c0-9,0-18,0-27c2.9-1.5,5.1,0.6,7.5,1.4c6.4,2.2,8.9,0.9,10.5-5.6c1-3.9,1.5-7.9,2.7-11.7
			c2.8-9.2,2.3-18.1-2.5-26.6c-0.9-1.6-1.7-3.4-1.5-5.2c1-10.5,1-21.4,9.1-29.8c2.9-3,3.6-7.1,5.6-10.5c1.4-1.8,1.5-4,2.1-6.1
			c1.1-3.9,2.8-4.4,5.9-1.8c2.4,2,2.9,4.6,2.9,7.6c-0.1,11.8,0,23.6,0,35.4c0,1-0.2,2,0.5,2.9c0,0.7,0,1.3,0,2
			c-0.6,13.7-5.7,27.2-2.3,41.1c-4.5,4.6-10.1,7.4-16.3,8.9c-2.7,0.7-4.2,1.7-4.1,4.6c0.2,4.6-2,8-5.4,10.7c-4,3.2-8.5,5.8-12.1,9.6
			C1576.2,453.7,1575.1,453.9,1574.2,453.1z"/>
		<path class="st4" d="M183.1,475.1c-5.2-2.5-10.9-1.8-16.3-2.9c-2.2-0.5-5.6-0.1-6.4-1.7c-1-2.2,2.2-3.7,3.7-5.3
			c7.2-8.2,14.3-16.5,21-25.2c6.5,6.5,13.9,11.9,21.4,17.1c8.8,6.2,14.7,5.9,23.1-0.5c6.5-4.9,11.1-11.4,16.5-17.3
			c1.3-1.5,2.5-3.1,4.1-4.4c2.6-2.2,5.4-2.6,8.2-0.5c2.7,2.1,3.5,4.8,2.3,8c-1.3,3.3-3.6,6-5.5,8.9c-1.9,2.9-3.8,5.9-5.4,9
			c-1.5,3-1.6,5.7,1.5,7.8c-10.4,3-20.9,4.9-31.6,6c-1.2,0.1-2.7-0.7-3.5,1C205.1,475.1,194.1,475.1,183.1,475.1z"/>
		<path class="st5" d="M194,11.8c4.8-4.5,11.1-6.5,16.8-9.4c1.4-0.7,3.2-0.8,4.3-2.3c1.3,0,2.7,0,4,0c5.6,13.2,7.3,27.1,6.5,41.3
			c-0.4,6.8-1.5,13.5-4.6,19.7c-4.1,0.1-4.7,2.9-4.5,6.1c0.4,6.3-1.1,12-4.7,17.1c-0.9-0.2-1.4-0.9-1.6-1.7
			c-7.3-20.9-13.5-42.1-16.9-64.1C192.9,16.2,192.5,13.9,194,11.8z"/>
		<path class="st6" d="M1598.1,103.1c-6.7,14-13.4,27.9-19.9,41.9c-1.9,4.2,0.7,8.7-0.1,13.1c-0.7,1.8-1.6,3.3-3.9,3
			c0-22.3,0-44.7,0-67c4.2-4.9,6.7-10.9,10.9-15.8c10.7-2.9,21-7.4,32-9.2c0,5.3,0,10.7,0,16c-8.4,1.8-13.4,7.3-16.6,15
			C1600,101.4,1599.3,102.4,1598.1,103.1z"/>
		<path class="st7" d="M1574.2,453.1c5.4-4.7,11.8-8.3,16.8-13.5c2.2-2.2,2.3-5.1,2.1-7.9c-0.2-3,0.9-4.4,4.2-4.7
			c5-0.5,9.4-2.9,13.4-6c1.1-0.9,2-1.8,3.4-0.8c2.8,1.3,1.6,3.9,2,5.9c0.5,2.3,0,4.8,1,7.1c0,8.3,0,16.7,0,25
			c-1.9,2.4-4.6,2.7-7.3,2.3c-11-1.6-22-3.4-33-5c-1-0.1-1.9-0.6-2.6-1.3C1574.2,453.8,1574.2,453.4,1574.2,453.1z"/>
		<path class="st8" d="M1574.2,454.1c10.5,0.7,20.9,2.3,31.2,4.3c4,0.8,7.8,0.8,11.7-0.3c0,2.7,0,5.3,0,8c-12.3,0-24.6,0.1-36.8,0.1
			c-5.9,0-6.2-0.3-6.2-6.1C1574,458.1,1574.1,456.1,1574.2,454.1z"/>
		<path class="st9" d="M0.1,293.1c2.4-5.7,1.5-11.9,2.9-17.7c0.5-2.1,0.9-4.2,1.3-6.3c1.4-0.8,2.2,0,2.7,1.2
			c0.6,1.6,0.6,3.3,0.2,4.9c-3.5,13.6,0.8,26.3,5,38.9c1.7,5.2,4.3,10.1,4.7,15.7c-3.4,3.5-11.2,1.3-13.6-4
			c-0.5-1.2-0.4-2.6-1.3-3.7c-1.6-2.4,0.2-5.7-1.9-8C0.1,307.1,0.1,300.1,0.1,293.1z"/>
		<path class="st10" d="M1598.1,103.1c2-5.8,4.8-11.1,9.6-15.2c2.8-2.3,5.7-3.7,9.4-2.8c0,7,0,14,0,21c-1.3,0-2.9-0.1-3.6,1.2
			c-2.8,5.5-5.5,2.2-8.7,0.4C1602.5,106.3,1601.2,103.3,1598.1,103.1z"/>
		<path class="st11" d="M1617.1,376.1c-1.6-1.5-1-3.4-1-5.2c-0.1-10.8,0-21.6,0-32.4c0-2.2,0.1-4.4-1.9-5.9c-1.4-1-2.3-3.6-4.2-3
			c-1.8,0.6-0.6,2.9-0.9,4.5c-0.4,2-1,3.9-3,4.9c-3.7-2.7-3.1-6.3-2-10c4,0.2,6.2-2,6.7-5.7c0.5-3.8,2.9-6.9,3.6-10.6
			c0.2-1.3,1.5-1.7,2.7-1.7C1617.1,332.8,1617.1,354.4,1617.1,376.1z"/>
		<path class="st11" d="M1617.1,433.1c-2.6-4-1.1-8.9-3-13c-3.4-10.3-2.4-20.6,0.9-30.5c1.3-3.8-0.1-7.9,2.1-11.5
			C1617.1,396.4,1617.1,414.8,1617.1,433.1z"/>
		<path class="st12" d="M888.9,439.1c-1.1,2.7-2.2,5.4-3.4,8.2c-5.6,4.3-9.2,4-13-2c-2-3.1-5.1-5.1-7.1-8.1
			c-1.3-7.2-3.6-14.1-6.7-20.8c-0.6-1.3-1.1-2.8-0.7-4.3c5.1-12.4,10.2-24.7,15.4-37.1c13.2-31.4,26.4-62.8,39.7-94.2
			c0.3-0.6,0.7-1.1,1-1.7c4.7-3.5,8-8.2,11.5-12.9c2.9-3.9,6.5-6.6,11.2-7.6c2-0.4,3.5-1.8,5.2-2.8c0.2,0,0.4,0,0.5,0
			c8.1,6.5,11.8,6.2,18.5-2.4c4.3-5.5,6.8-12.1,10.6-17.8c0.8-1.3,1.5-4.6,4.1-1.5c0.6,2.3-0.5,4.3-1.3,6.2
			c-7.4,17.1-14.6,34.3-21.8,51.5c-6,14.1-12,28.2-17.8,42.4c-0.8,2-1,3.8-0.2,5.8c-1,7.7-5.9,13.7-9.8,19.9
			c-8.4,13.2-16.9,26.3-24.2,40.2C894.2,412.4,890.5,425.4,888.9,439.1z"/>
		<path class="st13" d="M975.2,234.3c-0.5-0.7-1.1-0.8-1.5-0.1c-2.3,4.2-4.8,8.3-6.9,12.6c-2.2,4.4-4.9,8.2-8.5,11.6
			c-5.9,5.6-12.3,4.7-16.2-2.3c-1.7-1.8-0.8-3.7-0.3-5.6c1-3.5,2.5-6.8,4.1-10.1c2.3-4.7,2.4-9.5,0.7-14.4c-0.8-2.4-1.6-4.5-4.6-1.5
			c-1.7,1.7-4.4,2.9-4-1.7c1.5-5.2,4-9.9,6.2-14.8c5.6-8.7,13.3-15.8,19.7-23.8c13.3-16.7,19-35.9,19.9-56.9c0.2-4.5-0.3-9,0.2-13.4
			c6.3-15.1,12.5-30.3,19.4-46.8c10.2,24.5,19.9,47.7,29.6,70.9c-7.8,13-14.3,26.6-19.6,40.7c-0.7,1.8-0.8,4-3.1,4.7
			c-2.9-0.5-2.9-3.3-4-5.2c-1-1.9-1.2-4.1-3-6.1c-4.9,11.3-9.6,22.4-14.2,33.5c-3.4,8.1-6.7,16.3-10.2,24.3
			C978.1,231.8,977.7,234,975.2,234.3z"/>
		<path class="st14" d="M358,232.1c-3.6-12.7-7.2-25.5-13.2-37.4c-12.2-24.2-29.6-44-51.1-60.3c-1.2-0.9-2.4-1.8-3.6-2.7
			c-0.2-0.2-0.3-0.6-0.7-1.2c12.4-5.3,21.2-14.4,27.1-26.3c0.6-1.3,1.6-3.1,3.4-1.6c6.8,5.6,14,10.7,20.2,17c0.4,0.4,0.6,1.1,1,1.6
			c6.3,10.3,13.3,20.1,20.2,30c1.3,3.1,1.9,6.4,2.1,9.7c2.5,7.7,2.4,15.8,4.6,23.6c0.9,3.1,3.5,5.1,5.7,7.3c2.1,2.4,2.5,4.9,2.1,8.2
			c-0.6,5,1.2,9.8,2.9,14.6c3.2,9.4,7,18.7,8.3,28.7c0.5,3.7,0.6,7.3,0.2,11c-0.4,3.6-2.2,4.3-5,2.2c-2.6-2-5-4.4-7.1-7
			c-4-5-8.3-9.6-13.7-13C359.9,235.2,359.1,233.6,358,232.1z"/>
		<path class="st15" d="M1364.1,314.9c-21.5,0.7-43.1,0.3-64.6,0.2c-2.7,0-5.3-0.1-7.4,2c-1.2,7-0.3,14.1-0.5,21.2
			c-0.2,5.4,0,10.9,0,16.3c0,1.6-0.7,2.2-2,1c-1.3-1.1-1.6-2.8-2.5-4.2c-2.9-5-5.6-5.8-10.4-2.8c-3.4,2.1-6.9,3.9-11,2.3
			c-3.9-5.9-4.7-12.2-3.1-19c1.2-5.2,2.5-10.3,4.1-15.3c1.5-4.6,1.5-9.4,2.2-14.2c1.4-3.8,4-6.9,6.1-10.3c2.6-4.4,2.1-6.1-2.6-7.9
			c-7.5-2.9-8.1-5.2-3.1-11.6c1.1-1.4,2-3.1,3.3-4.4c0.6-0.4,1.4-0.5,1.8,0.1c2,3,3.9,1.8,6.1,0.1c1.8-1.5,3.7-2.9,6.2-1.6
			c5.9,9.2,14,16.3,21.5,24.1c2.4,2.5,4,5.7,5.4,8.9c0.6,1.4,1,2.9,2.2,3.9c1.7,1.4,3.8,2.6,5.9,1.2c2.1-1.4,0.6-3.3,0-4.9
			c-2.9-7.1-2.2-9.7,3.7-14.8c1-0.9,2.2-1.6,2.9-2.7c3.7-6.5,9.7-7.1,16.3-6.9c7.6,0.2,15.3,0.6,22.9-0.3c0.9,0,1.6,0.3,2.2,1
			c0.7,7.6,3.8,14.7,5.2,22.2c0.9,4.7-0.7,9.2-1.9,13.7c-0.5,1.8-2.1,2.4-3.9,2.4C1367.4,314.6,1365.7,314.3,1364.1,314.9z"/>
		<path class="st16" d="M194,11.8c1.4,14.9,4.9,29.3,8.8,43.7c2.7,9.7,6.1,19.1,9.3,28.6c1,0.5,1.5,1.4,2,2.3
			c2.2,4.5,1.3,9.4,1.9,14.1c0.8,6.4,3,11.7,7.7,16c3.3,5.2,4.6,11.3,6.7,17c0.5,1.4,1.2,3.4-1.5,3.7c-5.3-7.5-11.5-14-19.7-18.2
			c-11.8-6.2-23.2-4.9-34.3,2.1c-3,0-3.3-2.5-3.7-4.5c-2.6-12.8-5.4-25.5-7.3-38.4c-0.3-2.2-0.5-4.3,1.1-6.1
			c4.4-0.5,4.9-3.3,4.6-7.1c-0.8-11.9,0.1-23.6,6.3-34.3C180.5,22.9,186.1,16.2,194,11.8z"/>
		<path class="st17" d="M1053.1,186c5,11.5,10.1,23,15,34.6c7.7,18.1,15.2,36.3,22.8,54.5c-2.4,6.4-4.9,12.8-8.1,18.8
			c-4.2,7.8-11,13.1-19.1,16.7c-3.8-2.5-4.4-6.9-6-10.6c-8.6-20.2-17.2-40.4-25.7-60.6c-0.9-2.3-2.3-4.5-1.7-7.1
			c3.9-12.5,11.5-23.2,17.3-34.7C1049.6,193.8,1050,189.2,1053.1,186z"/>
		<path class="st18" d="M251.2,468.1c-4.9,0.4-4.7-2.6-3.7-5.8c1.7-5.5,5.4-9.8,8.4-14.6c1.1-1.8,2.5-3.6,3.5-5.4
			c1.6-3,0.6-5.5-2-7.4c-2.4-1.7-4.7-1.2-6.6,1c-3.6,4.1-7.3,8.1-10.7,12.4c-3.8,4.7-8.4,8.4-13.3,11.9c-5.3,3.8-11.3,3.6-16.5,0.6
			c-8.7-5-17-10.9-24-18.2c-0.6-0.7-0.8-1.8-1.2-2.7c1.5-3,3.4-5,7.2-4.8c25.2,1.1,49.5-2.9,72.7-13.3c2.2,0.9,2.4,3,3.1,4.8
			c2.6,6.9,6.3,13,11.3,18.8c0-5.5,2.2-10.5,2.5-15.8c0.2-3.8-0.5-7.2-3.3-10c-1-1-2.3-2.1-1.5-3.9c6.7-4.6,13.4-9.2,20.1-13.7
			c2.5-1.4,3.2,0.9,4.1,2.3c1.8,2.8,3.7,5.4,6.5,7.4c3.2,2.2,3.3,6,4.6,9.1c1,2.9,2.6,5.2,5,7.2c2.5,2.2,4.2,4.8,2,8.3
			C298.6,451.4,275.9,461.9,251.2,468.1z"/>
		<path class="st19" d="M144.9,307.1c-5.9,7.3-11.9,14.7-17.8,22c-8.6-11.5-16.7-23.2-24.1-35.4c-9.4-15.4-16.5-32-23-48.7
			c-4.6-11.9-8.7-24.1-11.9-36.6c-0.6-2.8-1.4-5.5-1.7-8.3c-0.2-3.2,1.3-4.4,3.8-2.7c5.4,3.7,10.7,7.1,12.8,14.5
			c2.8,10.2,10.2,18,16.6,26.4c1.9-1.4,1.1-3.2,1.4-4.7c0.3-1.7,0.8-3.3,2.6-3.9c2.1-0.7,3.6,0.5,4.6,2.1c3.5,5.3,6.9,10.5,9.4,16.4
			c3.9,9,8,17.9,14.3,25.5C137.8,284.2,143.4,294.8,144.9,307.1z"/>
		<path class="st20" d="M499.3,354.1c-0.1-31.9-0.1-63.8-0.2-95.7c0-13.1,0.1-26.2,0.2-39.4c0.6-0.2,1.1-0.1,1.5,0.5
			c1.5,4.3,0.6,8.7,0.8,13c-0.2,14.6,0.1,29.3-0.1,43.9c0,3.9,1.5,7.1,4.7,8.7c12.8,6.4,18.7,16.8,21.8,30.7
			c3.2,14,10.6,26.8,14.4,40.9c0.7,2.7,1.4,5.5,1.7,8.3c-0.7,1.7-1.4,3.4-2.1,5.1c-0.8,11.4-0.1,22.9-0.4,34.3
			c-0.1,2.8,0.1,5.6-0.2,8.8c-2.9-0.3-3.8-2.6-5.1-4.4c-8.5-12.3-17.5-24.2-25.1-37.1c-3.1-5.3-7-10.1-11-14.7
			C499.6,356.2,499.8,355,499.3,354.1z"/>
		<path class="st21" d="M1266.1,351.1c4.6-0.9,8.7-2.6,12.6-5.1c3.6-2.3,6.9-0.5,9.5,4.4c1,1.9,1,4.2,2.7,5.8
			c1.3,1.4,0.6,3.2,0.6,4.8c0,29.5,0,59,0.1,88.4c0,3.7-0.8,6-4.6,6.9c-2.8,0.7-5.3,2.4-6.8,4.8c-2.6,4.1-6.2,5-10.7,4.6
			c-2.8-0.2-5.6-0.5-8.4,0.3c-2.7,0-5.3,0-8,0.1c-1.1-1.2-1.4-2.7-1.3-4.2c0.9-8.7,1.7-17.5,8.4-24c9-8.6,10.3-19.4,9.3-30.8
			c-0.6-6.7-2.4-13.3-1.7-21.1c-3.1,2-4.2,4.2-5.8,6c-1.4,1.6-2.5,3.7-5.2,3.3c-2.6-4.9-4.5-9.9-5.2-15.4
			c-0.8-6.4,1.6-11.5,7.1-14.1c5.8-2.8,7.8-6.7,6.6-12.8C1265.3,352.3,1265.7,351.6,1266.1,351.1z"/>
		<path class="st22" d="M544,365.1c-3.2-2.6-2.6-6.6-3.6-9.9c-3.6-12.6-9.2-24.5-13.5-36.8c-1.6-4.7-2.7-9.5-3.7-14.3
			c-1.3-5.6-5.3-9-9.7-12.1c-0.4-0.3-0.9-0.5-1.3-0.7c-8.8-4.3-13.4-10.4-12.4-21.2c1.1-12.2,0.3-24.6,0.3-36.9c2.9,0.5,2.4,3.2,3,5
			c3,9.1,6.9,17.6,15.3,23.2c3,2,6.1,3.3,9.4,4.4c2.3,0.8,4.5,1.8,5.1,4.3c1.3,6.2,4.2,11.5,8.1,16.4c0.4,0.5,0.5,1.2,0.5,1.9
			c0.4,6.2-0.9,12.5,0.8,18.7c4.7-2.5,7-7.5,10.8-10.8c0.7-0.6,1.3-1.4,2-2.1c1.2-0.3,2.1,0.2,2.4,1.2c2.5,8.1,10.1,14.4,8.2,24.2
			c-0.7,3.9,1.1,8.1,2.2,12.1c0.5,1.9,1.2,3.8,0.3,5.8C560.6,347,552.3,356.1,544,365.1z"/>
		<path class="st23" d="M1063.8,310.2c3.8-2.9,7.6-5.8,11.4-8.7c5.3-4,7.6-9.8,9.9-15.8c1.4-3.7,2.6-7.7,5.8-10.6
			c5.1,12,10.1,24,15.2,36c0.9,2.6-0.5,4.7-1.6,6.9c-6,12.6-13.9,24.1-20.6,36.3c-3.6,6.5-7.3,13-9.8,20.1c-0.6,1.6-1.6,2.8-3,3.8
			c-12,0.5-24,0.5-36,0.1c-0.7-2.3,1.1-3.3,2.5-4.4c2.6-2,3-4.4,2.5-7.5c-1.1-7-2.8-14-2.3-21.2c0.3-2,0.7-3.9,2.2-5.4
			c4.1-1.9,8.5-0.8,12.8-1c5.3-0.2,10.6,0.1,15.9-0.1c4.2-0.2,4.7-0.9,3.2-4.9c-2.4-6-4.9-12-7.4-17.9
			C1063.7,314,1062.6,312.2,1063.8,310.2z"/>
		<path class="st24" d="M74,399.9c-1.6,2-3.6,3.5-5.9,4.6c-4.7-5.9-6.6-13.4-10.6-19.7c-1.4-2.2-2.5-4.7-4.2-6.8
			c-3-3.5-6.7-6-11.4-4.7c-12.2,3.5-19.7-2.8-25.8-12c-1.1-2.3-3-4.3-1.4-7.1c4-0.4,3.8-3.6,3.8-6.3c-0.1-3.5-1-6.9-1.9-10.3
			c-0.7-2.7-0.8-5.2,0-7.8c1.7-4.1,2.1-8.3,2.2-12.7c0.2-7.9,4.5-11.1,12.1-9.4c10,2.2,15-0.7,18-10.6c1.3-4.1,2.7-8.2,3.7-12.5
			c0.3-1.5,0.2-3.6,2.6-3.6c0.6,0.6,0.9,1.4,1.1,2.2c0.8,11,3.4,21.7,4.9,32.6c0.3,2,0.9,3.9,0.6,5.9c-3.8,6.1-3.3,12.6-2.4,19.3
			c0.2,1.8,0.1,3.7-0.1,5.5c-4.7,8.2-1.5,15.2,2.9,22.3c4,6.5,7.4,13.4,10.8,20.2C74.5,392.4,76.5,396.1,74,399.9z"/>
		<path class="st25" d="M358,232.1c9.9,5.3,16.1,14.5,23.9,22.2c1,1,1.8,2.9,3.5,2.1c1.4-0.6,0.6-2.4,0.7-3.7
			c0.8-13.5-4.7-25.5-8.6-37.9c-1.8-5.8-4.9-11.5-2.3-18c0.7-1.8-2.4-2.6-2.1-4.7c-0.4-0.4-0.4-0.8,0.1-1.2
			c6.5,3.7,10,9.8,13.6,15.9c2.2,3.7,3.8,7.7,5.3,11.8c3.2,8.5,6.7,16.9,11.9,24.5c2.7,18.4,2.6,36.8-0.7,55.2
			c-2.2-5.4-6-9.8-9.2-15.5c-1.9,7.2-0.9,13.4,1.4,19.6c1.8,4.8,4.4,9.3,4.4,14.6c-1.6,6.8-3.2,13.5-5.9,20c-3-0.4-3.2-3-3.9-5.1
			c-2.8-8-4.6-16.3-6.9-24.4c-3-10.8-8.8-20.4-14.5-29.9c-3.5-5.8-7.6-11.3-7.4-18.6C360.2,250.1,359.1,241.1,358,232.1z"/>
		<path class="st26" d="M1259.1,74.1c14.2,0,28.5-0.1,42.7-0.1c3.3-0.7,6.7-0.1,10.1-0.3c3.7,1.5,1.1,3.5,0.1,4.9
			c-4.2,6.4-9.6,11.8-14.6,17.5c-8.3,9.5-16.1,19.3-21.8,30.7c-1.6,3.3-3.1,6.6-3.9,10.2c-0.9,4.2-3,7.3-6.9,9.1
			c-4.4,4.8-7.9,10.1-10.9,15.9c-0.9,1.8-1.7,3.7-3.4,4.8c-1.8,1.2-1.8-0.2-1.9-1.5c0-19.6,0-39.2,0-58.8c1-7.5,4.9-14.1,6.8-21.3
			C1256.4,81.5,1256.2,77.2,1259.1,74.1z"/>
		<path class="st27" d="M1455.1,288.9c-4.9,3.9-10,7.2-15.9,9.5c-2.3-2.5-1.8-5.7-1.3-8.5c2.4-15.5,3.8-30.9,1.7-46.5
			c0.5-6.5,5-11.2,7.8-16.7c3.6-3.3,5-7.8,6.4-12.2c1.7-5.1,4-6.3,9-4.4c10.4,3.9,15.3,1.2,17.4-9.7c0.6-3.1,0.4-6.3,1.8-9.3
			c3.2-5.3,7.2-10.2,9.8-15.8c0.6-1.3,1.4-2.7,3.3-2.1c1.2,2.5,1,5.2,1.1,7.8c0.9,6.1,0.3,11.7-2.7,17.3
			c-4.9,8.9-7.5,18.8-11.2,28.2c-0.7,1.7-1.2,3.5-2.2,5c-1.1,1.7-2.5,3.1-4,4.4c-2.9,2.7-4.7,6.1-4.6,10.1c0.1,4.1-1.2,7.8-3.1,11.4
			c-4.5,8.4-8,17.1-10.6,26.3C1457.2,285.5,1456.2,287.3,1455.1,288.9z"/>
		<path class="st28" d="M1249.3,105.1c0,20.6,0,41.3,0,61.9c1.7,2,1.2,4.4,1.2,6.7c0.1,12.8,0,25.7,0,38.5c0,1.3-0.1,2.7,0,4
			c0.1,1.8,0,3.9,2.5,4.2c2.3,0.3,4.1-0.9,4.6-3c1.4-5.8,4.4-11.2,4-17.4c-0.3-4.5,0.1-9,1.5-13.3c2.5-7.7,7.7-13.1,15.1-16.4
			c2.3-1,4.5-2.1,6.3-3.9c3.7-0.3,2.7,2.5,2,3.9c-5.8,11.9-8.4,25.4-18.2,35.2c-2.7,2.7-0.5,11.9,3,13.4c2.5,1,4.1-0.7,5.7-2.1
			c3.1-2.8,5.8-6,9.5-8c3.7-2,5.7-1.2,5.7,2.8c0.1,11.8,0.7,23.6-0.3,35.4c-1.4,2.5-1.3,5.4-2.4,8c-4,2.3-7.4,0.5-10.5-1.8
			c-2.5-1.9-4.9-3.9-7.5-5.7c-2.6-1.8-4.8-1.7-7.1,0.7c-5.7,6-10.6,12.5-11.1,21.1c-0.2,3.2-4,5.1-2.7,8.7
			c0.2,14.5,0.1,28.9,0.1,43.4c0.1,26.6,0.2,53.2,0,79.8c0.2,19.1,0.1,38.3,0.1,57.4c0,2,0,4-1.6,5.6c-1.3-1.6-0.8-3.5-0.8-5.3
			c0-125.6,0-251.1,0-376.7c0-1.8-0.5-3.7,0.6-5.4c1.7,1.3,1.7,3.2,1.7,5C1250.7,89.5,1251.4,97.4,1249.3,105.1z"/>
		<path class="st29" d="M1604.1,329.1c1.1,3.3,0.3,6.9,2,10c-1,5-3.2,9.4-7.2,12.7c-1.7,1.4-2.6,3.2-3.1,5.5
			c-0.9,4.9-2.5,9.6-3.4,14.5c-0.8,4.1-0.8,8.2,1.5,12.1c4.7,8,5.2,16.5,2.6,25.4c-1.4,4.8-2.4,9.6-3.4,14.5
			c-1.1,5.3-5,7.6-10.2,5.8c-3-1.1-5.9-2.3-8.8-3.4c0-21,0-42,0-63.1c1.8-19.1,12.1-34.7,20.9-50.9
			C1597.5,318.1,1602.9,322.5,1604.1,329.1z"/>
		<path class="st30" d="M142.2,226.9c3.8,13.4,11.2,25.2,15.8,38.2c-1.8,1.6-3.4,0.3-5-0.4c-8.3-3.5-12.5-10.5-15.6-18.4
			c-1.5-3.9-3-7.7-6.1-10.7c-0.9-0.9-1.8-2.3-3.3-1.6c-1.6,0.8-1.5,2.5-1.2,4c0.6,2.8,1.5,5.4,1.9,8.2c0.2,1.8,1,3.6-0.8,5.1
			c-5.9-4.7-10.2-10.8-10.6-18.3c-0.6-13.5-6.1-25.4-10.8-37.6c-4.2-10.8-8.5-21.6-12.7-32.4c-1.8-11.5-4.1-23-5.8-34.6
			c-0.1-0.8,0-1.6,0.3-2.4c2.3-2.7,4-0.2,5.4,0.9c6.2,5,11.1,11.2,13.3,18.9c2.1,7.1,5.2,13.2,10.9,18c0.6,0.8,1.3,1.8,1.1,2.6
			c-1.2,4.7,1.4,8.4,3,12.4c4.3,16.8,11.9,32.2,19.4,47.7C141.5,226.8,141.8,226.9,142.2,226.9z"/>
		<path class="st31" d="M499.2,121.1c0-10.3,0-20.7,0-31c8.3-5.9,16.1-3.7,17.7,5.9c3,18.3,9.3,35.7,14.4,53.4c3,10.4,5,21,5.3,31.9
			c0.1,2.7,0.6,5.4,2.1,7.6c2.6,3.6,3.1,7.5,2.9,11.8c-0.3,12,0.1,23.9-0.1,35.9c-3,1.3-2.9-1.6-3.5-2.9c-3-6.1-4.8-12.7-7.1-19.1
			c-4-10.7-8.4-21.3-11.9-32.2c-2.8-18.7-9.4-36.1-17.3-53.2C500.5,126.5,500.5,123.6,499.2,121.1z"/>
		<path class="st32" d="M1039.1,345.1c-0.5,7.1,1,14.1,2.4,20.9c0.9,4.6,0.1,7.3-3.8,9.3c-1.2,0.6-2.1,1.6-2.6,2.9
			c-20,0.5-40,0.6-60,0c-1.6-1.8-1.5-4-1.2-6.1c1.2-10.1,4.3-19.7,7.7-29.2c0.6-1.6,1.4-3,3.1-3.7c11.6-1.2,23.3-0.8,35-0.2
			c2,0.5,2.8,2.2,3.8,3.7c1.5,2.1,3.2,3.8,5.6,4.7C1033,348.8,1036.3,348.1,1039.1,345.1z"/>
		<path class="st33" d="M1440.1,242.1c2.9,9.8,2.2,19.8,1.5,29.8c-0.6,8.8-3.1,17.5-2.5,26.5c-13.8,7.4-28.7,11.5-44.1,13.8
			c-2.1-2.5-1.9-5.7-2-8.6c-0.7-10.1-0.1-20.2,0.8-30.3c0.5-2.8,2.8-3.5,5-4.2c11.9-3.7,22.6-9.4,31.7-18c1.8-1.7,3.3-3.7,5-5.5
			C1436.9,244.1,1437.6,241.9,1440.1,242.1z"/>
		<path class="st34" d="M499.3,354.1c0.7,0.5,0.8,1.2,0.9,2c1.2,1.7,1.5,3.7,1.3,5.7c-0.7,6.4,1.4,12,4.1,17.7
			c5.4,11,9.1,22.5,10.8,34.7c0.7,5.1,1.3,5.5,6.5,4.4c5.1-1,7.7,0.1,7.3,4.5c-0.8,10.1,3.6,17.7,10,24.6c0.7,0.7,1,1.7,1.7,2.5
			c0.1,3.8,0.1,7.6,0.2,11.4c0.1,3.3-1.4,4.8-4.8,4.8c-11.1-0.2-22.2-0.2-33.3-0.2c-2.1-5-2.2-10.5-3.5-15.7
			c-0.5-2.1-0.5-4.2-1.3-6.2C499.2,414.1,499.3,384.1,499.3,354.1z"/>
		<path class="st35" d="M541,237.1c0-12.9,0-25.8,0.1-38.7c0-2.2-0.5-4-1.9-5.9c-2.8-3.6-4.2-7.6-4.2-12.4
			c-0.1-13-3.6-25.4-7.3-37.8c-4.4-14.9-9.8-29.5-11.8-45c-1.1-8.5-5-10.4-13.3-7.8c-1.1,0.3-2.2,0.5-3.4,0.7
			c-0.5-7.7,0.4-8.9,7.6-11c7.8-2.3,15.6-4.6,23.4-6.8c2.5,1.1,2.4,3.5,2.3,5.5c-0.3,5.2,0.9,9.8,4.4,13.8c1.6,1.9,2.3,4.3,3,6.2
			c-0.1-7.4-0.1-15.3,0-23.3c0-1.6-0.4-3.8,2.1-4.4c0,13.5,0.1,27,0.1,40.5c0,63.8,0,127.6,0,191.4c0,1.7,0.2,3.3,0.3,5
			c-2.3-1.8-1.1-4.3-1.2-6.5c-0.2-4.5-0.1-9-0.1-13.4c-1.3-2-1.6-4.3-1.6-6.7c0-12.4,0-24.8,0-37.2
			C539.5,241.1,539.3,238.8,541,237.1z"/>
		<path class="st36" d="M55.1,283.1c0-0.7,0-1.3,0-2c-1-2.2-0.2-4.2,0.4-6.2c2.9-9.3,4-18.6,2.4-28.3c-0.5-3.1-0.3-6.2,0-9.4
			c1.6-10.3,3.1-20.5,4.2-30.9c3.2-2.8,4.7,0.8,7,1.8c3.6,11,7,22.1,10.9,33c5.5,15.2,11.8,30.1,19.6,44.3c7.7,14,17,26.9,26,40
			c0.7,1.1,1,2.4,1.4,3.7c-3,4.3-6,8.7-9.1,13c-2.5,1.3-3.3-0.9-4-2.3c-3.7-7.2-7.7-14.2-9.8-22.1c-2.4-4.7-6-8.7-8.1-13.6
			c-0.8-5.2-1.3-10.5-6.5-13.5c-1.7-1.7-1.9-4-2.6-6.1c-0.9-6-2.5-11.7-7.4-15.8c-1.6-1.3-1.6-3.6-2.1-5.5c-0.5-2-0.7-4.7-3.7-4.4
			c-3.1,0.3-4.3,2.9-4.1,5.4c0.7,7.1-3.9,11.7-7.5,16.8C60.6,283.1,58.4,285.3,55.1,283.1z"/>
		<path class="st37" d="M229,137.2c1.2-0.8,1-1.9,0.6-3c-2.2-5.7-4.4-11.4-6.5-17.1c-1.9-2.3-2.4-5-2.4-7.9
			c0.1-8.6-2.3-16.3-7.7-23.1c-0.8-0.4-0.9-1.2-1-2c-0.1-2.3,0-4.5,1.6-6.5c2-2.3,1.3-5.3,1.4-8.1c0.1-2.1-0.2-4.3,0.2-6.4
			c0.7-3.4,2.4-5.1,5.7-2.1c-2.6,9-2.6,9,5.4,14c1,0.6,1.9,1.3,2.8,2c1.3,3.1,2.1,6.4,2.4,9.7c1.1,10.9,5.9,20.8,7.8,31.5
			c0.5,2.7,2.3,4.4,4.5,5.7c1.8,1.1,4.1,1.8,5.5,3.3c2.1,2.2,3.7,1.4,5.5-0.1c-0.4,7.6,2.8,14.5,3.7,21.8c0.2,1.3,0.4,2.6,0.6,3.9
			c0.5,1.3,0.5,2.5-1.2,2.4c-3.3-0.3-3,1.8-2.7,3.8c1.6,10.2,3.6,20.3,5.3,30.5c0.5,3,1.3,5.9,0.2,8.8c-2.4,2.1-3.2-0.4-4-1.6
			c-5.9-9.9-11.7-19.9-15.2-31c-0.1-0.3-0.4-0.5-0.7-0.6C238.7,155.2,234.7,145.9,229,137.2z"/>
		<path class="st38" d="M571.2,276.1c2.6-3.7,5.7-7,8.9-10.1c4,3.7,7.8,7.4,12,11c2.7,2.3,4,2.4,4.8-1.3c0.2-1.2,0.4-2.7,2.2-2.8
			c6.5,2.9,8,8.9,9.1,15c1.9,10.4,3.5,20.9,5.4,31.3c1.3,7.3,2.8,14.7,3.9,22c0.2,1.6,1.6,4-1.4,4.9c-10-8.3-20-16.6-30-24.9
			c-7.7-8.1-13.9-16.7-13.5-28.8C572.7,287,571.3,281.6,571.2,276.1z"/>
		<path class="st39" d="M121.1,179.1c-4.4-4.2-3.1-9.9-4-15c0.2-0.3,0.4-0.5,0.7-0.7c8.9-4.5,9.4-5.6,6.1-15.4
			c-4.3-12.9-8.5-25.8-13.8-38.3c-1.6-3.8-1.6-7.7-1.3-11.7c5.7-4.5,11.8-8.4,18.3-11.7c1.4,1.2,1.5,2.9,1.8,4.5
			c2.5,14,7.9,27,12.3,40.4c3.3,9.8,6.4,19.5,6.8,29.9c-2.3,6.7-4.6,13.4-6.9,20.1c-4.1-1.4-8.4-2-12.5-3.2
			C125.9,177.3,123.4,177.5,121.1,179.1z"/>
		<path class="st40" d="M1156.2,429.8c4.8,11.1,9.5,22.2,14.3,33.3c1.1,2.6,0.4,3.1-2.1,3.1c-12-0.1-24-0.1-36,0.1
			c-2.9,0-4.1-1.6-5.1-3.9c-5.7-13.8-11.4-27.6-17.1-41.3c1.6-4.4,2.3-9.3,7.2-11.6c3.9,0.8,7.5,2.6,11.4,2.9
			c2.1,1.2,2.5,3.4,2.9,5.5c0.9,4.6,3.3,8.2,6.3,11.6c4.9,5.6,10.1,6,16,1.4C1154.7,430.4,1155.4,429.9,1156.2,429.8z"/>
		<path class="st41" d="M666.1,333.1c4.7,4,9.5,7.9,14.2,11.9c2.3,7.9,1.7,15.6-2,23c-5.6,5.3-10.4,11.1-13.3,18.4
			c-7.8-5.6-15-11.9-22.1-18.2c-7.8-20.2-14.2-40.8-17.5-62.2c-0.3-2.1-1.1-4.3,0.8-6.1c4.3,3,8.3,6.4,12.2,10
			c5.4,11.9,10.7,23.9,14.2,36.6c0.8,3,1.6,6.1,2.2,10.2c3.6-6.7,6.7-12.7,8.9-19C664.2,336.1,664.3,334.2,666.1,333.1z"/>
		<path class="st42" d="M984.1,340.1c-4.4,12.4-9.1,24.7-9,38.1c-18.3,0.6-36.7,0.4-55,0c-0.6-2.7,1.3-4.4,2.8-6
			c8-8.2,14.1-17.7,18.3-28.3c0.9-2.2,1.8-4.4,4.5-5c11.4-0.8,22.8-0.3,34.3-0.3C981.5,338.6,983,338.9,984.1,340.1z"/>
		<path class="st43" d="M1574.2,161.1c1.3-1,2.6-2,3.9-3c5.1-3.7,9-8.7,13.6-13.1c3-2.9,8.5-4,12.3-2.4c1.7,0.7,3.2,1.7,5,2.2
			c2.4,0.7,3,2.4,3.2,4.5c0.2,2.3-1,3.8-3.1,4.6c-1.1,0.4-2.2,0.8-3.3,1c-7.2,1.5-7.2,1.5-5.8,8.8c0.5,2.7-0.4,4-3.2,4.3
			c-2.6,0.2-4.9-1-7.3-1c-1.3,0-2.7-0.2-3.6,1.2c-0.8,1.4,0.7,2,1,3c1.2,3.9,4.7,5.7,7.4,8.3c4.2,4.1,4.4,6.3,0,9.8
			c-3.7,2.9-3.6,4.5,0.4,6.7c1.4,0.8,2.6,2.1,2.6,4c1.5,2.3-0.7,3.6-1.6,5.1c-1.5,2.3-3.1,4.6-4.6,6.9c-2.8,4.7-5.8,9.3-8.3,14.2
			c-3.1,6.2-4.7,12.7-5,19.6c-0.2,3-1,4.1-3.4,1.3C1574.2,218.4,1574.2,189.8,1574.2,161.1z"/>
		<path class="st44" d="M643.9,193.8c9.2-10.5,18.4-21,27.5-31.5c1.8-2.1,3.7-4.2,5.6-6.2c3.1,0.8,2.4,3.3,2.2,5.2
			c-1.6,12.7,0.5,25.2,1.1,37.8c0.2,4.5,0.9,9-1.1,13.2c-7,7.9-14,15.9-21,23.8c-2.5,0.2-2.9-2-3.5-3.5c-4.2-10.7-7.7-21.6-11-32.6
			C643,198,643,195.8,643.9,193.8z"/>
		<path class="st45" d="M1495.1,173.1c-3.2,2.1-3.5,5.9-5.4,8.7c-2.2,3.1-4.4,6.2-6.6,9.3c-0.9,1.6-2.4,2.4-4.1,2.2
			c-6.8-0.5-12,2.2-16.9,6.8c-3.6,3.3-6.3,2.6-9.7-1.2c-0.8-2.2-0.7-4.5-0.1-6.8c2.3-3.6,2.6-7.3,1.3-11.4c-2.8-9-3.8-18.4-4.7-27.8
			c-0.5-4.8,0.1-9.6,2.7-13.9c6.5-6.7,11.2-14.6,14.2-23.4c0.4-1.1,0.9-2.1,2.3-2.4c2.9,2.4,5.2,5.3,7.1,8.5c0.6,3.1-1.8,4.8-3.2,7
			c-4.2,7-9.3,13.4-10.9,21.7c-1.9,10.6,3.9,18.2,14.6,18.8c3.3,0.2,4.8-2,5.7-4.7c1.3-4,2.9-7.8,4.5-11.7c0.7-1.8,1.2-4,3.8-4
			C1492.2,157,1494.6,164.8,1495.1,173.1z"/>
		<path class="st46" d="M1468,113.4c-3.5,9.4-7.4,18.6-14.9,25.7c-3.3,2.4-5.4,5.8-7.5,9.2c-0.9,1.4-1.4,3.1-3.5,3.1
			c-3.6-2.5-5.3-6.7-8.5-9.6c-3.7-3.5-7.2-7.3-11.6-10c-1.5-0.9-3-2.1-3.4-4.1c1.9-5.3,2.7-11,4.7-16.2c3.2-8.2,9.7-12.8,17.2-16.4
			c1.3-0.6,2.6-0.6,3.9-0.1C1453.5,99.6,1461.2,105.9,1468,113.4z"/>
		<path class="st47" d="M1371.5,75c9.7-0.2,19.1,1.3,28.6,3.2c0.7,1.6-0.2,2.9-0.9,4.2c-5.9,9.7-9.2,20.1-8.2,31.6
			c0.1,1-0.2,2-1.1,2.6c-6.2,1.2-12.1-1.5-18.2-1.5c-2.1,0-4.3-0.5-6.4-1c-5.1-1.3-10.3-0.4-15.4-0.7c-5.3-0.3-6.5-1.6-4.5-6.4
			c3.4-8.7,7-17.2,9.2-26.3c1.1-4.3,3.6-6.9,8.6-6.1C1365.9,75,1368.7,74.2,1371.5,75z"/>
		<path class="st48" d="M361.2,259.1c1.6,8.3,6.8,14.9,10.9,21.9c6.9,11.6,12.2,23.7,15.1,37c1.4,6.6,3,13.2,6.7,19
			c-2.5,7.2-4.9,14.5-9,21c-3.7,1.8-5.9-0.3-7-3.2c-5.5-15-12.1-29.5-18.4-44.2c-1-2.4-1.4-5.1-0.6-7.8
			C360.8,288.3,361.8,273.8,361.2,259.1z"/>
		<path class="st49" d="M1390.1,116.2c-2.4-12.5,1.5-23.6,7.7-34.2c0.7-1.3,1.5-2.5,2.3-3.8c15.8,3,30.8,7.9,44.4,16.8
			c-12,3.9-19.9,11.5-22.1,24.2c-0.6,3.2-1.7,6-3.2,8.7c-1.4,0.9-2.6,0.2-3.7-0.5c-6.8-4-14.1-6.6-21.7-8.6
			C1392.3,118.4,1390.2,118.5,1390.1,116.2z"/>
		<path class="st50" d="M728.9,439.4c-8.4-6.7-16.9-13.2-24.8-20.5c-0.9-1.1-1.3-2.3-1.5-3.6c-2.4-15.9-8.8-30.6-13.3-45.8
			c-1.4-4.8-2.8-9.6-3.6-14.5c-0.3-1.5-1.4-3.7,1.6-4.1c12.8,10.1,25.3,20.7,37.7,31.4c0,0.5-0.1,1.1-0.5,1.3
			c-6.4,2.4-6.7,7.7-6.1,13.2c0.9,7.7,2.8,15,7.6,21.4c2.1,2.8,4.6,4.8,8.2,4.8c1.2,2.6,0.6,5.3,0.8,8
			C733.9,434.4,732.4,437.7,728.9,439.4z"/>
		<path class="st51" d="M148,161.1c-3.5-3.3-1.7-7.9-2.7-11.8c-3.1-11.3-6.8-22.4-10.8-33.4c-3.5-9.6-6.4-19.4-7.4-29.7
			c6.4-3.7,12.8-7.2,20-9.1c5,10.2,7.4,21.1,9.6,32.2c1.6,7.8,5,15,7.2,22.7C157.5,141.1,152.8,151.1,148,161.1z"/>
		<path class="st16" d="M315.1,386.1c8-8.8,15.8-17.9,22.2-28c2.6-1,3.2,1.2,3.9,2.6c6.2,11.4,11.2,23.3,16.2,35.3
			c0.8,1.8,0.6,3.5-0.1,5.3c-6.7,8.1-13.7,15.8-22.1,22.2c-0.7-0.3-1.4-0.6-1.9-1.2c-6.2-10.6-11.8-21.4-17.7-32.2
			C314.9,388.9,313.9,387.6,315.1,386.1z"/>
		<path class="st52" d="M1371.5,75c-2.3,0-4.7,0.1-7,0.1c-6.1,0-7.9,0.9-9.1,6.7c-1.8,8.9-5.4,17-8.8,25.3c-2,4.8-1.8,4.8,3.2,5.1
			c5.1,0.3,10.2-1,15.2,0.8c-1.3,1.6-3.2,1.7-5,1.7c-20.8,0.1-41.5,0.2-62.3-0.1c-0.7,0-1.3-0.2-1.9-0.3c-1.1-0.6-3.2-1.5-1-2.5
			c5.6-2.7,7.6-8,10.6-12.7c2.9-4.6,4.3-4.9,8.3-0.9c2.2,2.3,3.4,2.1,4.5-0.9c2.3-6.2,4.2-12.6,7-18.6c1.1-2.5,0-3.2-2.4-3.3
			c-3.3-0.2-6.7,0.8-9.7-1.1c-3.7-0.1-7.4-0.2-11.2-0.4c6.3-0.9,12.6-0.5,18.9-0.4c15,0.1,29.9,0.4,44.9,0.7
			C1367.6,74.3,1369.6,74.1,1371.5,75z"/>
		<path class="st53" d="M1071.1,378.2c8.1-22,22.6-40.6,32.8-61.6c0.9-1.8,2.1-3.4,2.2-5.5c4.9,10.9,9.7,21.8,13.9,33
			c-2.4,3.5-3.7,7.8-7,10.7c-7.8,3.1-11.3,9.5-13.6,17.1c-1.2,4.2-1,8.9-4.4,12.3c-1.9-4.5-5.4-6.1-10.2-5.9
			C1080.3,378.5,1075.7,378.2,1071.1,378.2z"/>
		<path class="st54" d="M541.9,450.1c-6.9-4.8-11.4-11.2-12.8-19.5c-0.2-1.1-0.1-2.3,0-3.5c0.4-7.8-0.7-9.7-8-6.5
			c-3.1,1.3-5.6,0-5.8-3.2c-1.1-13.5-5.1-26.3-11.4-38.1c-4-7.6-3.8-15.2-3.7-23.1c7.1,5.1,11,12.8,15.4,19.9
			c7.7,12.5,16.8,24,25.6,37.4c0-13.6,0-25.8,0-38.1c0-1.8-0.6-3.7,0.8-5.2C541.9,396.8,541.9,423.4,541.9,450.1z"/>
		<path class="st16" d="M240.9,165.2c2.1-0.5,1.7,1.4,2.1,2.4c5.2,10.8,9.9,21.8,17,31.6c1.1,0.5,1.8,1.5,2.2,2.6
			c2.5,6.8,5.1,13.5,7.1,20.5c0.3,1,0.3,1.9-0.1,2.9c-1.6,10.4-7.3,18.2-15.8,24.3c-1.5,0.5-2.1-0.6-2.6-1.6
			c-6.9-14.3-11.1-29.5-13.9-45.1c-0.1-0.8-0.1-1.7,0.2-2.5C241.8,188.8,242.7,177.2,240.9,165.2z"/>
		<path class="st5" d="M254.9,127.1c-1.5,1-0.5,2.9-1.4,4.4c-3.4-2.4-6.8-4.6-10.4-6.5c-3-1.6-4.5-4.1-5.4-7.8
			c-2.8-12.2-7-24.1-8.7-36.6c-0.2-1.2-1.5-2.4,0.1-3.6c6.1,4.8,12.1,3.8,18.5,0.3c2.2-1.2,4.7-2.5,7.4-2.5c1.9,1.7,1.8,4.2,2.2,6.4
			c2.1,10.2,3.7,20.5,6.3,30.6c1.4,5.2,3.1,9.6,8.7,11.3c-3.8,1.4-7.8,0.6-11.7,1.4C258.5,125,256.3,125.2,254.9,127.1z"/>
		<path class="st55" d="M74,399.9c0.2-3.9-0.7-7.5-2.5-10.9c-4.4-8.3-8.8-16.6-13.4-24.7c-3.4-5.9-3.7-11.5,0-17.2
			c0.4-0.3,0.9-0.3,1.3,0c1.6,2,1.8,4.6,3.1,6.7c1,1.6,2.2,2.9,4.3,2.8c2.3-0.2,3.2-1.8,3.4-3.7c0.8-7.4,5.9-12.4,9.8-18.1
			c2.5-0.2,5.3-1.6,7.1,1.6c3.1,9.4,2.9,19.3,4.2,28.9c0.6,4.2,2.3,8.3,1.7,12.7C87.4,385.9,81.7,393.8,74,399.9z"/>
		<path class="st56" d="M1037.8,149.1c3.9,9.3,7.7,18.6,11.6,27.8c-7.6,12.8-14.2,26-19.9,39.7c-0.8,1.9-1.6,4.9-5,2.9
			c-4.9-8.3-8.4-17.2-11.6-26.2c-0.1-1.5,0.1-3,0.9-4.3c5.5-10.2,9.2-21.3,15.2-31.2C1031.2,154.2,1032.9,149.9,1037.8,149.1z"/>
		<path class="st57" d="M17.1,361.1c2.4,2.5,4.6,5.2,7.1,7.6c4.4,4.3,9.7,5.2,15.6,3.6c6.6-1.8,11.6,0.1,15.3,6
			c5.2,8.3,10,16.8,13,26.2c-1.4,1.6-3.3,2.4-5.2,3.3c-12-1.5-22.8-6.2-33-12.6c-8.4-11.3-14.6-23.7-19.2-37
			C14.4,355.8,15.4,359.4,17.1,361.1z"/>
		<path class="st14" d="M273.1,73c5-0.3,9.5,1.4,14,3.1c7,2.6,13.9,5.5,20.9,8c3.9,1.4,5.2,3.1,3.1,7.3c-4.3,8.3-8,16.8-15.3,23
			c-4,3.4-8.5,5.8-13.6,7c-3.7-6.3-3.9-13.5-5.1-20.4c-1.3-7.3-2.6-14.6-4.2-21.8C272.4,77.1,271.5,75,273.1,73z"/>
		<path class="st58" d="M679.2,212.4c-0.7-14.1-1.5-28.2-2.1-42.3c-0.1-3.1-0.2-6.3,0.8-9.4c0.4-1.5,0.7-3.3-0.8-4.6
			c10-11.3,20.1-22.6,30.1-33.8c5.1,2,9.1,4.9,9.6,11c-1.2,2.7-1.3,5.7-2.6,8.4c-0.7,1.4-0.7,2.9-0.7,4.4c0.2,3.2,1,6.3-3,8.4
			c-3.9,2.1-7.5,2.6-11.2,0.4c-3.5-2.1-5.9-1.7-7.3,2.3c-3.2,14.5-6,29.2-6.4,44.1c-0.1,2-0.6,3.9-1.5,5.7
			C682.5,208.8,680.8,210.6,679.2,212.4z"/>
		<path class="st59" d="M1249.1,464.1c0.1-21,0.1-42,0.2-63c2-2.8,4.9-4.4,7.8-6c3.8-2.6,5.9-6.6,8.7-10.1c0.6-0.7,1.3-1.7,2.4-1.4
			c1,0.2,1,1.3,0.9,2.1c-0.9,8.5,1.8,16.7,2.1,25.1c0.3,10.7-1.8,20-9.9,27.9c-7.5,7.3-7.8,17.5-8.1,27.3
			C1251.3,466.3,1249.7,466.2,1249.1,464.1z"/>
		<path class="st60" d="M1095,384.2c1.4-5.2,2.4-10.6,4.2-15.7c2.4-6.8,5.8-13,13.9-14.5c3.9,1.5,4.4,5.2,5.2,8.5
			c2.8,11.1,3,22.4,1.7,33.6c-0.5,4.7,0.6,9.8-2.9,13.9c-3.7,2.8-3.3,8.1-6.8,11C1104.9,408.9,1099.4,396.8,1095,384.2z"/>
		<path class="st51" d="M128.1,251.1c-0.2-4-1.1-7.8-2.3-11.6c-0.5-1.6-0.9-3.2-0.3-4.8c1.3-3.5,2.7-3.8,5.6-1.3
			c3.9,3.4,5.9,7.8,7.6,12.6c3.1,8.8,8.5,15.5,17.5,18.9c0.6,0.2,1.3,0.1,2,0.2c3.7,7.4,8.9,13.8,14.2,20.5
			c-7.4,3.9-13.6,8.9-20,13.8c-3.3-1.4-4.9-4.6-6.2-7.5c-2.4-5.4-5-10.7-6.6-16.6c-2.1-7.8-6-14.7-11.4-20.7
			C127.3,253.5,127,252.3,128.1,251.1z"/>
		<path class="st61" d="M728.9,439.4c1.7-2.8,3.5-5.5,5.2-8.3c5.2-4.9,8.2-10.9,8-18.2c0.1-0.5,0.3-0.9,0.6-1.3
			c1.5-2,3.3-3.7,5.2-5.4c1.2-1.1,2.5-2.3,4.4-1.2c5.6,4.7,11.2,9.4,16.8,14.1c1.3,1.7,0.2,3.2-0.6,4.5c-5.9,9.4-11.9,18.7-18,28
			c-0.8,1.3-1.5,3.1-3.7,2.6C740.6,449.6,734.5,444.8,728.9,439.4z"/>
		<path class="st62" d="M652,243.1c-5,5.7-10,11.3-15,17c-3.1,1.4-4.1-1.2-5.3-3c-5.5-7.7-6.7-16.8-7.8-25.8
			c-0.5-4.5-3.2-8.9-0.9-13.6c3.8-5.4,8.5-10.1,13-15C643.5,215.3,651.2,227.8,652,243.1z"/>
		<path class="st63" d="M1489.8,149.2c-3.6,4.3-4.9,9.7-6.6,14.8c-2.2,6.9-4.4,7.6-11.3,5.8c-15.1-4.1-14.4-15.4-9.9-26.2
			c3.2-7.8,8.6-14.5,13.2-21.6C1482,129.9,1486.2,139.4,1489.8,149.2z"/>
		<path class="st64" d="M86.1,336.1c-1.8-1.6-4.3,1-6-1c-0.9-0.5-1.6-1.3-1.7-2.3c-0.5-4.5-2.9-7.7-6.2-10.7
			c-3.4-3.1-2.9-7.7-2.5-12c1.3-1.6,3-2.1,4.9-2c5.8,2.3,8.9,7.7,13.2,11.6c0.6,0.6,1,1.3,1.5,1.9c2.3,2.4,4,6.5,8,5.6
			c3.8-0.9,5.3-4.6,6.6-8.1c0.3-0.8,0.5-1.6,1.2-2.1c2.8,7.9,6.5,15.5,10.4,22.9c0.6,1,1.1,2.1,2.5,2.1c-4.8,7.2-9.3,14.6-14.7,21.3
			c-2.3-0.8-2.8-3.1-3.8-4.9C95.3,350.8,91.6,342.9,86.1,336.1z"/>
		<path class="st65" d="M984,113.9c2,8.5,1.5,17.1,0.1,25.6c-2.4,14.7-6.7,28.8-15.7,40.9c-7.3,9.8-15.3,19.1-24.2,27.6
			c5.3-12.8,10.6-25.7,16-38.5c7.4-17.7,14.9-35.4,22.4-53.1C983,115.6,983.6,114.8,984,113.9z"/>
		<path class="st66" d="M1395.1,271.9c-0.5,13.4-1.2,26.8,0,40.2c-10.2,2.5-20.5,3-31,2.8c7.5,0.2,8.2-4.9,9.3-10.7
			c1-5.2-0.7-9.6-2.3-13.9c-1.7-4.7-2.1-9.3-2-14.1c0.4-0.6,0.8-1.2,1.4-1.3c7.7-1.6,15.4-3.3,23.2-3.7
			C1394.3,271.2,1394.7,271.6,1395.1,271.9z"/>
		<path class="st67" d="M616.1,346.1c1.1-5.5-1.2-10.6-2-15.8c-2.5-14.9-5.3-29.8-7.8-44.7c-0.9-5.4-3.6-9.5-8.1-12.5
			c-3.2-1.8-2.1-5-2.4-7.7c0.2-4.8,3.7-8.9,3.5-13.8c0-1,0.8-1.9,2-1.8c1.4,0.1,1.8,1.3,2.2,2.4c2.5,6.5,5.3,12.9,7.3,19.6
			c1.3,4.4,3.1,8.7,4.1,13.3c-3,3.4,0.2,5.1,2,7.1c4.8,11.9,6.8,24.5,9.4,37c1.3,6.3,2.7,12.7,2.1,19.2c-0.2,2.3,0.2,4.8-2.5,6
			C622.6,351.7,619,349.3,616.1,346.1z"/>
		<path class="st68" d="M273.1,73c3.6,14.5,5.4,29.4,8.5,44c0.3,1.4,0.4,2.9,0.6,4.4c-3.2,1.4-6.5,2-9.9,1.8
			c-4.5,0.5-7.3-1.1-8.6-5.8c-4-14-6.6-28.2-8.7-42.5C260.9,72.7,266.9,71.7,273.1,73z"/>
		<path class="st69" d="M858,412c3.8,8,8.1,15.9,8.1,25.1c0.5,0.7,0.8,1.5,0.7,2.4c-1.1,8.9-2.4,17.8-4.7,26.5
			c-7.3,0.1-14.6,0.1-21.9,0.3c-3.6,0.1-5-0.8-3.3-4.6c5.7-13.2,11.1-26.5,16.8-39.7C855.1,418.6,855.8,415,858,412z"/>
		<path class="st70" d="M403.9,243.1c-4.3-3.2-6.7-7.9-8.5-12.7c-5.5-14.3-10.6-28.7-22.3-39.4c-3.2-6.1-3-12.9-4.4-19.4
			c-2.1-9.2-1.1-19.5-9.7-26.2c-0.8-1.3-1.1-2.6,0.3-3.8c1.9-0.3,2.6,1.3,3.4,2.4c22.1,29.2,36.6,61.5,41.3,98
			C404,242.5,403.9,242.8,403.9,243.1z"/>
		<path class="st71" d="M751.9,130c-3.7,4.6-7.5,9.1-11.8,13.2c-3.1-4.3-2.9-9.5-3.7-14.3c-2.1-11.6-3.7-23.4-2.2-35.3
			c0.1-1,0.4-2,0.8-2.9c4.6-5.4,9.1-10.9,13.9-16.1c4-4.2,5.8,0.1,8.1,2.4c-2.2,9.2-5,18.2-5,27.7C752,113.2,751.5,121.6,751.9,130z
			"/>
		<path class="st72" d="M357.3,401.3c-0.3-5.3-3.3-9.6-5.2-14.4c-3.5-9.1-7.9-17.9-12.4-26.6c-0.5-1-1-2.1-2.4-2.3
			c6.3-10.2,11.3-21.1,15.6-32.3c0.9,0.6,1.4,1.6,1.3,2.5c-0.3,4.9,2.3,8.4,5.2,11.9c1.6,1.9,3.2,3.9,2.1,6.7
			c-4.3,5.7-3.5,12.2-2.4,18.5c1.1,6.4,4,12.3,6.1,18.4c0.6,1.8,1.7,3.6,1,5.7C363.9,393.9,360.5,397.5,357.3,401.3z"/>
		<path class="st73" d="M1117.1,410.1c1.5-11.1,2.7-22.2,1.9-33.4c-0.5-7.8-1.3-15.7-5.9-22.6c2.1-3.4,2.8-7.9,6.9-10
			c6.2,13.1,11.6,26.6,17,40c-1,8.7-3.7,17-5.4,25.5c-0.3,1.4-0.8,2.9-2.5,3.4C1124.6,414,1120.9,411.9,1117.1,410.1z"/>
		<path class="st74" d="M163.9,132.1c-1.7-1-2.2-2.8-2.8-4.5c-4.1-11-6.8-22.3-9.1-33.8c-0.8-4-2.3-7.9-4.3-11.6
			c-0.9-1.6-2-3.1-0.6-5c5.8-2.5,11.7-4.5,18-5.2c0.7,12.8,3.7,25.2,6.4,37.6c0.9,3.9-0.3,8.5,3.5,11.5
			C171.3,124.7,167.6,128.4,163.9,132.1z"/>
		<path class="st75" d="M687.4,351c-2.1,3.7,0.3,7.1,1.1,10.3c3.2,11.6,7.2,23,10.9,34.5c2.4,7.6,4.5,15.2,4.8,23.2
			c-7.4-5.5-14.4-11.4-21.2-17.5c-3.1-10.9-5.5-21.9-5.9-33.3c3.8-7.3,2.7-15.3,3.2-23.1C682.9,346.6,685.2,348.7,687.4,351z"/>
		<path class="st76" d="M1595.1,312.1c0.5,4.2-2.5,7.1-4.3,10.3c-5.5,9.7-10,19.7-13.8,30.2c-1.2,3.4-0.3,7.4-2.8,10.4
			c0-14,0-28,0-42c2.6-11.1,7.5-21.3,12.8-31.3c1-1.9,2.4-3.7,5.1-2.7c5.4,4.3,6.3,7.7,4.2,14.8
			C1595.4,305.2,1593.8,308.5,1595.1,312.1z"/>
		<path class="st77" d="M734.1,423.1c-1.2,1.2-2,2.1-4,0.7c-6.9-4.8-9.7-11.9-11.7-19.5c-0.9-3.2-1.3-6.4-1.3-9.8
			c0.1-8.6,0.2-8.9,8-12.2c7,5.9,14.1,11.7,21.1,17.6c0.8,4.5-0.8,8.4-3,12.1l0,0C740.3,416,737.6,419.8,734.1,423.1z"/>
		<path class="st78" d="M622.9,217.7c2,10.6,2.5,21.4,6.2,31.6c1.5,4.2,2.8,9,7.9,10.8c-6.9,7.8-13.8,15.6-20.7,23.4
			c-3.8-4.2-4.1-9.5-3.5-14.5c1.2-11,0.6-21.9,0.8-32.9c0-3,0.1-6,0.8-8.9C617,223.8,619.6,220.4,622.9,217.7z"/>
		<path class="st79" d="M1479.1,231.1c4.4-11.1,7.4-22.7,13.1-33.2c3-5.5,4.3-10.9,4-17c1.8,11.1,1.3,22.1-0.2,33.1
			c-2.5,18.2-7.4,35.6-18,51c-4.2-2.4-5.9-6.6-7.5-10.8c-0.7-1.8-0.4-4.1,0.9-5.2C1476.9,244.2,1477.5,237.5,1479.1,231.1z"/>
		<path class="st22" d="M499.2,121.1c3.1,2.7,3.3,6.8,4.8,10.2c4.5,10.6,9.8,21,12.4,32.4c1.4,6.1,2.5,12.3,3.7,18.4
			c-4.9-0.5-10-0.1-14.7-1.8c-3-1.1-3.8-0.2-3.8,2.8c0.1,9.8,0.1,19.6,0,29.5c0,2.3,0.4,4.7-1.4,6.6c-0.3,0-0.6,0-0.8,0
			C499.2,186.4,499.2,153.8,499.2,121.1z"/>
		<path class="st80" d="M168.9,339.7c5.9-8.7,13.2-16.2,20.9-23.3c2.2-2.1,4.2-2.1,6.4,0.3c4.1,4.6,5,8.4,2.1,13.6
			c-6.3,11.1-13,22-21.1,31.9c-1.8,0.4-2.4-1-2.8-2.2c-1.8-5.7-3.7-11.3-5.7-16.9C168.2,341.9,168.6,340.8,168.9,339.7z"/>
		<path class="st81" d="M1129.1,413.1c2-8.2,4.1-16.3,5.9-24.5c0.4-1.7,0.7-3.2,1.9-4.5c6.4,15.2,12.8,30.5,19.3,45.7
			c-4.9,8.9-14.5,6.4-19.6,0.2c-3.4-4.1-5.9-8.7-6.6-14.1C1129.9,414.9,1129.4,414,1129.1,413.1z"/>
		<path class="st82" d="M938,222.8c1,3.4,2.5,2.6,3.9,0.4c0.6-1-0.1-3,1.9-2.9c1.9,0.1,2.9,1.6,3.5,3.2c2.5,6.1,2.8,12.1-0.4,18.2
			c-2.4,4.5-4.6,9.2-4.8,14.5c0,2.4-1.8,3.1-3.7,3.3c-7.1,1-11.1,6-14.8,11.4c-2.4,3.6-4.9,7.1-9.5,8.2
			C922.1,260.3,930.1,241.6,938,222.8z"/>
		<path class="st83" d="M746.8,454.3c8.1-11.3,16-22.7,22.3-35.2c4,2.7,7.5,5.8,11,9.1c1.5,1.9,0.8,3.7,0.1,5.6
			c-3.7,10.1-8.9,19.3-15.1,28c-1.2,1.7-2.3,3.8-5,3.3C755.2,462,751,458.1,746.8,454.3z"/>
		<path class="st44" d="M751.9,130c-2.4-5.2-1.9-10.5-1.4-16c0.5-4.3,0.4-8.8,0.4-13.1c0-7.8,2.9-14.9,4.3-22.4c0.2-1,1-1.2,1.8-1.4
			c4.2,3.8,9.3,6.7,12.1,12c2.4,6.7,2.4,13.4,0,20.1c-0.5,3.7-3.5,5.5-5.6,8C759.8,121.5,755.8,125.7,751.9,130z"/>
		<path class="st84" d="M760,465.2c6.7-5.4,10.1-13.1,13.9-20.3c2.8-5.2,5.8-10.5,6.1-16.6c5.8,4.7,11.6,9.4,17.5,14.1
			c2.5,2,2.6,4-0.1,6c-8.6,6.6-16.9,13.4-25.1,20.5C768.1,472.4,766.1,471.6,760,465.2z"/>
		<path class="st85" d="M944.1,340c-4.5,12.3-10.9,23.6-20.3,32.9c-1.5,1.5-2.5,3.4-3.7,5.2c-4.4,0.5-6.6,2.9-8.3,7.1
			c-7.3,18.1-15.2,35.9-22.9,53.8c-2.1-4.2,0.1-8.1,0.8-12c3.4-17.7,12.4-32.9,21.7-48c6.8-11,14.4-21.5,20.2-33.1
			c1-1.9,2.3-3.7,2.5-5.9C937.4,338,940.8,338,944.1,340z"/>
		<path class="st86" d="M315.1,386.1c5.5,10.2,10.9,20.5,16.5,30.7c1,1.7,1.5,3.6,2.5,5.3c-0.9,1.1-2.3,1.4-3.6,1.3
			c-6.5-0.4-13.1-0.2-19.4-2.3c-1.9-8.4-9.3-12.7-14.1-19C303.1,396.7,309.1,391.4,315.1,386.1z"/>
		<path class="st87" d="M361.1,347.1c0.1-2.7-1.1-4.8-3.1-6.5c-4.5-4-5.5-9.1-5.1-14.8c2-7.6,4-15.3,6-22.9
			c0.1,5.9,3.3,10.7,5.5,15.8c4.9,11.2,9.9,22.4,13.9,34c1.2,3.4,2.9,5.5,6.6,5.4c-0.6,2.5-1.8,4.8-3.2,6.9c-3-0.9-1.7-6.1-5.8-5.8
			c-5.6-2.8-10.1-7.1-15.1-10.8C360.7,348,360.8,347.5,361.1,347.1z"/>
		<path class="st4" d="M152.9,444.7c7.6-12.2,17.7-22.4,27-33.2c1.8-2.1,3.7-4.2,6.2-7c0.1,9.1-1.9,16.6-6,23.4
			c-7.7,12.9-18.3,23.6-28.3,34.7c-2.7,3-5.5,1.8-6.8-2.6c3.6-1.6,5.4-4.6,5.7-8.4C150.8,449.1,152.2,447,152.9,444.7z"/>
		<path class="st88" d="M237.1,200.1c3.2,11,5.1,22.3,9.1,33c2.1,5.6,3.8,11.3,7.2,16.2c-4.3,3.6-9,5-14.4,2.8
			c-1.4-1.4-1.6-3.3-1.8-5c-1.1-10.3-6.2-18.6-12.6-26.3c-0.9-1.5-1.8-3-1.8-4.8C228.8,211.7,233.3,206.2,237.1,200.1z"/>
		<path class="st89" d="M614.4,227.2c1.2,1.5,0.7,3.2,0.7,4.8c-0.4,12.1,1,24.2-0.9,36.3c-0.8,5.2,1.3,10.1,2.1,15.2
			c-0.2,0.8-0.6,1.3-1.4,1.6c-1.9-1.1-2.4-3.1-2.9-5c-2.8-10.1-6.8-19.7-11.1-29.5c0.6,5.4-3.2,9.5-3.8,14.6
			c-1.6,0.2-1.9-1.1-2.1-2.1c-0.7-4-2.1-7.8-2-11.9C600.1,243.1,607.3,235.1,614.4,227.2z"/>
		<path class="st90" d="M626,354.3c2.1-5,1.7-10.3,0.8-15.2c-2.7-15.2-5.7-30.4-10.3-45.2c-0.2-0.7-0.1-1.3,0.4-1.8
			c3.3,2.4,6.5,4.8,9.2,7.8c1.1,12.9,4.4,25.4,7.7,37.8c2.1,7.9,5,15.4,7.9,23c0.9,2.3,2.5,4.7,1,7.5
			C637.2,363.6,631.6,359,626,354.3z"/>
		<path class="st91" d="M361.1,347.1c0,0.3,0,0.7,0,1c0.5,0.7,1.1,1.3,1.3,2.1c2.2,6.8,8,7.2,13.7,7.9c5.6-0.8,4,4.4,5.7,6.9
			c-4.5,8.6-9.3,17-15.5,24.5c-4-10.5-9.6-20.5-9.1-32.2c0.1-3,0.6-5.9,1.1-8.8C358.5,346.6,359.6,346.3,361.1,347.1z"/>
		<path class="st51" d="M121.1,179.1c0-1.6,0.2-3.1,2.3-3c5.9,0.4,11.6,1.9,17.2,3.7c0.3,0.1,0.3,0.9,0.5,1.4
			c-3.2,15.3-2.7,30.5,1,45.7c-1.3,0.7-1.4,0.7-1.9-0.5c-5.1-10.1-10.2-20.1-14.2-30.7C124.1,190.3,122.5,184.7,121.1,179.1z"/>
		<path class="st32" d="M1025.2,219.1c3.1,1.1,2.8-1.8,3.3-3.1c4.9-12,10.5-23.6,17-34.8c1-1.7,1.9-3.5,3.9-4.3
			c1.7,2.8,2.8,5.9,3.7,9c-2.2,10.4-8.1,19-13.1,28.1c-2.8,5-5.8,10-7.1,15.7c-0.3,1.3-1.1,2-2.2,2.4
			C1026.7,228.8,1024.6,224.6,1025.2,219.1z"/>
		<path class="st92" d="M666.1,333.1c-1.4,8.5-6.4,15.6-9.3,23.4c-0.3,0.9-1.1,1.9-2.1,1.9c-1.5-0.1-1.4-1.5-1.5-2.7
			c-2.4-14.7-8.4-28.1-14.3-41.5c-0.6-1.3-2.6-2.5-0.5-4.2C647.6,317.7,656.8,325.4,666.1,333.1z"/>
		<path class="st93" d="M713.1,141.1c1.7-2.4,0.3-6,3-8c0.5-4.2,3.9-6.3,6.4-9c0.8-0.8,1.8-1.7,3-1.3c1.6,0.5,1.6,2,1.4,3.3
			c-0.6,5.8-0.3,11.6-0.3,17.4c0,3.3-0.1,6.6,0.6,9.9c0.4,2,0.1,4-1,5.7c-5.4,6.6-11,13.1-17,19.2c-1.9-1.8-1.4-4-0.9-6
			c1.9-6.7,2.3-13.7,4.9-20.1c0.9-2.1-1.1-3.7-0.7-5.8C712.9,144.7,712.2,142.8,713.1,141.1z"/>
		<path class="st71" d="M726.1,159.2c-1.3-11.8-1.5-23.6-0.4-36.4c-3.4,3.9-7.1,6.5-9.7,10.2c-0.7-5.5-5.8-7.4-8.9-10.8
			c1.8-2.1,3.7-4.2,5.5-6.3c10.6-4.1,20.1,1.3,21.7,12.4c0.9,6.2,1.7,12.5,2.5,18.7C733.3,151.1,729.7,155.2,726.1,159.2z"/>
		<path class="st94" d="M269.2,225c-3.1-8.6-6.1-17.3-9.2-25.9c-0.4-11.7-3.5-23-5.3-34.5c-0.4-2.8-0.9-5.5-1.5-8.2
			c-0.5-2.8,0.6-3.8,3.3-2.9c1.2,0.4,2.3,1.9,2.7-0.6c5.7,22,11,44,10.7,66.9C270,221.5,270.2,223.4,269.2,225z"/>
		<path class="st75" d="M684.1,207c-0.4-17,2.8-33.6,6.4-50.1c0.1-0.3,0.4-0.5,0.6-0.7c2.3,0.5,3,2.5,3.7,4.3
			c3.2,8.1,5.9,16.4,8.4,24.8C696.8,192.4,690.4,199.7,684.1,207z"/>
		<path class="st44" d="M736.8,147.1c-3-2.5-2-6.2-2.6-9.4c-0.7-3.5-0.6-7.2-1.3-10.7c-1.4-7.2-6.2-10.8-13.8-10.9
			c-2.1,0-4.3-0.1-6.4-0.1c7.3-8.6,14.5-17.1,22.3-25.2c0.8,3.4,0.5,6.7,0.3,10.2c-0.6,9.3,1.2,18.4,2.6,27.6
			c0.7,4.9,2.2,9.7,2.3,14.7C739,144.5,737.9,145.8,736.8,147.1z"/>
		<path class="st95" d="M571.2,276.1c3.5,4.6,2.6,10.5,2.5,15.3c-0.2,10.7,4.6,18.6,10.6,26.4c0.8,1.1,1.8,1.9,1.7,3.4
			c-4.6-1.4-5.3,3.3-7.9,5c-3.9-3.5-4.4-8.8-6.8-13c-1.2-2.2-2-4.5-5.2-4.5c-1.6,0-2.8-1.4-3-2.9c-0.5-5.3-3.5-9.5-6.2-13.7
			C561.5,286.6,566,281.1,571.2,276.1z"/>
		<path class="st86" d="M225.1,220.1c7,6.3,11,14.3,12.9,23.3c0.6,2.8,1.7,5.7,1.1,8.7c-7.5-1.7-13-6.5-18-11.8
			c-4.2-4.4-7.8-9.5-11.8-14.1c-2.1-2.4-1.8-3.5,1.4-4.3c2.5-0.6,4.9-1.9,7.4-2.8c0.4,0.2,0.8,0.6,1.1,1c1.1,1.4,1.1,4.1,3.1,4.1
			C224.7,224.3,223.4,221,225.1,220.1z"/>
		<path class="st80" d="M156.1,309.2c4.3-5.7,9.4-10.6,14.9-15.1c2.7-1.3,4.2,0.6,5,2.5c2,4.6,3.8,9.4,3.1,14.6
			c-5.1,5.6-10.1,11.3-15.2,16.9c-0.2,0-0.4,0.1-0.5,0.1C158.6,325.5,154.3,314.5,156.1,309.2z"/>
		<path class="st96" d="M703.2,185.2c-2.4-1-2.3-3.5-3-5.4c-3-7.9-4.6-16.3-9.1-23.6c2.4-5.4,3.1-5.6,7.9-2.7
			c4.5,2.8,9.4,2.2,13.2-1.4c1-1,0.3-1.8,0.2-2.7c-0.1-2.7-1.1-5.6,0.7-8.2c1.6,10.9-0.6,21.5-3.5,31.9c-0.5,1.8-0.5,3.6-0.4,5.4
			C707.2,180.6,705.2,182.9,703.2,185.2z"/>
		<path class="st4" d="M168.1,385c2.8-4.2,6.2-7.8,9.9-11.1c3.2,6,4.3,12.5,3.8,19.2c-7,9.2-14.7,17.9-22.6,26.4
			c-1.3-1.1-1.4-2.6-1.1-4.1C160,404.8,161.7,394.1,168.1,385z"/>
		<path class="st97" d="M1037.8,149.1c-7.1,5.1-9.9,13.2-13.6,20.5c-3.1,6.2-5.4,12.8-8.8,18.8c-0.8,1.5-1.5,3-1.4,4.7
			c-3.9-2.3-4.6-5.9-4.2-10c3-7.1,6.2-14.1,9.1-21.3c3.1-7.7,7.8-14.5,11.2-22c0.5-1.1,1.5-1.8,2.7-1.8
			C1034.6,141.8,1036.2,145.5,1037.8,149.1z"/>
		<path class="st98" d="M1479.1,231.1c0.5,6.9-0.4,13.3-6.4,17.9c-2.1,1.6-1.7,3.6-0.8,5.8c1.5,3.8,4.5,6.6,6.2,10.2
			c-6,9.5-13.7,17.5-23,23.8c2.7-11.7,7.2-22.7,12.8-33.2c1.5-2.8,2.5-5.7,2.3-9c-0.3-5.3,1.8-9.6,6.2-12.8
			C1477.4,233.2,1478.2,232,1479.1,231.1z"/>
		<path class="st85" d="M862.1,466c-1.2-5.1,1-9.9,1.6-14.9c0.6-4.7,1.6-9.3,2.4-14c3.2,1.8,5.7,4.1,7.4,7.5c2.7,5.6,7.3,4.8,12,2.6
			c-1.9,4.8-3.8,9.5-5.7,14.3c-1.3,3.2-3.6,5-7.3,4.8C869.1,466.1,865.6,466.1,862.1,466z"/>
		<path class="st64" d="M131.1,372.1c-4.2,6.7-8.8,13.1-13.9,19.1c-3.4-4.3-6.2-9-8.1-14.1c4.7-7,9.4-14,14-21
			C127.6,360.5,129.9,366.1,131.1,372.1z"/>
		<path class="st4" d="M129.1,254.1c6.3,7,9.9,15.2,12.6,24.3c2.2,7.5,5.6,14.8,10.6,21.1c-2.4,2.5-4.9,5.1-7.3,7.6
			c-3.1-2.8-2.1-7-3.5-10.5c-3.1-7.6-6.5-15.1-10.3-22.5c-1.9-4.6-2.3-9.6-3.2-14.4C127.6,257.8,127.5,255.7,129.1,254.1z"/>
		<path class="st80" d="M277,415.8c7.4,6.5,7.2,14.4,4.5,23c-0.9,2.9-0.4,6.2-0.6,10.4c-8.3-8.1-12.5-17.5-15.9-27.4
			C269,419.8,273,417.8,277,415.8z"/>
		<path class="st99" d="M652,243.1c-2.7-10.2-5.9-20.3-11.2-29.5c-2-3.5-3.9-6.9-4.9-10.8c2.7-3,5.3-6,8-8.9
			c2.1,12.6,7.2,24.3,11.2,36.3c0.7,2.1,0.9,4.6,3,6.1C656.2,238.5,654.1,240.8,652,243.1z"/>
		<path class="st4" d="M156.1,309.2c0.7,7.1,3.1,13.5,7.8,18.9c-3,3.7-6.1,7.3-9.1,11c-5.9,0.4-12.5-5.8-12.8-12
			C146.2,320.7,150.7,314.6,156.1,309.2z"/>
		<path class="st19" d="M142.1,327.1c2.1,6.3,7,9.6,12.8,12c-5.2,6.8-10.4,13.6-15.6,20.4c-4.4-5-5-11.5-7.1-17.3
			C135,336.8,138.4,331.8,142.1,327.1z"/>
		<path class="st20" d="M556.9,292c4.7,2.5,6.4,6.9,7.1,11.8c0.3,2.6,0.6,4.7,4.1,3.4c1.3-0.5,2.3,0.4,2.8,1.5
			c2.4,5.8,4.9,11.6,7.3,17.3c-3.3,3.8-6.6,7.5-9.9,11.3c-2.7-8.4-4.8-16.9-4.2-25.9c0.1-0.8,0.2-2-0.2-2.4c-4.5-4.1-6-9.9-8.7-15
			C555.5,293.2,556,292.4,556.9,292z"/>
		<path class="st64" d="M122.2,401.1c4.6-5.8,9.1-11.6,13.7-17.4c4.7,4.8,6.9,10.8,8.1,17.3c-4.2,4.8-8.9,9.1-13.8,13.1
			C127.1,410.1,124.1,406,122.2,401.1z"/>
		<path class="st19" d="M158,386c-1.2,2.1-2.8,3.9-4.7,5.3c-4.4-5.4-6.2-12.1-9.2-18.3c5.5-8.4,11.5-16.4,17.9-24.2
			c1.7,1.4,1.8,3.4,2.2,5.3c0,0.3,0.1,0.7,0,1C159,364.8,159.6,375.7,158,386z"/>
		<path class="st100" d="M86.1,336.1c5.4,2.4,6.7,8,9.5,12.3c2.9,4.8,5.2,10,7.7,15c-2.8,5.3-6.6,9.9-10.2,14.7
			c-3-5.7-3.1-12-3.8-18.1C88.4,352,87.6,344,86.1,336.1z"/>
		<path class="st101" d="M677.1,368.1c2.7,11,5.1,22,5.9,33.3c-6.2-4.7-12.4-9.5-18-15C665.6,378,671.3,373,677.1,368.1z"/>
		<path class="st102" d="M1592.1,287.1c-2.8,0.2-3.6,2.5-4.8,4.5c-5.3,9.4-8.3,19.8-13.1,29.5c0-14.3,0-28.6,0-42.9
			C1578.9,283.7,1585.1,286.2,1592.1,287.1z"/>
		<path class="st103" d="M1261.1,466c3.3-1.8,6.8-0.7,10.2-0.8c2.7-0.1,4.5-0.6,6-3.2c2.3-4,5.8-7.1,10.5-7.7
			c3.1-0.4,3.3-1.9,3.3-4.3c-0.1-13.3,0-26.6,0-39.9c0-18-0.1-35.9-0.2-53.9c0.1-11.3,0.1-22.6,0.2-33.9c0-1.7-0.7-3.7,1-5.2
			c-0.2,2.5-0.4,5-0.4,7.5c0.1,44.6,0.2,89.2,0.3,133.8c0,7.5-0.6,8.1-7.9,7.9C1276.4,466.1,1268.8,466.1,1261.1,466z"/>
		<path class="st35" d="M593,251.1c2.5,3.2,2.2,7.3,3,11c0.2,1.1-0.1,2.3,1,3.1c0.2,2.7-0.5,5.5,1,8c0,0.8,0.2,1.8-0.1,2.5
			c-0.8,1.7,0,4.5-2.1,5.2c-2.2,0.7-3.2-1.9-4.7-3.1c-2.9-2.5-5.7-5-8.6-7.6c-1.2-1.1-2.6-2.2-2.6-4.1
			C584.4,261,588.7,256,593,251.1z"/>
		<path class="st36" d="M168.1,385c-3.5,9.5-6.9,19-8.5,29c-0.3,1.8-0.4,3.6-0.4,5.4c-1.3,2.2-3,4.1-5,5.7c-0.9,0.3-1.6,0.1-2.3-0.5
			c-2.7-2.3-5-11.7-3.8-15.4C154.5,400.9,160.8,392.5,168.1,385z"/>
		<path class="st104" d="M17.1,330.1c-0.6,4.9,1.3,9.5,2.4,14.1c0.8,3.5,0.1,6.5-0.5,9.7c-0.2,1.1-0.5,2.6-1.8,2.7
			c-1.4,0.1-0.8-2-2.1-2.4c-1.9,0.3-2.1-1.3-2.5-2.4c-1.2-3.9-3.7-6.9-6.7-9.5C3.6,335.7,2.3,329,2,322.1c2.6,4.4,5.8,8.1,11.5,8.7
			c1,0.1,1.9,0.3,2.6-0.7C16.4,329.6,16.8,329.6,17.1,330.1z"/>
		<path class="st55" d="M79,414c6-8.2,13-15.5,19.8-23.1c2.1-0.8,3.1,0.8,3.9,2.1c1.9,2.9,5.2,4.6,6.4,8c-2.3,3.4-4.6,6.8-7.9,9.3
			c-6.9-2.3-12.8-0.9-17.2,5.2C82.1,416,80.4,415.6,79,414z"/>
		<path class="st105" d="M198,151.6c0.7-1.8,2.4-2.7,4-3.5c7.6-3.7,12.2-0.7,12.1,7.6c-0.2,9.3-5.2,13.8-14.1,12.5
			c0.6-3.3-1.1-6.2-1.7-9.2C197.7,156.5,196.8,154.1,198,151.6z"/>
		<path class="st36" d="M144,373.1c4.8,5.2,6.6,11.9,9.2,18.3c-2.7,3.6-5.9,6.7-9.2,9.7c-2.7-5.8-5.4-11.5-8.1-17.3
			C138.3,380,140.8,376.2,144,373.1z"/>
		<path class="st36" d="M132.1,342.1c3.2,2.1,2.7,6.1,4.3,9.1c1.4,2.5,1.9,5.5,2.8,8.3c-2.2,4.6-5.3,8.5-8.2,12.6
			c-2.7-5.3-5.3-10.6-8-16C125.8,351.2,128.7,346.5,132.1,342.1z"/>
		<path class="st106" d="M1574.2,247.1c1.7,0.9,3,0.9,2.8-1.5c-1-12.5,4.9-22.4,11.7-32c0.5-0.8,0.4-2,1.4-2.6c1.8,1.9,4.6,2.9,5,6
			c-3.6,6.5-7.1,13-10.8,19.5c-0.9,1.5-2,3.1-3.5,4.1c-2.4,1.6-2.7,3.7-2.8,6.3c-0.2,4.6-1.4,9-3.8,13
			C1574.2,255.7,1574.2,251.4,1574.2,247.1z"/>
		<path class="st36" d="M158,386c-1.1-9.6-0.4-19,3.7-27.8c0.6-1.4,1.5-2.5,1.4-4.1c4.5,3.8,9,7.5,9.8,13.9
			C168.3,374.4,163.5,380.5,158,386z"/>
		<path class="st107" d="M399.9,317.1c-3-8.5-7.8-16.4-8.2-25.7c-0.2-3.8,0.2-7.4,2.4-11c1.9,6.7,9.5,10.2,9.2,17.9
			C403.1,304.7,401.7,310.9,399.9,317.1z"/>
		<path class="st100" d="M109.2,401.1c-4.4-2.4-6.3-7.4-10.3-10.1c3.4-4.6,6.8-9.3,10.2-13.9c3.7,4.2,6.3,8.9,8.1,14.1
			C114.6,394.6,112.3,398.2,109.2,401.1z"/>
		<path class="st108" d="M541.9,70.1c-1.7,3.5-0.7,7.2-0.8,10.8c-0.2,7-0.1,14.1-0.5,21.3c-2.4-5.5-5-10.8-8.9-15.3
			c-1.3-1.5-0.5-3.5-0.6-5.3c-0.3-3.1,0.8-6.3-1-9.3c3.3-1,6.5-2.1,9.8-3.1C540.8,68.9,542,68.4,541.9,70.1z"/>
		<path class="st109" d="M128.8,432c2.4-3.7,5.2-6.9,8.5-9.8c4.4,0.9,8.1,4.1,12.8,3.9c0.8,0,1.6,1.1,1.1,2.3
			c-3.5,4.8-7.7,9-12.2,12.8c-1.7,1.3-2.9,0.2-3.8-0.9C133,437.5,130.3,435.2,128.8,432z"/>
		<path class="st110" d="M99.8,426.8c4.1-4.6,8.2-9.1,12.3-13.7c6.2-1,7.2,4.7,10,8c-4.4,4.1-9,7.7-13.9,11.1
			C105.2,430.7,102,429.5,99.8,426.8z"/>
		<path class="st4" d="M172.8,368c-2.2-5.4-7-8.9-9.8-13.9c-1-1.6-1.1-3.4-1.1-5.2c1.9-3.4,4.3-6.4,7-9.2c2.9,7.4,4.5,15.3,8.3,22.5
			C176.1,364.4,174.7,366.4,172.8,368z"/>
		<path class="st111" d="M311.1,421.1c4.3-0.2,8.6-0.4,12.8,0.5c3.4,0.7,6.8,0.3,10.2,0.5c0.4,0.5,0.8,0.9,1.1,1.4
			c-4.8,5-10.3,9.1-16,12.8c0.1-2.9-0.1-5.8-2.9-7.4C313.3,427.1,311.8,424.4,311.1,421.1z"/>
		<path class="st100" d="M122.1,421.1c-1.2-0.1-2.4-0.5-2.8-1.6c-1.2-3.6-3.8-5.3-7.2-6.3c3.4-4,6.7-8,10.1-12
			c3.4,3.9,6.5,8,7.9,13.1C127.6,416.6,125.2,419.2,122.1,421.1z"/>
		<path class="st112" d="M1249.3,105.1c-0.1-9.4-0.2-18.9-0.3-28.3c2.3-5.1,6.6-2.4,10.2-2.6C1257.5,84.9,1254.2,95.2,1249.3,105.1z
			"/>
		<path class="st113" d="M181.8,393c-1.3-6.4-2.5-12.8-3.8-19.2c2-2.2,4-4.3,6-6.6c0.9-1,1.7-2.1,3.3-1.3c1.3,0.6,1.9,1.8,1.9,3.2
			c0,1.2,0.3,2.4-0.1,3.4C186.7,379.4,185.7,386.8,181.8,393z"/>
		<path class="st114" d="M79,414c1.7,0.4,3.3,0.8,5,1.2c2.6,1.7,6.6,2.1,6,6.7c-2.7,2.2-5.4,4.3-8.6,5.8c-2.9,1.3-5.5,1-7.8-1.1
			c-1.5-1.4-2.2-2.9-0.7-4.7C75.1,419.3,76.3,416.1,79,414z"/>
		<path class="st115" d="M30,395.2c5.2,0.9,9.3,4.4,14.2,6c6.3,2,12.5,4.4,18.7,6.6c-8.1,3.9-15.8,3.1-23-2.2
			C36.1,402.7,32.5,399.5,30,395.2z"/>
		<path class="st116" d="M151.2,428.3c-0.4-0.7-0.8-1.8-1.6-1.6c-5.1,1-8.7-1.6-12.3-4.5c3.6-4.3,7.3-8.6,10.9-12.9
			c1.2,5.6,1.3,11.7,6.1,15.9C153.6,426.6,152.5,427.5,151.2,428.3z"/>
		<path class="st117" d="M90.1,421.9c-0.6-3.5-4.9-3.6-6-6.7c3.3-7.6,10.9-9.7,17.2-4.8C98.4,415.1,94.2,418.5,90.1,421.9z"/>
		<path class="st118" d="M359.3,141.7c-0.2,1.2-0.5,2.5,0.8,3.4c1.2,2,1.9,4,0.1,6c-4.7-7.2-10.9-13.3-14.7-21.1
			c-1.4-3-3.7-5.5-4.4-8.8C348.2,127.1,355.2,133.1,359.3,141.7z"/>
		<path class="st119" d="M128.8,432c2.5,1.3,4.2,3.4,5.7,5.7c1.1,1.6,2.2,3.2,4.5,3.3c-2,3-5.1,4.9-7.7,7.2
			c-3.6-1.9-6.7-4.2-9.3-7.3C124,437.8,125.8,434.4,128.8,432z"/>
		<path class="st120" d="M769.2,109.1c-0.5-6.7-0.3-13.4,0-20.1c4.1,1.2,6.6,4.7,9.7,7.3c0.8,0.6,1.5,1.8,0.6,2.6
			C775.9,102.2,774.2,107.3,769.2,109.1z"/>
		<path class="st121" d="M179.1,311.2c-1-3.8-2-7.5-3-11.3c-0.7-2.8-1.7-5.4-5-5.8c4.5-4.2,5-4.1,8.5,0.3c0.3,0.4,0.6,0.8,0.9,1.2
			C187.1,303.9,187.1,303.9,179.1,311.2z"/>
		<path class="st122" d="M99.8,426.8c3.2,1.2,6.6,2,8.4,5.3c-2.2,1.5-4.4,2.9-6.5,4.4c-3.9,2.8-7.5,3.3-10.8-1.5
			C93.8,432.4,96.8,429.6,99.8,426.8z"/>
		<path class="st123" d="M121.9,441c3.8,1.6,6.9,3.9,9.3,7.3c-1.6,2.2-4.1,3.2-6.2,4.7c-2.2,1.6-4.3,0.6-6.2-1
			c-1.8-1.6-1.7-3.4-0.5-5.3C119.5,444.8,120.7,442.9,121.9,441z"/>
		<path class="st124" d="M1585.1,78.3c-2.6,6-5.1,12-10.9,15.8c-0.1-0.7-0.1-1.3-0.2-2C1573.8,80.9,1573.8,80.9,1585.1,78.3z"/>
		<path class="st125" d="M5.9,342.2c4,0.5,5.5,3.6,7,6.6c0.8,1.7,0.8,3.8,2.2,5.3c-0.8,2.8,1.7,4.5,2,7c-2.1-1-3.4-3.7-6.3-2.9
			C8.4,353.1,6.5,347.9,5.9,342.2z"/>
		<path class="st126" d="M499.2,444.1c3.7,6.9,4.9,14.3,4.9,21.9c-3.8,0.7-5.1-1.2-5.1-4.7C499.1,455.6,499.2,449.9,499.2,444.1z"/>
		<path class="st127" d="M198,151.6c0.8,4.4,1.6,8.8,3.4,12.9c0.8,1.8,1.1,3.2-1.4,3.6c-3.3,0.1-5-1.7-5.2-4.7
			C194.3,159.2,194.4,154.9,198,151.6z"/>
		<path class="st128" d="M225.1,220.1c-0.1,2.3,0.7,5.9-2,6.3c-2.7,0.4-3.8-2.9-4.6-5.4c-0.2-0.6-0.3-1.3-0.5-1.9
			c1.6-1,3.2-2.1,4.8-3.1C224.4,217,224.9,218.4,225.1,220.1z"/>
		<path class="st129" d="M152.9,444.7c-0.9,3.7-0.6,7.5-1.8,11.1c-1,3.1-2.7,4.8-6.1,4.2C146.1,454.1,149.3,449.3,152.9,444.7z"/>
		<path class="st130" d="M743.1,412.1c0.6-4.2,1.6-8.2,3-12.1c2,1.7,4.1,3.4,6.1,5C748,405.8,746.6,410.3,743.1,412.1z"/>
		<path class="st131" d="M17.1,330.1c-0.3,0-0.7,0-1,0c-2.7-10.3-7.3-19.9-9.7-30.2c-1.9-8-2.8-15.8-0.8-23.9
			c0.6-2.3,2.2-5.2-1.3-6.9c3.9-19.2,9.1-38,16.8-56c2.5-0.6,3.6,1.4,4.8,2.8c7.7,9.3,14.4,19.2,17.7,31c0.2,0.8,0.5,1.6,0.9,2.3
			c0.7,1.3,1.5,2.8,3.2,2.7c1.8-0.1,2.5-1.5,3-2.9c0.3-0.8,0.5-1.6,0.8-2.4c2.8-3,5.1-6.4,7.6-9.6c-0.3,5,0.5,9.9,0.9,14.8
			c1,10.1-1.8,19.7-4.9,29.2c-1.7,5.7-3.4,11.3-5,17c-2.5,9.4-8.9,13.3-18.3,11.1c-8.8-2.1-11.8,0.3-11.6,9.7
			C20.2,323,20,326.9,17.1,330.1z"/>
		<path class="st132" d="M52.1,247.1c0.3,3.4-1.1,6.5-4.4,6.7c-3.5,0.2-4.5-3.4-5.3-6.2c-3.9-13.5-11.2-24.8-21.3-34.5
			c2.2-6.6,4.7-13,8.2-19c6.5,1.2,6.5,1.2,6.5-5.9c0-3.1,0.1-6.2,1.3-9.2c3.3-7.1,7.4-13.7,12.2-19.9c1,0,1.5,0.6,1.8,1.4
			c3.5,11.3,6.1,22.7,1.9,34.5c-4.4,12.2-2.3,24.6-0.7,36.9C52.9,237,54.6,242.1,52.1,247.1z"/>
		<path class="st51" d="M108.8,98c0.4,0.5,1.1,1,1.1,1.6c0.2,11.8,7,21.6,10.2,32.4c2,6.8,4.8,13.4,6.8,20.2c2,7-1.8,11.4-9.8,11.9
			c-5-3.6-8.4-8.1-10-14.3c-2.7-10.5-8.7-18.9-18-24.7c-2.9-2.6-3-5.9-2.2-9.4C93.6,109,101,103.2,108.8,98z"/>
		<path class="st133" d="M51.1,156.1c3.9-6,8.3-11.6,13.1-17c2.7-1.2,3,1.2,3.6,2.7c2,4.5,3.4,9.3,5.5,13.8
			c2.5,8.3,6.8,15.9,9.4,24.2c2.3,7,2.5,14.1,0.3,21.1c-0.5,1.5-0.9,3.6-3,3.5c-2.2-0.1-1.9-2.4-2.3-3.9
			c-2.3-8.3-7.1-14.9-14.1-21.6c6.1,9.5,3.6,17.6-0.8,25.5c-2.4-0.9-2.2-3.2-2.6-5c-1.7-7-2.6-14.1-3.3-21.2
			C56.1,170.5,54.6,163,51.1,156.1z"/>
		<path class="st134" d="M51.1,156.1c3.8,1.6,4,5.4,4.9,8.5c2.5,8.7,2.5,17.8,4.2,26.7c0.8,4.3,1.1,8.7,2.9,12.8
			c0.2,0.2,0.3,0.4,0.2,0.6c-0.1,0.2-0.1,0.3-0.2,0.3c0,10.8-2.1,21.4-4,32c-0.3,0.5-0.9,1.1-0.9,1.6c0,2.8,0.2,5.6-3.8,6
			c-0.8,0.1-1.5,1.6-2.3,2.4c0.5-8.3-2.1-16.3-2.6-24.5c-0.6-9.4-1.8-18.9,2-27.9c3.2-7.7,2.5-15.4,1.2-23.2
			c-0.7-4.2-2.2-8.2-3.4-12.3C49.9,158.1,50.5,157.1,51.1,156.1z"/>
		<path class="st135" d="M86.9,115.7c0.7,3.1,1.4,6.2,2.2,9.4c0.7,9.4,2.9,18.5,4.5,27.8c0.6,3.4,0,7,1.5,10.2
			c-5.6-1.7-10-5-13.8-9.3c-1.8-7.5-3.6-14.9-7.1-21.9c-0.6-1.2-1.1-2.4-0.1-3.7C77.9,123.6,82.1,119.4,86.9,115.7z"/>
		<path class="st136" d="M74.1,128.2c2.9,6.7,5.7,13.4,7.4,20.5c0.4,1.8,0.5,3.6,0.6,5.4c-3.1,1.9-6.3,3.3-10,2
			c-1.7-4.4-3.4-8.9-5.3-13.3c-0.6-1.4-0.3-3.5-2.7-3.7C67.3,135.3,70.2,131.3,74.1,128.2z"/>
		<path class="st137" d="M37.1,179c0,4.8,0.1,9.6,0,14.3c0,1.5,0.9,3.6-1.1,4.4c-1.6,0.7-2.6-1.1-3.9-1.7c-1-0.5-1.9-1.3-2.8-1.9
			C31.3,188.8,33.8,183.7,37.1,179z"/>
		<path class="st138" d="M1595.1,217.1c-1.7-1.9-4.8-2.8-5-6c2-3.9,5.5-6.8,7-11c4-2.8,7-6.4,9-10.9c2-4.6,4.7-8.7,10-10.1
			c0,11.9,0,23.9,0,36.3c-3.9-1.2-6.8-4.6-10.9-4.2C1600.9,211.5,1598.2,214.7,1595.1,217.1z"/>
		<path class="st0" d="M1009.9,183.2c1.4,3.3,2.8,6.6,4.2,10c3.7,8.7,7.4,17.3,11.1,26c1.2,4.6,3.4,8.9,5.6,13.1
			c4.5,11,8.9,22,13.6,33c6.4,15,12.9,30,19.4,45c3.4,8.2,6.7,16.5,10.3,24.7c1.7,3.8,0.9,5-3.2,5c-10.3,0-20.6,0.1-30.8,0.2
			c-6.3,2.6-12.7,2.6-19,0c-12.3-0.4-24.7-0.5-37,0c-13.3-0.5-26.7-0.5-40,0c-3.3-0.4-6.7-0.4-10,0c-2.7-1.1-1.9-3-1-4.9
			c7.1-16.6,14.1-33.2,21.1-49.9c6.9-16.2,13.7-32.3,20.6-48.5c0.3-0.7,0.3-1.6,0.4-2.4c7.1-14.2,12.5-29.2,18.9-43.8
			c3.1-6.9,5.9-14,9.2-21.8C1005.8,174.1,1007.8,178.6,1009.9,183.2z"/>
		<path class="st25" d="M370.1,171.1c0.5,6.7,2.9,13.1,3,19.9c0,0.4,0,0.7,0,1.1c-4.1-1.9-6.2-5.2-7-9.6c-1.3-7.2-2.7-14.3-4-21.5
			C365.2,164.1,370.1,165.6,370.1,171.1z"/>
		<path class="st139" d="M370.1,171.1c-1.4-2.1-1.3-5.3-5.2-5.4c-2.4,0-1.1-3.5-2.8-4.7c-0.2-3.4-0.9-6.8-2-10c0-2,0-4-0.1-6
			c4,2.5,6.3,6.1,7.2,10.8C368.1,161,369.1,166,370.1,171.1z"/>
		<path class="st0" d="M1395.1,271.9c-8.7,1.4-17.3,2.8-26,4.3c-0.7,0-1.3,0-2,0.1c-0.3,0.1-0.6,0.3-0.9,0.3
			c-22.2-0.7-44.4,1.9-66.6,1.2c-3.6-0.1-7.1-0.1-8.4-4.5c-0.7-8.5-0.9-16.9,0.1-25.4c0.6-5,0.4-10,0.3-15
			c-1.4-38.6-1.2-77.2-0.8-115.8c0.3-2.1,0.7-4,3.4-4.1c23.7,0,47.3,0,71,0c8.3,1.1,16.7,2.1,25,3.2c10.1,2.9,20,6.3,29,11.7
			c9.2,6.3,17.3,13.6,23.2,23.2c2.2,1.1,3.4,3.2,4.3,5.3c4.3,9.7,6.4,19.9,7.6,30.4c0.2,1.8,0,3.7-1,5.3c0,2.3,0,4.7,0,7
			c2.2,3.5,0.6,7.1,0.2,10.6c-0.7,6-1.6,12.1-5.5,17.1c-2.6,5.1-5.2,10.2-7.8,15.3C1428.7,257.5,1413,266.5,1395.1,271.9z"/>
		<path class="st140" d="M1257.1,395.1c-1.7,3.2-4.9,4.4-7.8,6c0-26.7,0-53.4,0-80.1c1.7-4.3,5.8-6.2,9-9c3-2.6,6.3-4.8,7.9-8.7
			c0.7-1.8,2-2.6,3.9-1.2c0.4,9.4-3.3,18-5.5,27c-1.5,6.3-2.9,12.6,0.8,18.7c0.6,0.9,0.5,2.2,0.7,3.4c0.6,2.4,1,4.8,1.1,7.3
			c0.1,3.3-1.4,5.3-4.2,6.6c-11.7,5.2-11.5,11.7-8,22.1C1255.8,389.8,1256.7,392.3,1257.1,395.1z"/>
		<path class="st40" d="M1270.1,302.1c-1,0.1-2.4-0.2-2.6,0.9c-1.4,6.4-7.3,8.6-11.4,12.4c-2.1,1.9-4.2,4.1-6.8,5.7
			c0-15,0-29.9,0-44.9c4.4-6.2,10.8-9.5,17.7-11.7c2.5-0.8,5.8-0.3,6.1,3.7c-0.3,2.7-2.1,4.4-3.7,6.3c-3.6,4.2-2.9,6.6,2.1,8.4
			c7.7,2.7,8.2,4.1,3.8,10.9C1273.5,296.5,1271.8,299.3,1270.1,302.1z"/>
		<path class="st141" d="M1291.9,273.1c0.8,3.9,3.9,3.4,6.7,3.4c22.8-0.1,45.7-0.2,68.5-0.3c-3.8,1.8-7.8,0.7-11.7,0.8
			c-5.6,0.2-11.3,0-16.9,0.1c-1.3,0-3.3-0.3-3.8,0.5c-3.8,4.8-9,8.2-12.6,13.1c-2.1,2.8-0.6,6,0.8,8.9c1.1,2.3,3.9,4.9-0.1,7.1
			c-2.4,1.3-8.4-0.4-9.1-3.1c-2.7-10.2-10.7-16.1-17.6-23c-4-4-7.2-8.6-9.9-13.5c-0.4-4.3,1.7-8.1,3-12c0.1-2.8-0.6-5.8,2-8
			c1.1,6.7,0.2,13.4,0.5,20.1C1291.7,269.1,1291.3,271.1,1291.9,273.1z"/>
		<path class="st142" d="M1289.1,255.1c0.9,4.5-1.2,8.2-3,12c-2-0.3-3.3,1-4.7,2.1c-4.9,3.8-4.9,3.7-8.3-1.1c-2.6-4-6.4-3.6-9.5-1.5
			c-4.7,3.3-10.3,5.2-14.3,9.5c0-0.5-0.3-1.1-0.1-1.5c4.4-6.8,3.8-15.6,9.5-22c9.7-10.8,8.1-10.4,17.8-3.1
			C1280.4,252.5,1284.2,254.8,1289.1,255.1z"/>
		<path class="st5" d="M213.1,86.1c7.6,5.1,8.3,13.2,9,21.3c0.3,3.3,0,6.5,1,9.7c-8.1-5.3-8-14-8.9-22.1
			C213.8,92,214.2,89,213.1,86.1z"/>
		<path class="st143" d="M72.1,156.1c3.3-0.6,6.5-2.1,10-2c4.3,3,8.7,6,13,9c7.1,18.2,14.5,36.4,21.2,54.8
			c1.8,4.9,1.8,10.4,2.4,15.6c0.7,5.3,2.9,9.8,6.7,13.5c1.1,1.1,1.8,2.7,2.6,4.1c0,1.1-0.2,2.3,1,3c-0.5,6.8,2.8,13.2,2,20
			c-8.1-8.7-11.6-20-17-30.1c-2.1-3.9-4.6-7.7-6.9-11.5c-0.8-1.4-1.6-2.7-3.5-2c-1.5,0.5-1.6,1.9-1.7,3.3c-0.3,2.4,1.3,5.9-1.5,6.8
			c-3.1,0.9-3.1-3.2-4.6-5c-6.9-8.1-13.1-16.7-15.8-27.3c-0.3-1.2-0.7-2.3-1.6-3c-3.5-2.7-7-5.3-11-8.3c-0.4,4.3,1.5,7.7,1.5,11.2
			c-2.1-0.7-5.2,0.5-6-3c0-0.3,0-0.7,0-1c0.5-3.1-1.7-7.1,3.1-8.9c0.8-0.3,0.6-1.3,0.5-2.2c-0.6-3.2-1.7-6.4-1.5-9.8
			c0.1-1.4-0.6-2.3-2.1-1.9c-1,0.2-2.2,0.5-2.2-1c0-1.2,0.8-2.2,2.2-2.2c1,0,2.1-0.2,2.8,0.7c6.1,7,12.6,13.7,13.4,23.6
			c0,0.4,0.4,0.8,1,1.9c4.1-8.6,3.8-16.7,1.1-24.8C78.6,171.5,74.4,164.2,72.1,156.1z"/>
		<path class="st144" d="M500.1,219.1c0-14.1,0-28.1,0-43c5.4,3.5,10.7,4.4,16.2,3.9c1.8-0.2,2.6,1.1,3.8,2
			c6.7,17.8,13.3,35.6,20,53.4c0.2,0.6,0.6,1.1,1,1.7c0,16.7,0,33.3,0,50c-4.3-3.2-7-7.5-8-12.7c-0.8-4.2-2.4-6.7-7.1-8.1
			c-13.4-4-19.9-14.6-23.8-27.1c-0.6-2-0.5-4.3-2-6C500.1,228.4,500.1,223.8,500.1,219.1z"/>
		<path class="st145" d="M1021.1,340.1c6.3-0.5,12.7-0.4,19,0c-0.3,1.7-0.7,3.4-1,5.1c-1.7,1.1-0.4,4.8-2.9,4.6
			c-3.3-0.2-7,0-9.9-2.2C1023.8,345.7,1021.5,343.5,1021.1,340.1z"/>
		<path class="st146" d="M75.1,309.1c-1.7,0.3-3.3,0.7-5,1c-2.4,0.7-3.7,2-4.1,4.7c-0.4,2.9-0.5,6.4-4.3,7.5
			c-0.2-0.1-0.4-0.2-0.6-0.2c-2.3-12.9-5.3-25.8-6-39c3,0.4,5.1-1.1,6.6-3.4c1.5-2.2,2.8-4.5,4.4-6.6c1.6-2.2,2.5-4.3,2.1-7.3
			c-0.7-5.1,1.7-8.4,5.3-8.7c2.3-0.2,4.2,0.2,4.6,3.2c0.6,4.3,2.3,7.7,5.6,11c3.2,3.1,4.1,8.1,4.3,12.8c-5.5-0.8-7-5.2-8.7-9.5
			c-0.6-1.6-0.5-3.7-2.9-4.2c-3.6-0.8-5.9,1-5.3,4.7c1.3,9.3,3.1,18.6,4.5,27.9C76.1,305.1,76.9,307.2,75.1,309.1z"/>
		<path class="st146" d="M59.1,347.1c-0.3,0-0.7,0-1,0c-0.2-4.3,0.2-8.5-0.9-12.8c-1.2-4.7,0.8-8.7,3.8-12.2l0,0
			c2.7,3.2,2.9,7.2,2.2,10.9C62.3,337.8,60.9,342.5,59.1,347.1z"/>
		<path class="st28" d="M1294.1,112.9c-1.2,0.8-1.8,1.9-2.2,3.2c-0.8,9.1-0.6,18.2-0.2,27.3c0.4,7.9-1.7,14.7-5.8,21.1
			c-6.1,2.4-11-0.3-14.9-4.4c-3.9-4.1-6.8-9-6.9-15c3.9-1.6,5.3-4.6,6.5-8.6c3.8-13.3,11.7-24.4,20.4-34.9
			c6.8-8.3,14.6-15.9,20.8-24.7c0.6-0.8,1.3-1.5,1.2-2.6c4.2-0.1,8.3-0.1,12.5-0.1c2.3,0,3,0.9,1.8,3.1c-3.6,6.8-5.6,14.2-8.2,21.3
			c-0.5,1.4-0.7,3.3-2.2,3.7c-1.9,0.5-2.5-1.8-3.8-2.7c-0.4-0.3-0.6-0.8-0.9-1.2c-1.9-3-3.5-3.3-5.2,0.3c-1.4,3-3.6,5.6-5.1,8.5
			C1300.1,110.6,1297.6,112.1,1294.1,112.9z"/>
		<path class="st147" d="M1264.1,145.1c1.9,4,3.5,8.2,5.7,12c3.4,5.7,9.6,6.5,15.3,8c0.2,0.2,0.3,0.4,0.2,0.7
			c-0.1,0.2-0.1,0.3-0.2,0.3c0.2,2.4-0.8,3.5-3.2,4.2c-12.3,3.6-19.7,14.3-18.7,27.6c0.6,7.4-2.8,13.8-4.2,20.6
			c-0.9,4.3-4.6,3.7-7.7,3.4c-3.2-0.3-2.1-2.9-2.1-4.6c0-16.8,0.1-33.6,0.1-50.4c4.5-6.6,7.8-14.1,13-20.2
			C1262.8,146.1,1263.5,145.6,1264.1,145.1z"/>
		<path class="st33" d="M1447.9,226.8c3-9,4.6-18.3,5.3-27.7c2.8,2.7,6,2.6,8.3-0.1c4.8-5.6,10.7-7.6,17.8-6.9
			c1.4,0.1,2.6-0.4,3.8-1c-0.7,3.9-1.1,7.8-2,11.7c-2.2,9.5-7.7,12.8-17.3,9.1c-6.5-2.5-6.9-2.4-8.9,4c-1.2,3.9-3.5,7.5-5.4,11.2
			C1449.1,227.7,1448.4,227.5,1447.9,226.8z"/>
		<path class="st52" d="M1285.1,166.1c0-0.3,0-0.7,0-1c-0.2-2.8,1.3-5.3,2.8-7.3c3-4,3.4-8.4,3.3-13.1c-0.2-7.9-0.1-15.9,0-23.8
			c0-1.6-0.5-3.3,0.8-4.7c0,52.3,0,104.6,0,156.9c-1.7-5.8-0.4-11.7-0.8-17.6c-0.2-2.8,0-5.6,0-8.4c0-11.1,0-22.3,0-33.4
			c0-1.7,1.1-4.1-0.9-5c-1.8-0.8-3.2,1.3-4.7,2.2c-3.2,1.9-5.3,4.9-8,7.4c-4.5,4.1-7.4,3.6-9.9-1.8c-1-2.2-1.4-4.7-2.9-6.8
			c-1.1-1.6,0.1-2.9,1.3-3.8c8-6.9,11.4-16.5,15.1-25.9c1.3-3.2,2.6-6.4,4.3-9.4C1286,169,1286.7,167.5,1285.1,166.1z"/>
		<path class="st148" d="M75.1,309.1c-1.5-9.6-2.9-19.2-4.4-28.8c-0.2-1.1-0.4-2.3-0.6-3.4c-0.8-7.2-0.8-7,6.2-8.2
			c2.9-0.5,3.6,0.4,3.8,2.8c0.5,5.5,3.5,9.5,8,12.5c0.7,2,1.3,4,2,6c1.8,5,2.3,10.5,7,14c2.7,4.3,5.4,8.7,8,13
			c0.7,4.9-2.6,8-5.6,10.9c-2.3,2.2-4.8,1.4-6.9-0.9c-4.5-4.8-8.9-9.7-13.5-14.4C77.9,311.4,76.5,310.3,75.1,309.1z"/>
		<path class="st149" d="M97.1,304.1c-6.9-2.4-7.1-8.1-7-14C97,292.5,96.4,298.6,97.1,304.1z"/>
		<path class="st150" d="M1453.2,192.1c-0.8-14.4-3.6-28.3-10.9-41c2.7-2.8,3.5-7,6.7-9.4c1.3-1,2.2-2.5,4-2.5
			c-2.9,4.4-3.5,9.3-2.9,14.3c1.2,10.2,2.4,20.3,5.5,30.2C1456.7,186.8,1455.9,189.8,1453.2,192.1z"/>
		<path class="st151" d="M734.1,423.1c1.8-4.6,5-8.2,9-11c0.2,7.8-0.9,15.1-9,19C733.5,428.4,733.5,425.8,734.1,423.1z"/>
		<path class="st148" d="M59.1,347.1c0-3.9-0.1-7.7,2.3-11.4c1.7-2.5,0.9-6.1,0.2-9.2c-0.3-1.5-0.6-2.9-0.6-4.4
			c3.8-1.9,3.5-5.7,3.9-9c0.4-3.7,1.8-4.8,5.1-3c0.8,5.7,0.9,11.3,7,14.8c3.3,1.9,1.6,6.8,3,10.2c0.1,1.6-0.4,2.8-1.5,4
			c-4,4.3-6.7,9.3-7.4,15.2c-0.2,1.9-0.7,3.7-3.1,3.7c-2.1,0.1-4.1,0.5-5.7-1.8C60.6,353.4,59.4,350.5,59.1,347.1z"/>
		<path class="st72" d="M376.1,358.1c-8.4,0.4-13.2,0.9-15-10C367,350.1,370.7,355.3,376.1,358.1z"/>
	</g>
</g>
</svg>
