<svg width="640" height="480" xmlns="http://www.w3.org/2000/svg">
 <style type="text/css">.st0{fill:#FFFFFF;}
	.st1{fill:#999999;}</style>

 <g>
  <title>background</title>
  <rect fill="none" id="canvas_background" height="482" width="642" y="-1" x="-1"/>
 </g>
 <g>
  <title>Layer 1</title>
  <g stroke="null" id="svg_1">
   <path stroke="null" id="svg_2" d="m476.20001,515.711128c-109.333337,0 -218.666674,0 -328.00001,0c0,-172.503709 0,-345.007418 0,-517.511128c109.333337,0 218.666674,0 328.00001,0c0,172.503709 0,345.007418 0,517.511128zm-158.533338,-300.666676c4.251852,1.822222 3.644445,4.859259 3.644445,7.288889c0.607407,8.503704 1.214815,17.614815 1.822222,26.118519c1.822222,20.651853 3.644445,41.303705 5.466667,61.955558c1.214815,12.755556 2.42963,26.118519 3.644445,38.874075c2.42963,27.333334 5.466667,54.666668 7.896297,82.000003c1.214815,10.933334 4.251852,14.577778 15.185186,13.362963c15.185186,-1.214815 30.370371,-3.037037 45.555557,-3.644445c13.362963,-0.607407 15.185186,-2.42963 14.577778,-17.007408c-0.607407,-18.222223 -1.214815,-35.837038 -2.42963,-54.059261c-1.822222,-46.770372 -3.644445,-92.933336 -6.074074,-139.703708c-1.822222,-41.303705 -3.037037,-82.000003 -4.859259,-123.303708c-0.607407,-15.185186 -1.822222,-30.370371 -2.42963,-44.94815c-0.607407,-14.577778 -2.42963,-15.792593 -16.400001,-15.792593c-40.696298,0 -81.392595,0 -122.6963,0c-5.466667,0 -10.933334,0 -15.792593,0.607407c-7.288889,0.607407 -9.111111,2.42963 -10.325926,9.718519c0,2.42963 0,4.251852 0,6.681482c-0.607407,10.933334 -0.607407,21.25926 -1.214815,32.192594c-1.822222,44.94815 -4.251852,90.503707 -6.074074,135.451856c-1.822222,38.874075 -3.037037,77.748151 -4.859259,116.622226c-0.607407,13.970371 -1.214815,27.940742 -2.42963,41.911112c-0.607407,13.362963 -1.214815,26.725927 -1.822222,40.08889c0,7.288889 3.037037,10.933334 10.325926,11.540741c17.614815,1.822222 34.622223,3.037037 52.237039,4.251852c9.111111,0.607407 11.540741,-1.214815 12.148149,-10.325926c2.42963,-21.25926 4.859259,-42.51852 7.288889,-63.77778c2.42963,-21.25926 4.251852,-41.911112 6.074074,-63.170372c3.037037,-27.333334 5.466667,-54.059261 8.503704,-81.392595c1.822222,-3.644445 2.42963,-7.288889 3.037037,-11.540741z" class="st0"/>
   <path stroke="null" id="svg_3" d="m317.666672,215.044451c-0.607407,4.251852 -1.214815,7.896297 -1.822222,11.540741c-3.037037,26.725927 -5.466667,54.059261 -8.503704,81.392595c-2.42963,21.25926 -4.251852,41.911112 -6.074074,63.170372c-2.42963,21.25926 -4.251852,42.51852 -7.288889,63.77778c-1.214815,9.111111 -3.644445,10.933334 -12.148149,10.325926c-17.614815,-1.214815 -34.622223,-2.42963 -52.237039,-4.251852c-7.288889,-0.607407 -10.325926,-4.251852 -10.325926,-11.540741c0.607407,-13.362963 1.214815,-26.725927 1.822222,-40.08889c0.607407,-13.970371 1.822222,-27.940742 2.42963,-41.911112c1.822222,-38.874075 3.037037,-77.748151 4.859259,-116.622226c1.822222,-44.94815 4.251852,-90.503707 6.074074,-135.451856c0.607407,-10.933334 0.607407,-21.25926 1.214815,-32.192594c0,-2.42963 0,-4.251852 0,-6.681482c1.214815,-7.288889 3.037037,-9.111111 10.325926,-9.718519c5.466667,-0.607407 10.933334,-0.607407 15.792593,-0.607407c40.696298,0 81.392595,0 122.6963,0c13.970371,0 15.792593,1.214815 16.400001,15.792593c0.607407,15.185186 1.214815,30.370371 2.42963,44.94815c1.822222,41.303705 3.037037,82.000003 4.859259,123.303708c1.822222,46.770372 3.644445,92.933336 6.074074,139.703708c0.607407,18.222223 1.214815,35.837038 2.42963,54.059261c0.607407,14.577778 -1.822222,16.400001 -14.577778,17.007408c-15.185186,0.607407 -30.370371,2.42963 -45.555557,3.644445c-10.933334,0.607407 -13.970371,-2.42963 -15.185186,-13.362963c-2.42963,-27.333334 -5.466667,-54.666668 -7.896297,-82.000003c-1.214815,-12.755556 -2.42963,-26.118519 -3.644445,-38.874075c-1.822222,-20.651853 -3.644445,-41.303705 -5.466667,-61.955558c-0.607407,-8.503704 -1.214815,-17.614815 -1.822222,-26.118519c-1.214815,-2.42963 0,-4.859259 -4.859259,-7.288889zm11.540741,-132.414819c4.251852,3.037037 6.074074,6.074074 6.074074,10.933334c0,9.111111 0,18.222223 0,27.940742c0,3.644445 -1.214815,7.896297 -3.037037,10.933334c-5.466667,7.288889 -6.074074,15.792593 -4.859259,24.296297c1.214815,15.185186 3.037037,30.370371 4.251852,45.555557c1.214815,13.970371 2.42963,28.548149 3.644445,42.51852c1.214815,13.970371 2.42963,28.548149 3.644445,42.51852c1.822222,16.400001 3.037037,32.800001 4.859259,49.200002c1.822222,16.400001 3.644445,33.407408 5.466667,49.807409c1.214815,11.540741 1.822222,22.474075 3.644445,34.014816c1.214815,9.111111 3.644445,10.933334 12.755556,10.325926c10.325926,-0.607407 20.651853,-1.822222 30.977779,-3.037037c4.859259,-0.607407 7.288889,-3.037037 7.288889,-7.896297c0,-1.822222 0,-3.644445 0,-4.859259c-1.214815,-20.044445 -1.822222,-40.08889 -3.037037,-60.133335c-1.214815,-28.548149 -2.42963,-56.488891 -3.037037,-85.03704c-0.607407,-13.362963 -1.214815,-26.725927 -1.822222,-40.08889c-1.214815,-27.940742 -2.42963,-55.274076 -3.644445,-83.214817c-1.214815,-21.866667 -1.822222,-43.733335 -3.037037,-65.600002c0,-1.822222 -0.607407,-4.251852 -1.214815,-5.466667c-46.770372,0.607407 -92.933336,1.822222 -139.703708,-0.607407c0,1.214815 -0.607407,1.822222 -0.607407,3.037037c-1.214815,25.511112 -1.822222,50.414816 -3.037037,75.925928c-0.607407,20.651853 -1.822222,41.911112 -3.037037,62.562965c-0.607407,9.718519 -1.214815,19.437038 -1.822222,29.155556c-0.607407,13.970371 -1.822222,27.940742 -2.42963,41.911112c-0.607407,20.651853 -1.214815,41.303705 -1.822222,61.955558c-0.607407,14.577778 -1.822222,29.155556 -2.42963,43.733335c-0.607407,8.503704 -0.607407,17.614815 -0.607407,26.118519c0,6.074074 1.822222,8.503704 7.288889,9.111111c10.325926,1.214815 21.25926,2.42963 31.585186,3.037037c9.111111,0.607407 10.933334,-1.214815 11.540741,-10.325926c1.214815,-13.970371 3.037037,-28.548149 4.251852,-42.51852c2.42963,-22.474075 5.466667,-45.555557 7.896297,-68.029632c2.42963,-20.651853 3.644445,-41.303705 5.466667,-62.562965c1.214815,-12.755556 2.42963,-25.511112 3.644445,-38.266668c1.214815,-11.540741 2.42963,-23.68889 3.644445,-35.229631c1.214815,-10.325926 1.822222,-20.044445 3.037037,-30.370371c0.607407,-4.859259 3.037037,-10.325926 6.074074,-14.577778c3.644445,-4.859259 5.466667,-10.325926 5.466667,-16.400001c0,-6.074074 0,-12.755556 0,-18.82963c0.607407,-4.859259 2.42963,-8.503704 6.681482,-11.540741zm53.451854,-21.25926c0,-0.607407 0,-1.214815 0,-1.822222c-42.51852,0 -85.03704,0 -127.55556,0c0,0.607407 0,1.214815 0,2.42963c42.51852,3.037037 85.03704,3.037037 127.55556,-0.607407z" class="st1"/>
   <path stroke="null" id="svg_4" d="m329.207413,82.629632c-4.251852,3.037037 -6.074074,6.681482 -6.074074,10.933334c0,6.074074 0,12.755556 0,18.82963c0,6.074074 -1.822222,10.933334 -5.466667,16.400001c-3.037037,4.251852 -4.859259,9.718519 -6.074074,14.577778c-1.822222,9.718519 -2.42963,20.044445 -3.037037,30.370371c-1.214815,11.540741 -2.42963,23.68889 -3.644445,35.229631c-1.214815,12.755556 -2.42963,25.511112 -3.644445,38.266668c-1.822222,20.651853 -3.644445,41.303705 -5.466667,62.562965c-2.42963,22.474075 -4.859259,45.555557 -7.896297,68.029632c-1.822222,13.970371 -3.037037,28.548149 -4.251852,42.51852c-1.214815,9.718519 -2.42963,10.933334 -11.540741,10.325926c-10.933334,-0.607407 -21.25926,-1.822222 -31.585186,-3.037037c-4.859259,-0.607407 -7.288889,-3.037037 -7.288889,-9.111111c0,-8.503704 0.607407,-17.614815 0.607407,-26.118519c0.607407,-14.577778 1.822222,-29.155556 2.42963,-43.733335c0.607407,-20.651853 1.214815,-41.303705 1.822222,-61.955558c0.607407,-13.970371 1.822222,-27.940742 2.42963,-41.911112c0.607407,-9.718519 1.214815,-19.437038 1.822222,-29.155556c1.214815,-20.651853 2.42963,-41.911112 3.037037,-62.562965c1.214815,-25.511112 1.822222,-50.414816 3.037037,-75.925928c0,-1.214815 0,-1.822222 0.607407,-3.037037c46.162964,2.42963 92.325929,1.214815 139.703708,0.607407c0,1.214815 0.607407,3.037037 1.214815,5.466667c1.214815,21.866667 2.42963,43.733335 3.037037,65.600002c1.214815,27.940742 2.42963,55.274076 3.644445,83.214817c0.607407,13.362963 1.214815,26.725927 1.822222,40.08889c1.214815,28.548149 1.822222,56.488891 3.037037,85.03704c0.607407,20.044445 1.822222,40.08889 3.037037,60.133335c0,1.822222 0,3.644445 0,4.859259c0,5.466667 -2.42963,7.896297 -7.288889,7.896297c-10.325926,1.214815 -20.651853,1.822222 -30.977779,3.037037c-9.111111,0.607407 -11.540741,-1.214815 -12.755556,-10.325926c-1.214815,-11.540741 -2.42963,-22.474075 -3.644445,-34.014816c-1.822222,-16.400001 -3.644445,-33.407408 -5.466667,-49.807409c-1.822222,-16.400001 -3.644445,-32.800001 -4.859259,-49.200002c-1.214815,-13.970371 -2.42963,-28.548149 -3.644445,-42.51852c-1.214815,-13.970371 -2.42963,-28.548149 -3.644445,-42.51852c-1.214815,-15.185186 -2.42963,-30.370371 -4.251852,-45.555557c-0.607407,-8.503704 -0.607407,-17.007408 4.859259,-24.296297c2.42963,-3.037037 3.037037,-7.288889 3.037037,-10.933334c0.607407,-9.111111 0,-18.222223 0,-27.940742c-0.607407,-4.251852 -2.42963,-7.288889 -6.681482,-10.325926zm-23.68889,18.82963c0,0 0,0 0,0c0,4.251852 0,8.503704 0,12.148149c0,4.859259 1.822222,7.288889 5.466667,7.288889c3.037037,0 6.074074,-2.42963 6.074074,-6.681482c0.607407,-7.896297 0.607407,-16.400001 0.607407,-24.903705c0,-1.214815 -0.607407,-2.42963 -0.607407,-3.644445c-1.214815,-3.037037 -3.037037,-4.859259 -6.074074,-4.251852c-3.037037,0.607407 -4.859259,2.42963 -4.859259,6.074074c-0.607407,4.859259 -0.607407,9.111111 -0.607407,13.970371z" class="st0"/>
   <path stroke="null" id="svg_5" d="m382.659267,61.370372c-42.51852,3.644445 -85.03704,4.251852 -126.948152,0.607407c0,-0.607407 0,-1.214815 0,-2.42963c42.51852,0 85.03704,0 127.55556,0c-0.607407,0.607407 -0.607407,1.214815 -0.607407,1.822222z" class="st0"/>
   <path stroke="null" id="svg_6" d="m305.518523,101.459263c0,-4.859259 0,-9.111111 0,-13.970371c0,-3.644445 1.822222,-5.466667 4.859259,-6.074074c3.037037,-0.607407 4.859259,1.822222 6.074074,4.251852c0.607407,1.214815 0.607407,2.42963 0.607407,3.644445c0,8.503704 0,16.400001 -0.607407,24.903705c0,4.859259 -3.037037,6.681482 -6.074074,6.681482c-3.037037,0 -4.859259,-3.037037 -5.466667,-7.288889c0.607407,-4.251852 0.607407,-7.896297 0.607407,-12.148149c0,0 0,0 0,0z" class="st1"/>
  </g>
 </g>
</svg>