<svg width="640" height="480" xmlns="http://www.w3.org/2000/svg">
 <style type="text/css">.st0{fill:#FFFFFF;}
	.st1{fill:#999999;}</style>

 <g>
  <title>background</title>
  <rect fill="none" id="canvas_background" height="482" width="642" y="-1" x="-1"/>
 </g>
 <g>
  <title>Layer 1</title>
  <g stroke="null" id="svg_1">
   <path stroke="null" id="svg_2" d="m0.2,441.296733c0,-134.419388 0,-269.577345 0,-403.996733c213.446172,0 426.892343,0 639.599946,0c0,134.419388 0,269.577345 0,403.996733c-212.707603,0 -426.153775,0 -639.599946,0zm539.154689,-106.353802c-21.418474,0 -42.09838,0.738568 -63.516854,0c-18.464202,-0.738568 -18.464202,-0.738568 -19.20277,-19.20277c-0.738568,-11.078521 -4.431408,-14.032793 -14.771361,-8.862817c-12.555657,6.647113 -24.372746,14.032793 -37.666971,19.941338c-9.601385,4.431408 -20.679906,7.385681 -31.019859,8.124249c-84.19676,0.738568 -169.132087,0.738568 -253.328847,0.738568c-2.954272,0 -5.908545,0 -8.862817,-0.738568c-10.339953,-1.477136 -14.032793,-5.908545 -12.555657,-16.248497c1.477136,-18.464202 13.294225,-33.235563 32.496995,-39.144108c39.882676,-11.078521 79.765351,-21.418474 119.648027,-31.758427c11.078521,-2.954272 20.679906,0 27.327018,10.339953c1.477136,1.477136 2.215704,4.431408 3.69284,4.431408c3.69284,0.738568 7.385681,0.738568 11.817089,1.477136c0,-3.69284 0.738568,-8.862817 -0.738568,-11.078521c-7.385681,-9.601385 -15.509929,-18.464202 -23.634178,-28.065587c-4.431408,-4.431408 -8.124249,-5.169976 -13.294225,0.738568c-3.69284,4.431408 -9.601385,7.385681 -15.509929,8.862817c-36.189835,9.601385 -73.118239,19.20277 -109.308074,28.804155c-21.418474,5.908545 -37.666971,18.464202 -44.314084,39.882676c-10.339953,31.019859 1.477136,46.529788 33.235563,46.529788c84.935328,0 169.870656,0 255.544551,0c12.555657,0 23.634178,-2.215704 34.712699,-8.124249c9.601385,-5.169976 19.941338,-10.339953 30.281291,-16.248497c1.477136,4.431408 2.215704,7.385681 2.954272,11.078521c2.215704,12.555657 3.69284,13.294225 16.248497,13.294225c27.327018,0 54.654037,0 81.242487,0c14.771361,0 16.248497,-0.738568 16.248497,-16.248497c0,-47.268356 0,-94.536713 0,-141.805069c0,-22.89561 -0.738568,-23.634178 -22.89561,-23.634178c-44.314084,0 -88.628168,0 -132.942252,0c-5.908545,0 -8.862817,-1.477136 -10.339953,-8.124249c-1.477136,-7.385681 -4.431408,-14.032793 -8.124249,-20.679906c-3.69284,-7.385681 -10.339953,-10.339953 -18.464202,-8.862817c-8.124249,1.477136 -14.771361,4.431408 -16.248497,13.294225c-1.477136,6.647113 -3.69284,13.294225 -5.169976,20.679906c-11.078521,-2.954272 -20.679906,-5.908545 -30.281291,-8.862817c-5.169976,-1.477136 -10.339953,-2.215704 -12.555657,4.431408c-2.215704,6.647113 2.954272,8.862817 8.124249,10.339953c12.555657,3.69284 25.111314,6.647113 36.928403,11.078521c3.69284,1.477136 8.124249,5.908545 9.601385,9.601385c2.215704,5.169976 5.169976,8.124249 10.339953,6.647113c8.862817,-2.954272 14.771361,1.477136 20.679906,6.647113c5.908545,5.169976 13.294225,10.339953 20.679906,13.294225c13.294225,5.169976 24.372746,-1.477136 28.065587,-15.509929c1.477136,-5.908545 2.215704,-11.817089 2.954272,-18.464202c31.758427,0 62.778286,0 94.536713,0c2.954272,0 5.908545,2.215704 8.862817,3.69284c-3.69284,7.385681 -9.601385,7.385681 -15.509929,7.385681c-21.418474,0 -42.836948,0 -64.99399,0.738568c-2.954272,0 -8.124249,4.431408 -8.862817,6.647113c-0.738568,5.908545 4.431408,7.385681 9.601385,7.385681c17.725634,0 34.712699,0 52.438333,0c8.862817,0 17.725634,0 27.327018,0c-1.477136,44.314084 -1.477136,83.458192 -1.477136,125.556571zm-259.237392,-107.09237c5.169976,1.477136 8.862817,4.431408 11.817089,3.69284c9.601385,-1.477136 15.509929,3.69284 20.679906,11.078521c4.431408,6.647113 10.339953,8.124249 18.464202,5.908545c-0.738568,-3.69284 -0.738568,-7.385681 -2.215704,-9.601385c-7.385681,-9.601385 -15.509929,-19.20277 -24.372746,-28.065587c-3.69284,-4.431408 -8.124249,-4.431408 -11.817089,0.738568c-3.69284,4.431408 -8.124249,9.601385 -12.555657,16.248497zm78.288215,7.385681c2.954272,-1.477136 6.647113,-2.954272 7.385681,-4.431408c0.738568,-2.215704 0,-5.908545 -1.477136,-8.124249c-8.124249,-9.601385 -16.248497,-19.20277 -25.111314,-28.065587c-1.477136,-2.215704 -8.124249,-2.954272 -8.862817,-1.477136c-4.431408,5.908545 -8.124249,11.817089 -11.078521,18.464202c0,0.738568 4.431408,5.169976 6.647113,4.431408c11.078521,-2.215704 16.987066,2.954272 23.634178,10.339953c1.477136,3.69284 5.169976,5.908545 8.862817,8.862817z" class="st0"/>
   <path stroke="null" id="svg_3" d="m539.354689,334.942932c0,-41.359812 0,-80.503919 0,-121.863731c-9.601385,0 -18.464202,0 -27.327018,0c-17.725634,0 -34.712699,0 -52.438333,0c-5.169976,0 -10.339953,-1.477136 -9.601385,-7.385681c0.738568,-2.954272 5.908545,-6.647113 8.862817,-6.647113c21.418474,-0.738568 42.836948,-0.738568 64.99399,-0.738568c5.908545,0 11.817089,0 15.509929,-7.385681c-2.954272,-1.477136 -5.908545,-3.69284 -8.862817,-3.69284c-31.019859,0 -62.778286,0 -94.536713,0c-0.738568,5.908545 -1.477136,12.555657 -2.954272,18.464202c-3.69284,14.032793 -14.771361,20.679906 -28.065587,15.509929c-7.385681,-2.954272 -14.032793,-8.124249 -20.679906,-13.294225c-5.908545,-5.169976 -11.817089,-8.862817 -20.679906,-6.647113c-5.908545,1.477136 -8.124249,-1.477136 -10.339953,-6.647113c-2.215704,-3.69284 -5.908545,-8.124249 -9.601385,-9.601385c-11.817089,-4.431408 -25.111314,-7.385681 -36.928403,-11.078521c-5.169976,-1.477136 -9.601385,-3.69284 -8.124249,-10.339953c2.215704,-6.647113 7.385681,-5.908545 12.555657,-4.431408c9.601385,2.954272 19.941338,5.908545 30.281291,8.862817c2.215704,-7.385681 3.69284,-14.032793 5.169976,-20.679906c2.215704,-8.862817 8.124249,-12.555657 16.248497,-13.294225c8.124249,-1.477136 14.771361,1.477136 18.464202,8.862817c2.954272,6.647113 5.908545,13.294225 8.124249,20.679906c1.477136,5.908545 3.69284,8.124249 10.339953,8.124249c44.314084,0 88.628168,0 132.942252,0c22.89561,0 22.89561,0.738568 22.89561,23.634178c0,47.268356 0,94.536713 0,141.805069c0,15.509929 -1.477136,16.248497 -16.248497,16.248497c-27.327018,0 -54.654037,0 -81.242487,0c-12.555657,0 -14.032793,-1.477136 -16.248497,-13.294225c-0.738568,-3.69284 -1.477136,-6.647113 -2.954272,-11.078521c-11.078521,5.908545 -20.679906,11.078521 -30.281291,16.248497c-11.078521,5.908545 -22.157042,8.124249 -34.712699,8.124249c-84.935328,0 -169.870656,0 -255.544551,0c-32.496995,0 -43.575516,-16.248497 -33.235563,-46.529788c7.385681,-22.157042 22.89561,-34.712699 44.314084,-39.882676c36.189835,-9.601385 73.118239,-18.464202 109.308074,-28.804155c5.908545,-1.477136 11.817089,-4.431408 15.509929,-8.862817c5.169976,-5.169976 8.862817,-5.169976 13.294225,-0.738568c8.124249,8.862817 16.248497,17.725634 23.634178,28.065587c2.215704,2.215704 0.738568,7.385681 0.738568,11.078521c-3.69284,-0.738568 -8.124249,-0.738568 -11.817089,-1.477136c-1.477136,-0.738568 -2.954272,-2.954272 -3.69284,-4.431408c-6.647113,-10.339953 -16.248497,-13.294225 -27.327018,-10.339953c-39.882676,10.339953 -79.765351,20.679906 -119.648027,31.758427c-19.20277,5.169976 -31.019859,20.679906 -32.496995,39.144108c-0.738568,10.339953 2.954272,14.771361 12.555657,16.248497c2.954272,0 5.908545,0.738568 8.862817,0.738568c84.19676,0 169.132087,0 253.328847,-0.738568c10.339953,0 21.418474,-3.69284 31.019859,-8.124249c13.294225,-5.169976 25.111314,-13.294225 37.666971,-19.941338c10.339953,-5.169976 14.032793,-2.954272 14.771361,8.862817c1.477136,17.725634 1.477136,18.464202 19.20277,19.20277c22.157042,-3.69284 42.836948,-3.69284 64.99399,-3.69284zm-139.589365,-144.020773c-0.738568,0.738568 -3.69284,1.477136 -4.431408,2.954272c-0.738568,1.477136 1.477136,3.69284 2.954272,5.169976c3.69284,2.215704 6.647113,5.169976 11.078521,5.908545c2.215704,0.738568 5.169976,-2.215704 8.124249,-2.954272c-1.477136,-2.215704 -2.215704,-5.908545 -3.69284,-6.647113c-4.431408,-2.954272 -8.862817,-2.954272 -14.032793,-4.431408zm-26.58845,-21.418474c1.477136,-14.032793 -2.215704,-19.20277 -12.555657,-18.464202c-1.477136,8.862817 4.431408,16.987066 12.555657,18.464202z" class="st1"/>
   <path stroke="null" id="svg_4" d="m280.117297,227.850562c5.169976,-6.647113 8.862817,-11.078521 12.555657,-16.248497c3.69284,-5.169976 8.124249,-5.169976 11.817089,-0.738568c8.124249,8.862817 16.248497,18.464202 24.372746,28.065587c2.215704,2.215704 1.477136,6.647113 2.215704,9.601385c-8.124249,2.954272 -14.032793,0.738568 -18.464202,-5.908545c-5.169976,-7.385681 -11.078521,-11.817089 -20.679906,-11.078521c-3.69284,0 -7.385681,-2.215704 -11.817089,-3.69284z" class="st1"/>
   <path stroke="null" id="svg_5" d="m358.405512,235.236242c-3.69284,-2.954272 -7.385681,-5.169976 -10.339953,-8.124249c-5.908545,-7.385681 -12.555657,-13.294225 -23.634178,-10.339953c-1.477136,0.738568 -6.647113,-4.431408 -6.647113,-4.431408c2.954272,-6.647113 6.647113,-12.555657 11.078521,-18.464202c0.738568,-1.477136 7.385681,0 8.862817,1.477136c8.862817,8.862817 16.987066,18.464202 25.111314,28.065587c1.477136,2.215704 2.215704,5.908545 1.477136,8.124249c0.738568,1.477136 -2.954272,2.215704 -5.908545,3.69284z" class="st1"/>
   <path stroke="null" id="svg_6" d="m399.765324,190.922158c5.169976,1.477136 9.601385,1.477136 13.294225,3.69284c2.215704,0.738568 2.954272,4.431408 3.69284,6.647113c-2.954272,1.477136 -5.908545,3.69284 -8.124249,2.954272c-3.69284,-0.738568 -7.385681,-3.69284 -11.078521,-5.908545c-1.477136,-0.738568 -2.954272,-3.69284 -2.954272,-5.169976c1.477136,-0.738568 4.431408,-1.477136 5.169976,-2.215704z" class="st0"/>
   <path stroke="null" id="svg_7" d="m373.176874,169.503684c-8.862817,-1.477136 -14.032793,-9.601385 -12.555657,-18.464202c11.078521,-1.477136 14.771361,4.431408 12.555657,18.464202z" class="st0"/>
  </g>
 </g>
</svg>